<svg xmlns="http://www.w3.org/2000/svg" viewBox="0 0 412 117" width="260" height="80">
<rect width="100%" height="100%" fill="#ffffff"/>
<path stroke="#000000" stroke-width="4" d="M78 91L78 10M85 91L85 10M103 91L103 10M124 91L124 10M131 91L131 10M177 91L177 10M185 91L185 10M192 91L192 10M202 91L202 10M227 91L227 10M234 91L234 10M270 91L270 10M309 91L309 10M327 91L327 10M334 91L334 10"/>
<path stroke="#000000" stroke-width="7" d="M114.50 91L114.50 10M242.50 91L242.50 10M257.50 91L257.50 10M317.50 91L317.50 10"/>
<path stroke="#000000" stroke-width="14" d="M151 91L151 10M283 91L283 10"/>
<path stroke="#000000" stroke-width="11" d="M166.50 91L166.50 10M212.50 91L212.50 10"/>
<path d="M17.16 99.56L17.16 99.46Q17.26 95.29 23.74 92.81Q24.09 92.67 24.53 92.67Q25.10 92.67 25.52 92.89Q25.96 93.12 25.96 93.45Q25.96 93.85 25.33 94.09Q22.86 94.98 21.46 96.26Q20.04 97.56 20.01 99.46L20.01 99.54Q20.01 102.84 25.33 104.70Q25.96 104.94 25.96 105.36Q25.96 105.69 25.52 105.91Q25.10 106.14 24.53 106.14Q24.09 106.14 23.74 106.02Q17.16 103.59 17.16 99.56ZM42.20 106.14L42.07 106.14Q40.21 106.12 38.81 105.79Q37.42 105.48 36.60 104.98Q35.77 104.45 35.30 103.64Q34.79 102.82 34.64 101.99Q34.48 101.17 34.48 100.06Q34.48 99.07 34.51 98.38Q34.57 97.67 34.76 96.85Q34.95 96.02 35.27 95.46Q35.62 94.89 36.19 94.32Q36.76 93.76 37.55 93.43Q38.34 93.10 39.48 92.89Q40.62 92.68 42.07 92.68Q43.50 92.68 44.64 92.89Q45.77 93.10 46.57 93.43Q47.36 93.76 47.96 94.32Q48.53 94.89 48.84 95.46Q49.19 96.04 49.38 96.85Q49.57 97.67 49.60 98.38Q49.67 99.09 49.67 100.06Q49.67 100.76 49.60 101.33Q49.54 101.89 49.32 102.55Q49.13 103.21 48.81 103.71Q48.50 104.19 47.90 104.66Q47.29 105.13 46.53 105.44Q45.77 105.76 44.67 105.95Q43.56 106.14 42.20 106.14M37.33 98.64L37.33 100.06Q37.33 100.84 37.39 101.40Q37.48 101.96 37.77 102.60Q38.02 103.24 38.53 103.64Q39.03 104.06 39.92 104.33Q40.81 104.59 42.07 104.59L42.74 104.59Q43.62 104.59 44.32 104.40Q45.02 104.19 45.43 103.81Q45.87 103.45 46.15 103.03Q46.44 102.60 46.57 102.06Q46.72 101.50 46.76 101.05Q46.82 100.60 46.82 100.06L46.82 99.26Q46.82 98.73 46.79 98.41Q46.79 98.08 46.76 97.60Q46.72 97.09 46.63 96.82Q46.53 96.52 46.38 96.12Q46.22 95.72 45.96 95.48Q45.71 95.24 45.36 94.98Q44.98 94.72 44.54 94.58Q44.07 94.42 43.43 94.33Q42.83 94.25 42.07 94.25Q41.28 94.25 40.65 94.35Q40.05 94.44 39.57 94.61Q39.10 94.79 38.72 95.05Q38.37 95.29 38.12 95.60Q37.86 95.90 37.71 96.26Q37.55 96.61 37.48 97.01Q37.42 97.39 37.36 97.81Q37.33 98.21 37.33 98.64ZM57.87 96.73Q57.46 96.49 57.46 96.17Q57.46 95.81 57.87 95.64L63.66 92.91Q64.07 92.72 64.58 92.72L65.59 92.72Q66.16 92.72 66.57 92.96Q67.02 93.19 67.02 93.50L67.02 105.31Q67.02 105.62 66.57 105.86Q66.16 106.09 65.59 106.09Q65.02 106.09 64.58 105.86Q64.17 105.64 64.17 105.31L64.17 94.73L59.83 96.76Q59.42 96.96 58.88 96.96Q58.28 96.96 57.87 96.73ZM80.79 105.36Q80.79 104.94 81.42 104.70Q86.77 102.79 86.77 99.46Q86.77 96.09 81.42 94.09L81.39 94.07Q81.17 94.04 80.98 93.83Q80.79 93.62 80.79 93.45Q80.79 93.14 81.20 92.91Q81.64 92.67 82.21 92.67Q82.65 92.67 83.00 92.81Q89.62 95.31 89.62 99.46Q89.62 103.55 83.00 106.02Q82.65 106.14 82.21 106.14Q81.64 106.14 81.20 105.91Q80.79 105.67 80.79 105.36ZM108.20 106.14L108.07 106.14Q106.21 106.12 104.81 105.79Q103.42 105.48 102.60 104.98Q101.77 104.45 101.30 103.64Q100.79 102.82 100.64 101.99Q100.48 101.17 100.48 100.06Q100.48 99.07 100.51 98.38Q100.57 97.67 100.76 96.85Q100.95 96.02 101.27 95.46Q101.62 94.89 102.19 94.32Q102.76 93.76 103.55 93.43Q104.34 93.10 105.48 92.89Q106.62 92.68 108.07 92.68Q109.50 92.68 110.64 92.89Q111.77 93.10 112.57 93.43Q113.36 93.76 113.96 94.32Q114.53 94.89 114.84 95.46Q115.19 96.04 115.38 96.85Q115.57 97.67 115.60 98.38Q115.67 99.09 115.67 100.06Q115.67 100.76 115.60 101.33Q115.54 101.89 115.32 102.55Q115.13 103.21 114.81 103.71Q114.50 104.19 113.90 104.66Q113.29 105.13 112.53 105.44Q111.77 105.76 110.67 105.95Q109.56 106.14 108.20 106.14M103.33 98.64L103.33 100.06Q103.33 100.84 103.39 101.40Q103.48 101.96 103.77 102.60Q104.02 103.24 104.53 103.64Q105.03 104.06 105.92 104.33Q106.81 104.59 108.07 104.59L108.74 104.59Q109.62 104.59 110.32 104.40Q111.02 104.19 111.43 103.81Q111.87 103.45 112.15 103.03Q112.44 102.60 112.57 102.06Q112.72 101.50 112.76 101.05Q112.82 100.60 112.82 100.06L112.82 99.26Q112.82 98.73 112.79 98.41Q112.79 98.08 112.76 97.60Q112.72 97.09 112.63 96.82Q112.53 96.52 112.38 96.12Q112.22 95.72 111.96 95.48Q111.71 95.24 111.36 94.98Q110.98 94.72 110.54 94.58Q110.07 94.42 109.43 94.33Q108.83 94.25 108.07 94.25Q107.28 94.25 106.65 94.35Q106.05 94.44 105.57 94.61Q105.10 94.79 104.72 95.05Q104.37 95.29 104.12 95.60Q103.86 95.90 103.71 96.26Q103.55 96.61 103.48 97.01Q103.42 97.39 103.36 97.81Q103.33 98.21 103.33 98.64ZM126.72 95.08Q125.33 95.91 125.33 97.08Q125.33 98.21 126.65 98.92Q127.92 99.61 130.07 99.61Q133.84 99.61 134.50 98.34Q134.82 97.77 134.82 97.08Q134.82 95.78 133.49 95.01Q132.19 94.23 130.07 94.23Q128.08 94.23 126.72 95.08M124.63 99.99Q122.48 98.83 122.48 97.08Q122.48 95.27 124.76 93.97Q126.97 92.67 130.07 92.67Q133.27 92.67 135.45 93.88Q137.67 95.10 137.67 97.08Q137.67 98.31 137.00 99.30Q136.34 100.29 135.14 101.43Q132.51 103.95 128.71 105.88Q128.30 106.09 127.83 106.09Q127.29 106.09 126.88 105.86Q126.46 105.64 126.46 105.31Q126.46 104.98 126.91 104.73Q129.91 103.15 132.07 101.24L132.22 101.07L131.91 101.10Q131.09 101.17 130.07 101.17Q126.72 101.17 124.63 99.99ZM145.71 105.91Q145.30 105.69 145.30 105.36Q145.30 105.01 145.71 104.78Q146.15 104.56 146.72 104.56Q153.12 104.56 154.98 102.60Q155.55 102.01 155.55 101.47Q155.55 100.20 154.48 99.56Q153.05 98.64 149.48 98.64Q148.50 98.64 147.48 98.69L147.36 98.69Q146.79 98.69 146.34 98.48Q145.93 98.26 145.93 97.95L145.93 97.89L146.38 93.47Q146.44 93.15 146.82 92.95Q147.23 92.74 147.80 92.74L156.79 92.74Q157.39 92.74 157.80 92.98Q158.21 93.21 158.21 93.52Q158.21 93.83 157.77 94.07Q157.36 94.32 156.79 94.32L149.13 94.32L148.88 97.04L149.48 97.04Q153.50 97.04 155.93 98.17Q158.40 99.28 158.40 101.47Q158.40 102.39 157.67 103.19Q156.91 104.00 155.77 104.58Q152.74 106.14 146.72 106.14Q146.15 106.14 145.71 105.91M147.45 98.69Q147.45 98.69 147.48 98.69Q147.48 98.69 147.45 98.69ZM167.43 94.91Q167.02 94.66 167.02 94.37Q167.02 93.93 167.62 93.71Q170.50 92.67 174.07 92.67Q176.95 92.67 178.88 93.67Q180.84 94.66 180.84 96.28Q180.84 96.92 180.43 97.51Q180.02 98.12 179.48 98.50Q178.98 98.88 177.96 99.35Q176.95 99.82 176.41 100.03Q175.91 100.24 174.80 100.64Q173.60 101.07 173.06 101.30Q172.52 101.52 171.76 101.97Q171.00 102.41 170.65 102.96Q170.31 103.50 170.24 104.25L170.24 104.33L179.61 104.33Q180.21 104.33 180.62 104.58Q181.03 104.80 181.03 105.11Q181.03 105.43 180.59 105.67Q180.18 105.90 179.61 105.90L168.79 105.90Q168.22 105.90 167.77 105.67Q167.36 105.43 167.36 105.11L167.36 104.75Q167.36 103.40 167.68 102.81Q168.22 101.76 169.71 100.95Q171.19 100.12 173.34 99.32Q176.32 98.22 177.11 97.60Q178.00 96.97 178.00 96.28Q178.00 95.36 176.83 94.79Q175.72 94.23 174.07 94.23Q171.22 94.23 169.26 94.99Q168.91 95.13 168.44 95.13Q167.87 95.13 167.43 94.91ZM189.87 96.73Q189.46 96.49 189.46 96.17Q189.46 95.81 189.87 95.64L195.66 92.91Q196.07 92.72 196.58 92.72L197.59 92.72Q198.16 92.72 198.57 92.96Q199.02 93.19 199.02 93.50L199.02 105.31Q199.02 105.62 198.57 105.86Q198.16 106.09 197.59 106.09Q197.02 106.09 196.58 105.86Q196.17 105.64 196.17 105.31L196.17 94.73L191.83 96.76Q191.42 96.96 190.88 96.96Q190.28 96.96 189.87 96.73ZM211.43 94.91Q211.02 94.66 211.02 94.37Q211.02 93.93 211.62 93.71Q214.50 92.67 218.07 92.67Q220.95 92.67 222.88 93.67Q224.84 94.66 224.84 96.28Q224.84 96.92 224.43 97.51Q224.02 98.12 223.48 98.50Q222.98 98.88 221.96 99.35Q220.95 99.82 220.41 100.03Q219.91 100.24 218.80 100.64Q217.60 101.07 217.06 101.30Q216.52 101.52 215.76 101.97Q215.00 102.41 214.65 102.96Q214.31 103.50 214.24 104.25L214.24 104.33L223.61 104.33Q224.21 104.33 224.62 104.58Q225.03 104.80 225.03 105.11Q225.03 105.43 224.59 105.67Q224.18 105.90 223.61 105.90L212.79 105.90Q212.22 105.90 211.77 105.67Q211.36 105.43 211.36 105.11L211.36 104.75Q211.36 103.40 211.68 102.81Q212.22 101.76 213.71 100.95Q215.19 100.12 217.34 99.32Q220.32 98.22 221.11 97.60Q222.00 96.97 222.00 96.28Q222.00 95.36 220.83 94.79Q219.72 94.23 218.07 94.23Q215.22 94.23 213.26 94.99Q212.91 95.13 212.44 95.13Q211.87 95.13 211.43 94.91ZM233.14 105.48Q232.48 105.20 232.48 104.78Q232.48 104.45 232.89 104.23Q233.33 103.99 233.90 103.99Q234.09 103.99 234.44 104.06Q236.46 104.56 238.68 104.56Q241.09 104.56 242.73 103.90Q244.41 103.22 244.53 101.94L244.53 101.76Q244.53 100.88 243.52 100.25Q242.57 99.65 241.18 99.39Q239.82 99.14 238.14 99.14Q237.60 99.14 237.19 98.92Q236.78 98.67 236.78 98.34Q236.78 98.03 237.07 97.86L242.89 94.32L234.00 94.32Q233.43 94.32 232.98 94.09Q232.57 93.85 232.57 93.52Q232.57 93.19 232.98 92.96Q233.40 92.74 234.00 92.74L245.17 92.74Q245.74 92.74 246.15 92.98Q246.59 93.21 246.59 93.52L246.59 94.14Q246.59 94.42 246.15 94.66L241.05 97.74L241.31 97.77Q244.00 98.15 245.71 99.18Q247.38 100.20 247.38 101.75L247.38 102.02Q247.22 103.92 244.69 105.03Q242.22 106.14 238.68 106.14Q237.79 106.14 236.91 106.09Q236.02 106.03 234.91 105.91Q233.81 105.77 233.14 105.48ZM254.89 102.84Q254.48 102.61 254.48 102.28L254.48 101.54Q254.48 101.40 254.64 101.21L261.38 93.17Q261.50 92.98 261.85 92.86Q262.20 92.72 262.58 92.72Q263.15 92.72 263.56 92.96Q263.97 93.19 263.97 93.50Q263.97 93.67 263.81 93.83L257.48 101.50L263.65 101.50L263.65 99.40Q263.65 99.09 264.07 98.87Q264.48 98.62 265.02 98.62Q265.55 98.62 265.96 98.87Q266.41 99.09 266.41 99.40L266.41 101.50L268.24 101.50Q268.84 101.50 269.26 101.75Q269.67 101.97 269.67 102.28Q269.67 102.60 269.22 102.84Q268.81 103.07 268.24 103.07L266.41 103.07L266.41 105.31Q266.41 105.62 265.96 105.84Q265.55 106.09 265.02 106.09Q264.48 106.09 264.07 105.86Q263.65 105.62 263.65 105.31L263.65 103.07L255.90 103.07Q255.33 103.07 254.89 102.84ZM277.71 105.91Q277.30 105.69 277.30 105.36Q277.30 105.01 277.71 104.78Q278.15 104.56 278.72 104.56Q285.12 104.56 286.98 102.60Q287.55 102.01 287.55 101.47Q287.55 100.20 286.48 99.56Q285.05 98.64 281.48 98.64Q280.50 98.64 279.48 98.69L279.36 98.69Q278.79 98.69 278.34 98.48Q277.93 98.26 277.93 97.95L277.93 97.89L278.38 93.47Q278.44 93.15 278.82 92.95Q279.23 92.74 279.80 92.74L288.79 92.74Q289.39 92.74 289.80 92.98Q290.21 93.21 290.21 93.52Q290.21 93.83 289.77 94.07Q289.36 94.32 288.79 94.32L281.13 94.32L280.88 97.04L281.48 97.04Q285.50 97.04 287.93 98.17Q290.40 99.28 290.40 101.47Q290.40 102.39 289.67 103.19Q288.91 104.00 287.77 104.58Q284.74 106.14 278.72 106.14Q278.15 106.14 277.71 105.91M279.45 98.69Q279.45 98.69 279.48 98.69Q279.48 98.69 279.45 98.69ZM298.89 102.84Q298.48 102.61 298.48 102.28L298.48 101.54Q298.48 101.40 298.64 101.21L305.38 93.17Q305.50 92.98 305.85 92.86Q306.20 92.72 306.58 92.72Q307.15 92.72 307.56 92.96Q307.97 93.19 307.97 93.50Q307.97 93.67 307.81 93.83L301.48 101.50L307.65 101.50L307.65 99.40Q307.65 99.09 308.07 98.87Q308.48 98.62 309.02 98.62Q309.55 98.62 309.96 98.87Q310.41 99.09 310.41 99.40L310.41 101.50L312.24 101.50Q312.84 101.50 313.26 101.75Q313.67 101.97 313.67 102.28Q313.67 102.60 313.22 102.84Q312.81 103.07 312.24 103.07L310.41 103.07L310.41 105.31Q310.41 105.62 309.96 105.84Q309.55 106.09 309.02 106.09Q308.48 106.09 308.07 105.86Q307.65 105.62 307.65 105.31L307.65 103.07L299.90 103.07Q299.33 103.07 298.89 102.84ZM321.14 105.48Q320.48 105.20 320.48 104.78Q320.48 104.45 320.89 104.23Q321.33 103.99 321.90 103.99Q322.09 103.99 322.44 104.06Q324.46 104.56 326.68 104.56Q329.09 104.56 330.73 103.90Q332.41 103.22 332.53 101.94L332.53 101.76Q332.53 100.88 331.52 100.25Q330.57 99.65 329.18 99.39Q327.82 99.14 326.14 99.14Q325.60 99.14 325.19 98.92Q324.78 98.67 324.78 98.34Q324.78 98.03 325.07 97.86L330.89 94.32L322.00 94.32Q321.43 94.32 320.98 94.09Q320.57 93.85 320.57 93.52Q320.57 93.19 320.98 92.96Q321.40 92.74 322.00 92.74L333.17 92.74Q333.74 92.74 334.15 92.98Q334.59 93.21 334.59 93.52L334.59 94.14Q334.59 94.42 334.15 94.66L329.05 97.74L329.31 97.77Q332.00 98.15 333.71 99.18Q335.38 100.20 335.38 101.75L335.38 102.02Q335.22 103.92 332.69 105.03Q330.22 106.14 326.68 106.14Q325.79 106.14 324.91 106.09Q324.02 106.03 322.91 105.91Q321.81 105.77 321.14 105.48ZM343.43 94.91Q343.02 94.66 343.02 94.37Q343.02 93.93 343.62 93.71Q346.50 92.67 350.07 92.67Q352.95 92.67 354.88 93.67Q356.84 94.66 356.84 96.28Q356.84 96.92 356.43 97.51Q356.02 98.12 355.48 98.50Q354.98 98.88 353.96 99.35Q352.95 99.82 352.41 100.03Q351.91 100.24 350.80 100.64Q349.60 101.07 349.06 101.30Q348.52 101.52 347.76 101.97Q347.00 102.41 346.65 102.96Q346.31 103.50 346.24 104.25L346.24 104.33L355.61 104.33Q356.21 104.33 356.62 104.58Q357.03 104.80 357.03 105.11Q357.03 105.43 356.59 105.67Q356.18 105.90 355.61 105.90L344.79 105.90Q344.22 105.90 343.77 105.67Q343.36 105.43 343.36 105.11L343.36 104.75Q343.36 103.40 343.68 102.81Q344.22 101.76 345.71 100.95Q347.19 100.12 349.34 99.32Q352.32 98.22 353.11 97.60Q354.00 96.97 354.00 96.28Q354.00 95.36 352.83 94.79Q351.72 94.23 350.07 94.23Q347.22 94.23 345.26 94.99Q344.91 95.13 344.44 95.13Q343.87 95.13 343.43 94.91ZM365.87 96.73Q365.46 96.49 365.46 96.17Q365.46 95.81 365.87 95.64L371.66 92.91Q372.07 92.72 372.58 92.72L373.59 92.72Q374.16 92.72 374.57 92.96Q375.02 93.19 375.02 93.50L375.02 105.31Q375.02 105.62 374.57 105.86Q374.16 106.09 373.59 106.09Q373.02 106.09 372.58 105.86Q372.17 105.64 372.17 105.31L372.17 94.73L367.83 96.76Q367.42 96.96 366.88 96.96Q366.28 96.96 365.87 96.73ZM387.14 105.48Q386.48 105.20 386.48 104.78Q386.48 104.45 386.89 104.23Q387.33 103.99 387.90 103.99Q388.09 103.99 388.44 104.06Q390.46 104.56 392.68 104.56Q395.09 104.56 396.73 103.90Q398.41 103.22 398.53 101.94L398.53 101.76Q398.53 100.88 397.52 100.25Q396.57 99.65 395.18 99.39Q393.82 99.14 392.14 99.14Q391.60 99.14 391.19 98.92Q390.78 98.67 390.78 98.34Q390.78 98.03 391.07 97.86L396.89 94.32L388.00 94.32Q387.43 94.32 386.98 94.09Q386.57 93.85 386.57 93.52Q386.57 93.19 386.98 92.96Q387.40 92.74 388.00 92.74L399.17 92.74Q399.74 92.74 400.15 92.98Q400.59 93.21 400.59 93.52L400.59 94.14Q400.59 94.42 400.15 94.66L395.05 97.74L395.31 97.77Q398.00 98.15 399.71 99.18Q401.38 100.20 401.38 101.75L401.38 102.02Q401.22 103.92 398.69 105.03Q396.22 106.14 392.68 106.14Q391.79 106.14 390.91 106.09Q390.02 106.03 388.91 105.91Q387.81 105.77 387.14 105.48Z" fill="#000000"/>
</svg>