<svg xmlns="http://www.w3.org/2000/svg" viewBox="0 0 296 127" width="260" height="80">
<rect width="100%" height="100%" fill="#ffffff"/>
<path stroke="#000000" stroke-width="2" d="M33 109L33 28M37 109L37 28M57 98L57 28M65 98L65 28M69 98L69 28M93 98L93 28M121 98L121 28M125 109L125 28M129 109L129 28M147 98L147 28M155 98L155 28M161 98L161 28M185 98L185 28M199 98L199 28M217 109L217 28M221 109L221 28M247 98L247 50M267 98L267 50M271 98L271 50M277 98L277 50M285 98L285 50"/>
<path stroke="#000000" stroke-width="6" d="M43 98L43 28M77 98L77 28M169 98L169 28M177 98L177 28M191 98L191 28"/>
<path stroke="#000000" stroke-width="4" d="M50 98L50 28M98 98L98 28M106 98L106 28M114 98L114 28M134 98L134 28M142 98L142 28M204 98L204 28M212 98L212 28M252 98L252 50M260 98L260 50"/>
<path stroke="#000000" stroke-width="8" d="M86 98L86 28"/>
<path d="M14.27 102.90Q13.32 103.90 13.32 105.29Q13.32 106.65 14.23 107.50Q15.10 108.33 16.58 108.33Q19.16 108.33 19.61 106.81Q19.83 106.13 19.83 105.29Q19.83 103.73 18.92 102.81Q18.03 101.88 16.58 101.88Q15.21 101.88 14.27 102.90M12.84 108.79Q11.37 107.40 11.37 105.29Q11.37 103.13 12.93 101.56Q14.45 100.00 16.58 100.00Q18.77 100.00 20.26 101.46Q21.78 102.92 21.78 105.29Q21.78 106.77 21.33 107.96Q20.87 109.15 20.05 110.52Q18.25 113.54 15.64 115.85Q15.36 116.10 15.03 116.10Q14.67 116.10 14.38 115.83Q14.10 115.56 14.10 115.17Q14.10 114.77 14.41 114.48Q16.47 112.58 17.94 110.29L18.05 110.08L17.83 110.13Q17.27 110.21 16.58 110.21Q14.27 110.21 12.84 108.79Z" fill="#000000"/>
<path d="M41.65 101.71Q41.37 101.42 41.37 101.02Q41.37 100.63 41.65 100.36Q41.93 100.08 42.34 100.08L50.81 100.08Q51.22 100.08 51.50 100.38Q51.78 100.65 51.78 101.02Q51.78 102.61 50.50 104.46Q50.11 105.04 48.98 106.40Q47.86 107.77 47.38 108.63Q45.97 111.13 45.97 115.15Q45.97 115.54 45.69 115.83Q45.40 116.10 45.03 116.10Q44.67 116.10 44.38 115.83Q44.10 115.56 44.10 115.15Q44.10 110.60 45.75 107.67Q46.25 106.81 47.38 105.38Q48.53 103.92 48.90 103.38Q49.42 102.54 49.61 102.13L49.66 101.98L42.34 101.98Q41.95 101.98 41.65 101.71Z" fill="#000000"/>
<path d="M55.65 101.71Q55.37 101.42 55.37 101.02Q55.37 100.63 55.65 100.36Q55.93 100.08 56.34 100.08L64.81 100.08Q65.22 100.08 65.50 100.38Q65.78 100.65 65.78 101.02Q65.78 102.61 64.50 104.46Q64.11 105.04 62.98 106.40Q61.86 107.77 61.38 108.63Q59.97 111.13 59.97 115.15Q59.97 115.54 59.69 115.83Q59.40 116.10 59.03 116.10Q58.67 116.10 58.38 115.83Q58.10 115.56 58.10 115.15Q58.10 110.60 59.75 107.67Q60.25 106.81 61.38 105.38Q62.53 103.92 62.90 103.38Q63.42 102.54 63.61 102.13L63.66 101.98L56.34 101.98Q55.95 101.98 55.65 101.71Z" fill="#000000"/>
<path d="M74.66 116.17L74.58 116.17Q73.29 116.15 72.34 115.75Q71.39 115.38 70.82 114.77Q70.26 114.15 69.93 113.17Q69.58 112.19 69.48 111.19Q69.37 110.21 69.37 108.88Q69.37 107.69 69.39 106.85Q69.43 106.00 69.56 105.02Q69.69 104.02 69.91 103.36Q70.15 102.67 70.54 101.98Q70.93 101.31 71.47 100.92Q72.01 100.52 72.80 100.27Q73.58 100.02 74.58 100.02Q75.55 100.02 76.33 100.27Q77.11 100.52 77.66 100.92Q78.20 101.31 78.61 101.98Q79.00 102.67 79.22 103.36Q79.46 104.04 79.59 105.02Q79.72 106.00 79.74 106.85Q79.78 107.71 79.78 108.88Q79.78 109.71 79.74 110.40Q79.70 111.06 79.54 111.85Q79.41 112.65 79.20 113.25Q78.98 113.83 78.57 114.40Q78.16 114.96 77.63 115.33Q77.11 115.71 76.35 115.94Q75.59 116.17 74.66 116.17M71.32 107.17L71.32 108.88Q71.32 109.81 71.36 110.48Q71.43 111.15 71.62 111.92Q71.80 112.69 72.14 113.17Q72.49 113.67 73.10 114.00Q73.71 114.31 74.58 114.31L75.03 114.31Q75.64 114.31 76.12 114.08Q76.59 113.83 76.88 113.38Q77.18 112.94 77.37 112.44Q77.57 111.92 77.66 111.27Q77.76 110.60 77.79 110.06Q77.83 109.52 77.83 108.88L77.83 107.92Q77.83 107.27 77.81 106.90Q77.81 106.50 77.79 105.92Q77.76 105.31 77.70 104.98Q77.63 104.63 77.53 104.15Q77.42 103.67 77.24 103.38Q77.07 103.08 76.83 102.77Q76.57 102.46 76.27 102.29Q75.94 102.11 75.51 102.00Q75.10 101.90 74.58 101.90Q74.03 101.90 73.60 102.02Q73.19 102.13 72.86 102.33Q72.54 102.54 72.27 102.86Q72.04 103.15 71.86 103.52Q71.69 103.88 71.58 104.31Q71.47 104.73 71.43 105.21Q71.39 105.67 71.34 106.17Q71.32 106.65 71.32 107.17Z" fill="#000000"/>
<path d="M83.82 115.38Q83.37 115.04 83.37 114.54Q83.37 114.15 83.65 113.88Q83.95 113.58 84.34 113.58Q84.47 113.58 84.71 113.67Q86.10 114.27 87.62 114.27Q89.27 114.27 90.40 113.48Q91.55 112.67 91.63 111.13L91.63 110.92Q91.63 109.85 90.94 109.10Q90.29 108.38 89.33 108.06Q88.40 107.77 87.25 107.77Q86.88 107.77 86.60 107.50Q86.32 107.21 86.32 106.81Q86.32 106.44 86.51 106.23L90.51 101.98L84.41 101.98Q84.02 101.98 83.71 101.71Q83.43 101.42 83.43 101.02Q83.43 100.63 83.71 100.36Q84.00 100.08 84.41 100.08L92.07 100.08Q92.46 100.08 92.74 100.38Q93.05 100.65 93.05 101.02L93.05 101.77Q93.05 102.11 92.74 102.40L89.25 106.08L89.42 106.13Q91.27 106.58 92.44 107.81Q93.59 109.04 93.59 110.90L93.59 111.23Q93.48 113.50 91.74 114.83Q90.05 116.17 87.62 116.17Q87.01 116.17 86.41 116.10Q85.80 116.04 85.04 115.90Q84.28 115.73 83.82 115.38Z" fill="#000000"/>
<path d="M98.32 104.88Q98.04 104.58 98.04 104.21Q98.04 103.77 98.32 103.56L102.29 100.29Q102.58 100.06 102.92 100.06L103.62 100.06Q104.01 100.06 104.29 100.36Q104.59 100.63 104.59 101.00L104.59 115.17Q104.59 115.54 104.29 115.83Q104.01 116.10 103.62 116.10Q103.23 116.10 102.92 115.83Q102.64 115.56 102.64 115.17L102.64 102.48L99.67 104.92Q99.39 105.15 99.02 105.15Q98.60 105.15 98.32 104.88Z" fill="#000000"/>
<path d="M112.32 104.88Q112.04 104.58 112.04 104.21Q112.04 103.77 112.32 103.56L116.29 100.29Q116.58 100.06 116.92 100.06L117.62 100.06Q118.01 100.06 118.29 100.36Q118.59 100.63 118.59 101.00L118.59 115.17Q118.59 115.54 118.29 115.83Q118.01 116.10 117.62 116.10Q117.23 116.10 116.92 115.83Q116.64 115.56 116.64 115.17L116.64 102.48L113.67 104.92Q113.39 105.15 113.02 105.15Q112.60 105.15 112.32 104.88Z" fill="#000000"/>
<path d="M134.32 104.88Q134.04 104.58 134.04 104.21Q134.04 103.77 134.32 103.56L138.29 100.29Q138.58 100.06 138.92 100.06L139.62 100.06Q140.01 100.06 140.29 100.36Q140.59 100.63 140.59 101.00L140.59 115.17Q140.59 115.54 140.29 115.83Q140.01 116.10 139.62 116.10Q139.23 116.10 138.92 115.83Q138.64 115.56 138.64 115.17L138.64 102.48L135.67 104.92Q135.39 105.15 135.02 105.15Q134.60 105.15 134.32 104.88Z" fill="#000000"/>
<path d="M147.65 101.71Q147.37 101.42 147.37 101.02Q147.37 100.63 147.65 100.36Q147.93 100.08 148.34 100.08L156.81 100.08Q157.22 100.08 157.50 100.38Q157.78 100.65 157.78 101.02Q157.78 102.61 156.50 104.46Q156.11 105.04 154.98 106.40Q153.86 107.77 153.38 108.63Q151.97 111.13 151.97 115.15Q151.97 115.54 151.69 115.83Q151.40 116.10 151.03 116.10Q150.67 116.10 150.38 115.83Q150.10 115.56 150.10 115.15Q150.10 110.60 151.75 107.67Q152.25 106.81 153.38 105.38Q154.53 103.92 154.90 103.38Q155.42 102.54 155.61 102.13L155.66 101.98L148.34 101.98Q147.95 101.98 147.65 101.71Z" fill="#000000"/>
<path d="M162.21 115.90Q161.93 115.63 161.93 115.23Q161.93 114.81 162.21 114.54Q162.52 114.27 162.91 114.27Q167.29 114.27 168.57 111.92Q168.96 111.21 168.96 110.56Q168.96 109.04 168.22 108.27Q167.25 107.17 164.80 107.17Q164.12 107.17 163.43 107.23L163.34 107.23Q162.95 107.23 162.65 106.98Q162.37 106.71 162.37 106.33L162.37 106.27L162.67 100.96Q162.71 100.58 162.97 100.33Q163.25 100.08 163.65 100.08L169.81 100.08Q170.22 100.08 170.50 100.38Q170.78 100.65 170.78 101.02Q170.78 101.40 170.48 101.69Q170.20 101.98 169.81 101.98L164.56 101.98L164.38 105.25L164.80 105.25Q167.55 105.25 169.22 106.60Q170.92 107.94 170.92 110.56Q170.92 111.67 170.42 112.63Q169.90 113.60 169.11 114.29Q167.03 116.17 162.91 116.17Q162.52 116.17 162.21 115.90M163.41 107.23Q163.41 107.23 163.43 107.23Q163.43 107.23 163.41 107.23Z" fill="#000000"/>
<path d="M180.66 116.17L180.58 116.17Q179.29 116.15 178.34 115.75Q177.39 115.38 176.82 114.77Q176.26 114.15 175.93 113.17Q175.58 112.19 175.48 111.19Q175.37 110.21 175.37 108.88Q175.37 107.69 175.39 106.85Q175.43 106.00 175.56 105.02Q175.69 104.02 175.91 103.36Q176.15 102.67 176.54 101.98Q176.93 101.31 177.47 100.92Q178.01 100.52 178.80 100.27Q179.58 100.02 180.58 100.02Q181.55 100.02 182.33 100.27Q183.11 100.52 183.66 100.92Q184.20 101.31 184.61 101.98Q185.00 102.67 185.22 103.36Q185.46 104.04 185.59 105.02Q185.72 106.00 185.74 106.85Q185.78 107.71 185.78 108.88Q185.78 109.71 185.74 110.40Q185.70 111.06 185.54 111.85Q185.41 112.65 185.20 113.25Q184.98 113.83 184.57 114.40Q184.16 114.96 183.63 115.33Q183.11 115.71 182.35 115.94Q181.59 116.17 180.66 116.17M177.32 107.17L177.32 108.88Q177.32 109.81 177.36 110.48Q177.43 111.15 177.62 111.92Q177.80 112.69 178.14 113.17Q178.49 113.67 179.10 114.00Q179.71 114.31 180.58 114.31L181.03 114.31Q181.64 114.31 182.12 114.08Q182.59 113.83 182.88 113.38Q183.18 112.94 183.37 112.44Q183.57 111.92 183.66 111.27Q183.76 110.60 183.79 110.06Q183.83 109.52 183.83 108.88L183.83 107.92Q183.83 107.27 183.81 106.90Q183.81 106.50 183.79 105.92Q183.76 105.31 183.70 104.98Q183.63 104.63 183.53 104.15Q183.42 103.67 183.24 103.38Q183.07 103.08 182.83 102.77Q182.57 102.46 182.27 102.29Q181.94 102.11 181.51 102.00Q181.10 101.90 180.58 101.90Q180.03 101.90 179.60 102.02Q179.19 102.13 178.86 102.33Q178.54 102.54 178.27 102.86Q178.04 103.15 177.86 103.52Q177.69 103.88 177.58 104.31Q177.47 104.73 177.43 105.21Q177.39 105.67 177.34 106.17Q177.32 106.65 177.32 107.17Z" fill="#000000"/>
<path d="M194.66 116.17L194.58 116.17Q193.29 116.15 192.34 115.75Q191.39 115.38 190.82 114.77Q190.26 114.15 189.93 113.17Q189.58 112.19 189.48 111.19Q189.37 110.21 189.37 108.88Q189.37 107.69 189.39 106.85Q189.43 106.00 189.56 105.02Q189.69 104.02 189.91 103.36Q190.15 102.67 190.54 101.98Q190.93 101.31 191.47 100.92Q192.01 100.52 192.80 100.27Q193.58 100.02 194.58 100.02Q195.55 100.02 196.33 100.27Q197.11 100.52 197.66 100.92Q198.20 101.31 198.61 101.98Q199.00 102.67 199.22 103.36Q199.46 104.04 199.59 105.02Q199.72 106.00 199.74 106.85Q199.78 107.71 199.78 108.88Q199.78 109.71 199.74 110.40Q199.70 111.06 199.54 111.85Q199.41 112.65 199.20 113.25Q198.98 113.83 198.57 114.40Q198.16 114.96 197.63 115.33Q197.11 115.71 196.35 115.94Q195.59 116.17 194.66 116.17M191.32 107.17L191.32 108.88Q191.32 109.81 191.36 110.48Q191.43 111.15 191.62 111.92Q191.80 112.69 192.14 113.17Q192.49 113.67 193.10 114.00Q193.71 114.31 194.58 114.31L195.03 114.31Q195.64 114.31 196.12 114.08Q196.59 113.83 196.88 113.38Q197.18 112.94 197.37 112.44Q197.57 111.92 197.66 111.27Q197.76 110.60 197.79 110.06Q197.83 109.52 197.83 108.88L197.83 107.92Q197.83 107.27 197.81 106.90Q197.81 106.50 197.79 105.92Q197.76 105.31 197.70 104.98Q197.63 104.63 197.53 104.15Q197.42 103.67 197.24 103.38Q197.07 103.08 196.83 102.77Q196.57 102.46 196.27 102.29Q195.94 102.11 195.51 102.00Q195.10 101.90 194.58 101.90Q194.03 101.90 193.60 102.02Q193.19 102.13 192.86 102.33Q192.54 102.54 192.27 102.86Q192.04 103.15 191.86 103.52Q191.69 103.88 191.58 104.31Q191.47 104.73 191.43 105.21Q191.39 105.67 191.34 106.17Q191.32 106.65 191.32 107.17Z" fill="#000000"/>
<path d="M204.32 104.88Q204.04 104.58 204.04 104.21Q204.04 103.77 204.32 103.56L208.29 100.29Q208.58 100.06 208.92 100.06L209.62 100.06Q210.01 100.06 210.29 100.36Q210.59 100.63 210.59 101.00L210.59 115.17Q210.59 115.54 210.29 115.83Q210.01 116.10 209.62 116.10Q209.23 116.10 208.92 115.83Q208.64 115.56 208.64 115.17L208.64 102.48L205.67 104.92Q205.39 105.15 205.02 105.15Q204.60 105.15 204.32 104.88Z" fill="#000000"/>
<path d="M250.32 36.49Q250.04 36.19 250.04 35.82Q250.04 35.38 250.32 35.17L254.29 31.90Q254.58 31.67 254.92 31.67L255.62 31.67Q256.01 31.67 256.29 31.97Q256.59 32.24 256.59 32.61L256.59 46.78Q256.59 47.15 256.29 47.44Q256.01 47.71 255.62 47.71Q255.23 47.71 254.92 47.44Q254.64 47.17 254.64 46.78L254.64 34.09L251.67 36.53Q251.39 36.76 251.02 36.76Q250.60 36.76 250.32 36.49Z" fill="#000000"/>
<path d="M267.65 33.32Q267.37 33.03 267.37 32.63Q267.37 32.24 267.65 31.97Q267.93 31.69 268.34 31.69L276.81 31.69Q277.22 31.69 277.50 31.99Q277.78 32.26 277.78 32.63Q277.78 34.22 276.50 36.07Q276.11 36.65 274.98 38.01Q273.86 39.38 273.38 40.24Q271.97 42.74 271.97 46.76Q271.97 47.15 271.69 47.44Q271.40 47.71 271.03 47.71Q270.67 47.71 270.38 47.44Q270.10 47.17 270.10 46.76Q270.10 42.21 271.75 39.28Q272.25 38.42 273.38 36.99Q274.53 35.53 274.90 34.99Q275.42 34.15 275.61 33.74L275.66 33.59L268.34 33.59Q267.95 33.59 267.65 33.32Z" fill="#000000"/>
<path d="M53.06 21.27Q53.06 20.98 53.26 20.77Q53.48 20.55 53.78 20.55L55.92 20.55L55.92 12.19L53.78 12.19Q53.48 12.19 53.26 11.97Q53.06 11.75 53.06 11.45Q53.06 11.16 53.26 10.94Q53.48 10.73 53.78 10.73L59.52 10.73Q59.83 10.73 60.04 10.94Q60.26 11.16 60.26 11.45Q60.26 11.75 60.04 11.97Q59.83 12.19 59.52 12.19L57.38 12.19L57.38 20.55L59.52 20.55Q59.83 20.55 60.04 20.77Q60.26 20.98 60.26 21.27Q60.26 21.58 60.04 21.79Q59.83 22.01 59.52 22.01L53.78 22.01Q53.48 22.01 53.26 21.79Q53.06 21.58 53.06 21.27ZM63.06 20.06Q63.06 19.75 63.26 19.54Q63.48 19.32 63.78 19.32Q64.08 19.32 64.30 19.54Q64.52 19.75 64.52 20.06Q64.52 20.26 64.66 20.40Q64.81 20.55 65.01 20.55L68.61 20.55Q68.80 20.55 68.80 20.36L63.39 13.39Q63.06 12.93 63.06 12.38L63.06 12.33Q63.06 11.68 63.53 11.20Q64.03 10.73 64.69 10.73L68.29 10.73Q69.09 10.73 69.67 11.30Q70.26 11.88 70.26 12.68Q70.26 12.98 70.04 13.20Q69.83 13.42 69.52 13.42Q69.22 13.42 69.00 13.20Q68.80 12.98 68.80 12.68Q68.80 12.49 68.64 12.35Q68.50 12.19 68.29 12.19L64.69 12.19Q64.52 12.19 64.52 12.33L64.52 12.38L64.52 12.43L69.90 19.35Q70.26 19.78 70.26 20.36Q70.23 21.04 69.75 21.53Q69.29 22.01 68.61 22.01L65.01 22.01Q64.21 22.01 63.63 21.43Q63.06 20.85 63.06 20.06ZM73.06 20.06Q73.06 19.75 73.26 19.54Q73.48 19.32 73.78 19.32Q74.08 19.32 74.30 19.54Q74.52 19.75 74.52 20.06Q74.52 20.26 74.66 20.40Q74.81 20.55 75.01 20.55L78.61 20.55Q78.80 20.55 78.80 20.36L73.39 13.39Q73.06 12.93 73.06 12.38L73.06 12.33Q73.06 11.68 73.53 11.20Q74.03 10.73 74.69 10.73L78.29 10.73Q79.09 10.73 79.67 11.30Q80.26 11.88 80.26 12.68Q80.26 12.98 80.04 13.20Q79.83 13.42 79.52 13.42Q79.22 13.42 79.00 13.20Q78.80 12.98 78.80 12.68Q78.80 12.49 78.64 12.35Q78.50 12.19 78.29 12.19L74.69 12.19Q74.52 12.19 74.52 12.33L74.52 12.38L74.52 12.43L79.90 19.35Q80.26 19.78 80.26 20.36Q80.23 21.04 79.75 21.53Q79.29 22.01 78.61 22.01L75.01 22.01Q74.21 22.01 73.63 21.43Q73.06 20.85 73.06 20.06ZM83.06 21.27L83.06 10.73L84.98 10.73L88.80 19.43L88.80 11.45Q88.80 11.16 89.00 10.94Q89.22 10.73 89.52 10.73Q89.83 10.73 90.04 10.94Q90.26 11.16 90.26 11.45L90.26 22.01L88.32 22.01L84.52 13.33L84.52 21.27Q84.52 21.58 84.30 21.79Q84.08 22.01 83.78 22.01Q83.48 22.01 83.26 21.79Q83.06 21.58 83.06 21.27ZM103.06 20.55L103.06 12.19Q103.06 11.59 103.49 11.16Q103.92 10.73 104.52 10.73L108.80 10.73Q109.38 10.73 109.81 11.16Q110.26 11.59 110.26 12.19L110.26 20.55Q110.26 21.14 109.81 21.58Q109.38 22.01 108.80 22.01L104.52 22.01Q103.92 22.01 103.49 21.58Q103.06 21.14 103.06 20.55M104.52 20.55L108.80 20.55L108.80 12.19L104.52 12.19L104.52 20.55ZM113.06 21.27Q113.06 20.98 113.26 20.77Q113.48 20.55 113.78 20.55L118.80 20.55L118.80 17.83Q118.80 17.54 118.57 17.32Q118.35 17.09 118.06 17.09L115.21 17.09Q114.91 17.09 114.69 16.89Q114.49 16.67 114.49 16.37Q114.49 16.06 114.69 15.85Q114.91 15.63 115.21 15.63L118.06 15.63Q118.37 15.63 118.58 15.41Q118.80 15.20 118.80 14.91L118.80 12.19L113.78 12.19Q113.48 12.19 113.26 11.97Q113.06 11.75 113.06 11.45Q113.06 11.16 113.26 10.94Q113.48 10.73 113.78 10.73L118.80 10.73Q119.38 10.73 119.81 11.16Q120.26 11.59 120.26 12.19L120.26 14.91Q120.26 15.75 119.68 16.37Q120.26 16.99 120.26 17.83L120.26 20.55Q120.26 21.14 119.81 21.58Q119.38 22.01 118.80 22.01L113.78 22.01Q113.48 22.01 113.26 21.79Q113.06 21.58 113.06 21.27ZM123.06 21.27Q123.06 20.98 123.26 20.77Q123.48 20.55 123.78 20.55L125.92 20.55L125.92 12.19L123.78 12.19Q123.48 12.19 123.26 11.97Q123.06 11.75 123.06 11.45Q123.06 11.16 123.26 10.94Q123.48 10.73 123.78 10.73L127.38 10.73L127.38 20.55L128.80 20.55L128.80 17.60Q128.80 17.29 129.00 17.08Q129.22 16.86 129.52 16.86Q129.83 16.86 130.04 17.08Q130.26 17.29 130.26 17.60L130.26 21.27Q130.26 21.58 130.04 21.79Q129.83 22.01 129.52 22.01L123.78 22.01Q123.48 22.01 123.26 21.79Q123.06 21.58 123.06 21.27ZM133.06 21.27Q133.06 20.98 133.26 20.77Q133.48 20.55 133.78 20.55L135.92 20.55L135.92 12.19L133.78 12.19Q133.48 12.19 133.26 11.97Q133.06 11.75 133.06 11.45Q133.06 11.16 133.26 10.94Q133.48 10.73 133.78 10.73L137.38 10.73L137.38 20.55L138.80 20.55L138.80 17.60Q138.80 17.29 139.00 17.08Q139.22 16.86 139.52 16.86Q139.83 16.86 140.04 17.08Q140.26 17.29 140.26 17.60L140.26 21.27Q140.26 21.58 140.04 21.79Q139.83 22.01 139.52 22.01L133.78 22.01Q133.48 22.01 133.26 21.79Q133.06 21.58 133.06 21.27ZM143.06 16.98L143.06 16.37Q143.06 16.06 143.26 15.85Q143.48 15.63 143.78 15.63L149.52 15.63Q149.83 15.63 150.04 15.85Q150.26 16.06 150.26 16.37L150.26 16.98Q150.26 17.28 150.04 17.50Q149.83 17.71 149.52 17.71L143.78 17.71Q143.48 17.71 143.26 17.50Q143.06 17.28 143.06 16.98ZM153.06 21.27Q153.06 20.98 153.26 20.77Q153.48 20.55 153.78 20.55L155.92 20.55L155.92 12.19L153.78 12.19Q153.48 12.19 153.26 11.97Q153.06 11.75 153.06 11.45Q153.06 11.16 153.26 10.94Q153.48 10.73 153.78 10.73L157.38 10.73L157.38 20.55L158.80 20.55L158.80 17.60Q158.80 17.29 159.00 17.08Q159.22 16.86 159.52 16.86Q159.83 16.86 160.04 17.08Q160.26 17.29 160.26 17.60L160.26 21.27Q160.26 21.58 160.04 21.79Q159.83 22.01 159.52 22.01L153.78 22.01Q153.48 22.01 153.26 21.79Q153.06 21.58 153.06 21.27ZM163.06 12.07L163.06 11.45Q163.06 11.16 163.26 10.94Q163.48 10.73 163.78 10.73L170.26 10.73L170.26 15.14Q170.26 15.47 170 15.70L167.38 17.93L167.38 21.27Q167.38 21.58 167.16 21.79Q166.95 22.01 166.66 22.01Q166.35 22.01 166.14 21.79Q165.92 21.58 165.92 21.27L165.92 17.60Q165.92 17.26 166.18 17.03L168.80 14.81L168.80 12.19L164.50 12.19Q164.46 12.45 164.26 12.62Q164.05 12.79 163.78 12.79Q163.48 12.79 163.26 12.59Q163.06 12.38 163.06 12.07ZM173.06 20.66Q173.06 20.36 173.26 20.16Q173.48 19.94 173.78 19.94Q173.95 19.94 174.07 20.00L175.37 20.55L178.80 20.55L178.80 17.09L174.49 17.09L174.49 10.73L179.52 10.73Q179.83 10.73 180.04 10.94Q180.26 11.16 180.26 11.45Q180.26 11.75 180.04 11.97Q179.83 12.19 179.52 12.19L175.95 12.19L175.95 15.63L178.80 15.63Q179.38 15.63 179.81 16.08Q180.26 16.51 180.26 17.09L180.26 20.55Q180.26 21.14 179.81 21.58Q179.38 22.01 178.80 22.01L175.52 22.01Q175.23 22.01 174.92 21.94Q174.63 21.87 174.44 21.79Q174.26 21.71 173.94 21.56Q173.62 21.40 173.49 21.34Q173.06 21.16 173.06 20.66ZM183.06 21.27Q183.06 21.08 183.14 20.91L185.80 16.37L183.14 11.83Q183.06 11.65 183.06 11.45Q183.06 11.16 183.26 10.94Q183.48 10.73 183.78 10.73Q184.20 10.73 184.42 11.09L186.66 14.91L188.89 11.09Q189.10 10.73 189.52 10.73Q189.83 10.73 190.04 10.94Q190.26 11.16 190.26 11.45Q190.26 11.62 190.16 11.83L187.50 16.37L190.16 20.91Q190.26 21.11 190.26 21.27Q190.26 21.58 190.04 21.79Q189.83 22.01 189.52 22.01Q189.10 22.01 188.89 21.65L186.66 17.83L184.42 21.65Q184.20 22.01 183.78 22.01Q183.48 22.01 183.26 21.79Q183.06 21.58 183.06 21.27Z" fill="#000000"/>
</svg>