<svg xmlns="http://www.w3.org/2000/svg" viewBox="0 0 324 117" width="260" height="80">
<rect width="100%" height="100%" fill="#ffffff"/>
<path stroke="#000000" stroke-width="3" d="M33.50 91L33.50 10M50.50 91L50.50 10M55.50 91L55.50 10M72.50 91L72.50 10M77.50 91L77.50 10M115.50 91L115.50 10M140.50 91L140.50 10M146.50 91L146.50 10M181.50 91L181.50 10M198.50 91L198.50 10M203.50 91L203.50 10M258.50 91L258.50 10M266.50 91L266.50 10M274.50 91L274.50 10M291.50 91L291.50 10"/>
<path stroke="#000000" stroke-width="8" d="M88 91L88 10M165 91L165 10M282 91L282 10"/>
<path stroke="#000000" stroke-width="11" d="M125.50 91L125.50 10M213.50 91L213.50 10"/>
<path stroke="#000000" stroke-width="6" d="M152 91L152 10M188 91L188 10M240 91L240 10"/>
<path d="M15.63 99.56L15.63 99.46Q15.71 95.29 20.71 92.81Q20.98 92.67 21.32 92.67Q21.76 92.67 22.08 92.89Q22.42 93.12 22.42 93.45Q22.42 93.85 21.93 94.09Q20.03 94.98 18.95 96.26Q17.86 97.56 17.83 99.46L17.83 99.54Q17.83 102.84 21.93 104.70Q22.42 104.94 22.42 105.36Q22.42 105.69 22.08 105.91Q21.76 106.14 21.32 106.14Q20.98 106.14 20.71 106.02Q15.63 103.59 15.63 99.56ZM34.98 106.14L34.88 106.14Q33.44 106.12 32.37 105.79Q31.29 105.48 30.66 104.98Q30.02 104.45 29.66 103.64Q29.27 102.82 29.14 101.99Q29.02 101.17 29.02 100.06Q29.02 99.07 29.05 98.38Q29.09 97.67 29.24 96.85Q29.39 96.02 29.63 95.46Q29.90 94.89 30.34 94.32Q30.78 93.76 31.39 93.43Q32.00 93.10 32.88 92.89Q33.76 92.68 34.88 92.68Q35.98 92.68 36.86 92.89Q37.74 93.10 38.35 93.43Q38.96 93.76 39.42 94.32Q39.86 94.89 40.10 95.46Q40.37 96.04 40.52 96.85Q40.67 97.67 40.69 98.38Q40.74 99.09 40.74 100.06Q40.74 100.76 40.69 101.33Q40.64 101.89 40.47 102.55Q40.32 103.21 40.08 103.71Q39.84 104.19 39.37 104.66Q38.91 105.13 38.32 105.44Q37.74 105.76 36.88 105.95Q36.03 106.14 34.98 106.14M31.22 98.64L31.22 100.06Q31.22 100.84 31.27 101.40Q31.34 101.96 31.56 102.60Q31.76 103.24 32.15 103.64Q32.54 104.06 33.22 104.33Q33.90 104.59 34.88 104.59L35.39 104.59Q36.08 104.59 36.61 104.40Q37.15 104.19 37.47 103.81Q37.81 103.45 38.03 103.03Q38.25 102.60 38.35 102.06Q38.47 101.50 38.49 101.05Q38.54 100.60 38.54 100.06L38.54 99.26Q38.54 98.73 38.52 98.41Q38.52 98.08 38.49 97.60Q38.47 97.09 38.40 96.82Q38.32 96.52 38.20 96.12Q38.08 95.72 37.88 95.48Q37.69 95.24 37.42 94.98Q37.13 94.72 36.78 94.58Q36.42 94.42 35.93 94.33Q35.47 94.25 34.88 94.25Q34.27 94.25 33.78 94.35Q33.32 94.44 32.95 94.61Q32.59 94.79 32.29 95.05Q32.02 95.29 31.83 95.60Q31.63 95.90 31.51 96.26Q31.39 96.61 31.34 97.01Q31.29 97.39 31.24 97.81Q31.22 98.21 31.22 98.64ZM47.10 96.73Q46.78 96.49 46.78 96.17Q46.78 95.81 47.10 95.64L51.56 92.91Q51.88 92.72 52.27 92.72L53.05 92.72Q53.49 92.72 53.81 92.96Q54.15 93.19 54.15 93.50L54.15 105.31Q54.15 105.62 53.81 105.86Q53.49 106.09 53.05 106.09Q52.61 106.09 52.27 105.86Q51.95 105.64 51.95 105.31L51.95 94.73L48.61 96.76Q48.29 96.96 47.88 96.96Q47.41 96.96 47.10 96.73ZM64.80 105.36Q64.80 104.94 65.29 104.70Q69.42 102.79 69.42 99.46Q69.42 96.09 65.29 94.09L65.27 94.07Q65.10 94.04 64.95 93.83Q64.80 93.62 64.80 93.45Q64.80 93.14 65.12 92.91Q65.46 92.67 65.90 92.67Q66.24 92.67 66.51 92.81Q71.61 95.31 71.61 99.46Q71.61 103.55 66.51 106.02Q66.24 106.14 65.90 106.14Q65.46 106.14 65.12 105.91Q64.80 105.67 64.80 105.36ZM85.98 106.14L85.88 106.14Q84.44 106.12 83.37 105.79Q82.29 105.48 81.66 104.98Q81.02 104.45 80.66 103.64Q80.27 102.82 80.14 101.99Q80.02 101.17 80.02 100.06Q80.02 99.07 80.05 98.38Q80.09 97.67 80.24 96.85Q80.39 96.02 80.63 95.46Q80.90 94.89 81.34 94.32Q81.78 93.76 82.39 93.43Q83.00 93.10 83.88 92.89Q84.76 92.68 85.88 92.68Q86.98 92.68 87.86 92.89Q88.74 93.10 89.35 93.43Q89.96 93.76 90.42 94.32Q90.86 94.89 91.10 95.46Q91.37 96.04 91.52 96.85Q91.67 97.67 91.69 98.38Q91.74 99.09 91.74 100.06Q91.74 100.76 91.69 101.33Q91.64 101.89 91.47 102.55Q91.32 103.21 91.08 103.71Q90.84 104.19 90.37 104.66Q89.91 105.13 89.32 105.44Q88.74 105.76 87.88 105.95Q87.03 106.14 85.98 106.14M82.22 98.64L82.22 100.06Q82.22 100.84 82.27 101.40Q82.34 101.96 82.56 102.60Q82.76 103.24 83.15 103.64Q83.54 104.06 84.22 104.33Q84.90 104.59 85.88 104.59L86.39 104.59Q87.08 104.59 87.61 104.40Q88.15 104.19 88.47 103.81Q88.81 103.45 89.03 103.03Q89.25 102.60 89.35 102.06Q89.47 101.50 89.49 101.05Q89.54 100.60 89.54 100.06L89.54 99.26Q89.54 98.73 89.52 98.41Q89.52 98.08 89.49 97.60Q89.47 97.09 89.40 96.82Q89.32 96.52 89.20 96.12Q89.08 95.72 88.88 95.48Q88.69 95.24 88.42 94.98Q88.13 94.72 87.78 94.58Q87.42 94.42 86.93 94.33Q86.47 94.25 85.88 94.25Q85.27 94.25 84.78 94.35Q84.32 94.44 83.95 94.61Q83.59 94.79 83.29 95.05Q83.02 95.29 82.83 95.60Q82.63 95.90 82.51 96.26Q82.39 96.61 82.34 97.01Q82.29 97.39 82.24 97.81Q82.22 98.21 82.22 98.64ZM100.29 95.08Q99.22 95.91 99.22 97.08Q99.22 98.21 100.24 98.92Q101.22 99.61 102.88 99.61Q105.79 99.61 106.30 98.34Q106.54 97.77 106.54 97.08Q106.54 95.78 105.52 95.01Q104.52 94.23 102.88 94.23Q101.34 94.23 100.29 95.08M98.68 99.99Q97.02 98.83 97.02 97.08Q97.02 95.27 98.78 93.97Q100.49 92.67 102.88 92.67Q105.35 92.67 107.03 93.88Q108.74 95.10 108.74 97.08Q108.74 98.31 108.23 99.30Q107.71 100.29 106.79 101.43Q104.76 103.95 101.83 105.88Q101.51 106.09 101.15 106.09Q100.73 106.09 100.42 105.86Q100.10 105.64 100.10 105.31Q100.10 104.98 100.44 104.73Q102.76 103.15 104.42 101.24L104.54 101.07L104.30 101.10Q103.66 101.17 102.88 101.17Q100.29 101.17 98.68 99.99ZM114.97 105.91Q114.66 105.69 114.66 105.36Q114.66 105.01 114.97 104.78Q115.32 104.56 115.75 104.56Q120.69 104.56 122.13 102.60Q122.57 102.01 122.57 101.47Q122.57 100.20 121.74 99.56Q120.64 98.64 117.88 98.64Q117.12 98.64 116.34 98.69L116.24 98.69Q115.80 98.69 115.46 98.48Q115.14 98.26 115.14 97.95L115.14 97.89L115.49 93.47Q115.54 93.15 115.83 92.95Q116.15 92.74 116.59 92.74L123.52 92.74Q123.98 92.74 124.30 92.98Q124.62 93.21 124.62 93.52Q124.62 93.83 124.27 94.07Q123.96 94.32 123.52 94.32L117.61 94.32L117.42 97.04L117.88 97.04Q120.98 97.04 122.86 98.17Q124.76 99.28 124.76 101.47Q124.76 102.39 124.20 103.19Q123.62 104.00 122.74 104.58Q120.39 106.14 115.75 106.14Q115.32 106.14 114.97 105.91M116.32 98.69Q116.32 98.69 116.34 98.69Q116.34 98.69 116.32 98.69ZM131.75 94.91Q131.44 94.66 131.44 94.37Q131.44 93.93 131.90 93.71Q134.12 92.67 136.88 92.67Q139.10 92.67 140.59 93.67Q142.10 94.66 142.10 96.28Q142.10 96.92 141.79 97.51Q141.47 98.12 141.06 98.50Q140.66 98.88 139.88 99.35Q139.10 99.82 138.69 100.03Q138.30 100.24 137.44 100.64Q136.51 101.07 136.10 101.30Q135.68 101.52 135.10 101.97Q134.51 102.41 134.24 102.96Q133.98 103.50 133.93 104.25L133.93 104.33L141.15 104.33Q141.62 104.33 141.93 104.58Q142.25 104.80 142.25 105.11Q142.25 105.43 141.91 105.67Q141.59 105.90 141.15 105.90L132.80 105.90Q132.36 105.90 132.02 105.67Q131.71 105.43 131.71 105.11L131.71 104.75Q131.71 103.40 131.95 102.81Q132.36 101.76 133.51 100.95Q134.66 100.12 136.32 99.32Q138.61 98.22 139.22 97.60Q139.91 96.97 139.91 96.28Q139.91 95.36 139.00 94.79Q138.15 94.23 136.88 94.23Q134.68 94.23 133.17 94.99Q132.90 95.13 132.54 95.13Q132.10 95.13 131.75 94.91ZM149.10 96.73Q148.78 96.49 148.78 96.17Q148.78 95.81 149.10 95.64L153.56 92.91Q153.88 92.72 154.27 92.72L155.05 92.72Q155.49 92.72 155.81 92.96Q156.15 93.19 156.15 93.50L156.15 105.31Q156.15 105.62 155.81 105.86Q155.49 106.09 155.05 106.09Q154.61 106.09 154.27 105.86Q153.95 105.64 153.95 105.31L153.95 94.73L150.61 96.76Q150.29 96.96 149.88 96.96Q149.41 96.96 149.10 96.73ZM165.75 94.91Q165.44 94.66 165.44 94.37Q165.44 93.93 165.90 93.71Q168.12 92.67 170.88 92.67Q173.10 92.67 174.59 93.67Q176.10 94.66 176.10 96.28Q176.10 96.92 175.79 97.51Q175.47 98.12 175.06 98.50Q174.66 98.88 173.88 99.35Q173.10 99.82 172.69 100.03Q172.30 100.24 171.44 100.64Q170.51 101.07 170.10 101.30Q169.68 101.52 169.10 101.97Q168.51 102.41 168.24 102.96Q167.98 103.50 167.93 104.25L167.93 104.33L175.15 104.33Q175.62 104.33 175.93 104.58Q176.25 104.80 176.25 105.11Q176.25 105.43 175.91 105.67Q175.59 105.90 175.15 105.90L166.80 105.90Q166.36 105.90 166.02 105.67Q165.71 105.43 165.71 105.11L165.71 104.75Q165.71 103.40 165.95 102.81Q166.36 101.76 167.51 100.95Q168.66 100.12 170.32 99.32Q172.61 98.22 173.22 97.60Q173.91 96.97 173.91 96.28Q173.91 95.36 173.00 94.79Q172.15 94.23 170.88 94.23Q168.68 94.23 167.17 94.99Q166.90 95.13 166.54 95.13Q166.10 95.13 165.75 94.91ZM182.53 105.48Q182.02 105.20 182.02 104.78Q182.02 104.45 182.34 104.23Q182.68 103.99 183.12 103.99Q183.27 103.99 183.54 104.06Q185.10 104.56 186.81 104.56Q188.66 104.56 189.93 103.90Q191.23 103.22 191.32 101.94L191.32 101.76Q191.32 100.88 190.54 100.25Q189.81 99.65 188.74 99.39Q187.69 99.14 186.39 99.14Q185.98 99.14 185.66 98.92Q185.34 98.67 185.34 98.34Q185.34 98.03 185.56 97.86L190.05 94.32L183.19 94.32Q182.75 94.32 182.41 94.09Q182.09 93.85 182.09 93.52Q182.09 93.19 182.41 92.96Q182.73 92.74 183.19 92.74L191.81 92.74Q192.25 92.74 192.57 92.98Q192.91 93.21 192.91 93.52L192.91 94.14Q192.91 94.42 192.57 94.66L188.64 97.74L188.83 97.77Q190.91 98.15 192.23 99.18Q193.52 100.20 193.52 101.75L193.52 102.02Q193.40 103.92 191.44 105.03Q189.54 106.14 186.81 106.14Q186.12 106.14 185.44 106.09Q184.76 106.03 183.90 105.91Q183.05 105.77 182.53 105.48ZM199.34 102.84Q199.02 102.61 199.02 102.28L199.02 101.54Q199.02 101.40 199.14 101.21L204.34 93.17Q204.44 92.98 204.71 92.86Q204.98 92.72 205.27 92.72Q205.71 92.72 206.03 92.96Q206.35 93.19 206.35 93.50Q206.35 93.67 206.22 93.83L201.34 101.50L206.10 101.50L206.10 99.40Q206.10 99.09 206.42 98.87Q206.74 98.62 207.15 98.62Q207.57 98.62 207.88 98.87Q208.23 99.09 208.23 99.40L208.23 101.50L209.64 101.50Q210.10 101.50 210.42 101.75Q210.74 101.97 210.74 102.28Q210.74 102.60 210.40 102.84Q210.08 103.07 209.64 103.07L208.23 103.07L208.23 105.31Q208.23 105.62 207.88 105.84Q207.57 106.09 207.15 106.09Q206.74 106.09 206.42 105.86Q206.10 105.62 206.10 105.31L206.10 103.07L200.12 103.07Q199.68 103.07 199.34 102.84ZM216.97 105.91Q216.66 105.69 216.66 105.36Q216.66 105.01 216.97 104.78Q217.32 104.56 217.75 104.56Q222.69 104.56 224.13 102.60Q224.57 102.01 224.57 101.47Q224.57 100.20 223.74 99.56Q222.64 98.64 219.88 98.64Q219.12 98.64 218.34 98.69L218.24 98.69Q217.80 98.69 217.46 98.48Q217.14 98.26 217.14 97.95L217.14 97.89L217.49 93.47Q217.54 93.15 217.83 92.95Q218.15 92.74 218.59 92.74L225.52 92.74Q225.98 92.74 226.30 92.98Q226.62 93.21 226.62 93.52Q226.62 93.83 226.27 94.07Q225.96 94.32 225.52 94.32L219.61 94.32L219.42 97.04L219.88 97.04Q222.98 97.04 224.86 98.17Q226.76 99.28 226.76 101.47Q226.76 102.39 226.20 103.19Q225.62 104.00 224.74 104.58Q222.39 106.14 217.75 106.14Q217.32 106.14 216.97 105.91M218.32 98.69Q218.32 98.69 218.34 98.69Q218.34 98.69 218.32 98.69ZM233.34 102.84Q233.02 102.61 233.02 102.28L233.02 101.54Q233.02 101.40 233.14 101.21L238.34 93.17Q238.44 92.98 238.71 92.86Q238.98 92.72 239.27 92.72Q239.71 92.72 240.03 92.96Q240.35 93.19 240.35 93.50Q240.35 93.67 240.22 93.83L235.34 101.50L240.10 101.50L240.10 99.40Q240.10 99.09 240.42 98.87Q240.74 98.62 241.15 98.62Q241.57 98.62 241.88 98.87Q242.23 99.09 242.23 99.40L242.23 101.50L243.64 101.50Q244.10 101.50 244.42 101.75Q244.74 101.97 244.74 102.28Q244.74 102.60 244.40 102.84Q244.08 103.07 243.64 103.07L242.23 103.07L242.23 105.31Q242.23 105.62 241.88 105.84Q241.57 106.09 241.15 106.09Q240.74 106.09 240.42 105.86Q240.10 105.62 240.10 105.31L240.10 103.07L234.12 103.07Q233.68 103.07 233.34 102.84ZM250.53 105.48Q250.02 105.20 250.02 104.78Q250.02 104.45 250.34 104.23Q250.68 103.99 251.12 103.99Q251.27 103.99 251.54 104.06Q253.10 104.56 254.81 104.56Q256.66 104.56 257.93 103.90Q259.23 103.22 259.32 101.94L259.32 101.76Q259.32 100.88 258.54 100.25Q257.81 99.65 256.74 99.39Q255.69 99.14 254.39 99.14Q253.98 99.14 253.66 98.92Q253.34 98.67 253.34 98.34Q253.34 98.03 253.56 97.86L258.05 94.32L251.19 94.32Q250.75 94.32 250.41 94.09Q250.09 93.85 250.09 93.52Q250.09 93.19 250.41 92.96Q250.73 92.74 251.19 92.74L259.81 92.74Q260.25 92.74 260.57 92.98Q260.91 93.21 260.91 93.52L260.91 94.14Q260.91 94.42 260.57 94.66L256.64 97.74L256.83 97.77Q258.91 98.15 260.23 99.18Q261.52 100.20 261.52 101.75L261.52 102.02Q261.40 103.92 259.44 105.03Q257.54 106.14 254.81 106.14Q254.12 106.14 253.44 106.09Q252.76 106.03 251.90 105.91Q251.05 105.77 250.53 105.48ZM267.75 94.91Q267.44 94.66 267.44 94.37Q267.44 93.93 267.90 93.71Q270.12 92.67 272.88 92.67Q275.10 92.67 276.59 93.67Q278.10 94.66 278.10 96.28Q278.10 96.92 277.79 97.51Q277.47 98.12 277.06 98.50Q276.66 98.88 275.88 99.35Q275.10 99.82 274.69 100.03Q274.30 100.24 273.44 100.64Q272.51 101.07 272.10 101.30Q271.68 101.52 271.10 101.97Q270.51 102.41 270.24 102.96Q269.98 103.50 269.93 104.25L269.93 104.33L277.15 104.33Q277.62 104.33 277.93 104.58Q278.25 104.80 278.25 105.11Q278.25 105.43 277.91 105.67Q277.59 105.90 277.15 105.90L268.80 105.90Q268.36 105.90 268.02 105.67Q267.71 105.43 267.71 105.11L267.71 104.75Q267.71 103.40 267.95 102.81Q268.36 101.76 269.51 100.95Q270.66 100.12 272.32 99.32Q274.61 98.22 275.22 97.60Q275.91 96.97 275.91 96.28Q275.91 95.36 275.00 94.79Q274.15 94.23 272.88 94.23Q270.68 94.23 269.17 94.99Q268.90 95.13 268.54 95.13Q268.10 95.13 267.75 94.91ZM285.10 96.73Q284.78 96.49 284.78 96.17Q284.78 95.81 285.10 95.64L289.56 92.91Q289.88 92.72 290.27 92.72L291.05 92.72Q291.49 92.72 291.81 92.96Q292.15 93.19 292.15 93.50L292.15 105.31Q292.15 105.62 291.81 105.86Q291.49 106.09 291.05 106.09Q290.61 106.09 290.27 105.86Q289.95 105.64 289.95 105.31L289.95 94.73L286.61 96.76Q286.29 96.96 285.88 96.96Q285.41 96.96 285.10 96.73ZM301.53 105.48Q301.02 105.20 301.02 104.78Q301.02 104.45 301.34 104.23Q301.68 103.99 302.12 103.99Q302.27 103.99 302.54 104.06Q304.10 104.56 305.81 104.56Q307.66 104.56 308.93 103.90Q310.23 103.22 310.32 101.94L310.32 101.76Q310.32 100.88 309.54 100.25Q308.81 99.65 307.74 99.39Q306.69 99.14 305.39 99.14Q304.98 99.14 304.66 98.92Q304.34 98.67 304.34 98.34Q304.34 98.03 304.56 97.86L309.05 94.32L302.19 94.32Q301.75 94.32 301.41 94.09Q301.09 93.85 301.09 93.52Q301.09 93.19 301.41 92.96Q301.73 92.74 302.19 92.74L310.81 92.74Q311.25 92.74 311.57 92.98Q311.91 93.21 311.91 93.52L311.91 94.14Q311.91 94.42 311.57 94.66L307.64 97.74L307.83 97.77Q309.91 98.15 311.23 99.18Q312.52 100.20 312.52 101.75L312.52 102.02Q312.40 103.92 310.44 105.03Q308.54 106.14 305.81 106.14Q305.12 106.14 304.44 106.09Q303.76 106.03 302.90 105.91Q302.05 105.77 301.53 105.48Z" fill="#000000"/>
</svg>