<svg xmlns="http://www.w3.org/2000/svg" viewBox="0 0 280 280" width="260" height="260">
<rect width="100%" height="100%" fill="#ffffff"/>
<path d="M10 10L24 10L24 53L53 53L53 24L68 24L68 10L82 10L82 53L68 53L68 68L53 68L53 82L39 82L39 97L24 97L24 154L39 154L39 169L53 169L53 154L97 154L97 169L126 169L126 154L140 154L140 183L154 183L154 198L169 198L169 183L183 183L183 212L154 212L154 241L169 241L169 256L183 256L183 241L169 241L169 227L183 227L183 212L198 212L198 256L270 256L270 270L10 270ZM39 10L53 10L53 24L39 24ZM97 10L111 10L111 24L97 24ZM126 10L140 10L140 24L154 24L154 39L126 39ZM154 10L169 10L169 24L154 24ZM183 10L198 10L198 24L212 24L212 10L227 10L227 39L241 39L241 10L256 10L256 24L270 24L270 39L256 39L256 53L270 53L270 68L241 68L241 82L270 82L270 97L256 97L256 111L227 111L227 97L212 97L212 82L198 82L198 111L183 111L183 82L169 82L169 68L154 68L154 82L140 82L140 53L154 53L154 39L169 39L169 53L183 53ZM97 39L126 39L126 53L97 53ZM198 53L198 68L227 68L227 53ZM68 68L82 68L82 97L68 97ZM97 82L140 82L140 97L154 97L154 111L169 111L169 126L154 126L154 140L126 140L126 154L111 154L111 140L97 140L97 126L126 126L126 97L111 97L111 111L97 111L97 126L82 126L82 140L68 140L68 126L53 126L53 111L39 111L39 97L68 97L68 111L82 111L82 97L97 97ZM154 82L169 82L169 97L154 97ZM198 111L227 111L227 126L198 126ZM256 111L270 111L270 126L256 126ZM169 126L183 126L183 154L169 154L169 183L154 183L154 140L169 140ZM227 126L256 126L256 140L227 140ZM198 140L227 140L227 154L212 154L212 198L198 198ZM256 140L270 140L270 154L256 154ZM241 154L256 154L256 169L241 169ZM256 169L270 169L270 183L256 183ZM39 183L39 212L24 212L24 256L39 256L39 241L53 241L53 227L68 227L68 241L82 241L82 256L97 256L97 241L111 241L111 256L140 256L140 241L126 241L126 212L140 212L140 198L126 198L126 183ZM82 198L126 198L126 212L111 212L111 227L97 227L97 212L82 212ZM227 198L241 198L241 212L227 212ZM256 198L270 198L270 212L256 212ZM39 212L53 212L53 227L39 227ZM212 212L227 212L227 227L212 227ZM241 212L256 212L256 227L241 227ZM82 227L97 227L97 241L82 241ZM256 227L270 227L270 241L256 241Z" fill="#000000" fill-rule="evenodd"/>
</svg>