<svg xmlns="http://www.w3.org/2000/svg" viewBox="0 0 239 127" width="260" height="80">
<rect width="100%" height="100%" fill="#ffffff"/>
<path stroke="#000000" stroke-width="2" d="M35 109L35 28M39 109L39 28M59 98L59 28M71 98L71 28M87 98L87 28M105 98L105 28M109 98L109 28M123 98L123 28M127 109L127 28M131 109L131 28M135 98L135 28M149 98L149 28M159 98L159 28M205 98L205 28M215 98L215 28M219 109L219 28M223 109L223 28"/>
<path stroke="#000000" stroke-width="6" d="M45 98L45 28M65 98L65 28M79 98L79 28M143 98L143 28"/>
<path stroke="#000000" stroke-width="4" d="M52 98L52 28M94 98L94 28M118 98L118 28M164 98L164 28M170 98L170 28M178 98L178 28M186 98L186 28M192 98L192 28M200 98L200 28"/>
<path d="M16.27 102.90Q15.32 103.90 15.32 105.29Q15.32 106.65 16.23 107.50Q17.10 108.33 18.58 108.33Q21.16 108.33 21.61 106.81Q21.83 106.13 21.83 105.29Q21.83 103.73 20.92 102.81Q20.03 101.88 18.58 101.88Q17.21 101.88 16.27 102.90M14.84 108.79Q13.37 107.40 13.37 105.29Q13.37 103.13 14.93 101.56Q16.45 100.00 18.58 100.00Q20.77 100.00 22.26 101.46Q23.78 102.92 23.78 105.29Q23.78 106.77 23.33 107.96Q22.87 109.15 22.05 110.52Q20.25 113.54 17.64 115.85Q17.36 116.10 17.03 116.10Q16.67 116.10 16.38 115.83Q16.10 115.56 16.10 115.17Q16.10 114.77 16.41 114.48Q18.47 112.58 19.94 110.29L20.05 110.08L19.83 110.13Q19.27 110.21 18.58 110.21Q16.27 110.21 14.84 108.79Z" fill="#000000"/>
<path d="M43.65 101.71Q43.37 101.42 43.37 101.02Q43.37 100.63 43.65 100.36Q43.93 100.08 44.34 100.08L52.81 100.08Q53.22 100.08 53.50 100.38Q53.78 100.65 53.78 101.02Q53.78 102.61 52.50 104.46Q52.11 105.04 50.98 106.40Q49.86 107.77 49.38 108.63Q47.97 111.13 47.97 115.15Q47.97 115.54 47.69 115.83Q47.40 116.10 47.03 116.10Q46.67 116.10 46.38 115.83Q46.10 115.56 46.10 115.15Q46.10 110.60 47.75 107.67Q48.25 106.81 49.38 105.38Q50.53 103.92 50.90 103.38Q51.42 102.54 51.61 102.13L51.66 101.98L44.34 101.98Q43.95 101.98 43.65 101.71Z" fill="#000000"/>
<path d="M60.27 102.90Q59.32 103.90 59.32 105.29Q59.32 106.65 60.23 107.50Q61.10 108.33 62.58 108.33Q65.16 108.33 65.61 106.81Q65.83 106.13 65.83 105.29Q65.83 103.73 64.92 102.81Q64.03 101.88 62.58 101.88Q61.21 101.88 60.27 102.90M58.84 108.79Q57.37 107.40 57.37 105.29Q57.37 103.13 58.93 101.56Q60.45 100.00 62.58 100.00Q64.77 100.00 66.26 101.46Q67.78 102.92 67.78 105.29Q67.78 106.77 67.33 107.96Q66.87 109.15 66.05 110.52Q64.25 113.54 61.64 115.85Q61.36 116.10 61.03 116.10Q60.67 116.10 60.38 115.83Q60.10 115.56 60.10 115.17Q60.10 114.77 60.41 114.48Q62.47 112.58 63.94 110.29L64.05 110.08L63.83 110.13Q63.27 110.21 62.58 110.21Q60.27 110.21 58.84 108.79Z" fill="#000000"/>
<path d="M76.66 116.17L76.58 116.17Q75.29 116.15 74.34 115.75Q73.39 115.38 72.82 114.77Q72.26 114.15 71.93 113.17Q71.58 112.19 71.48 111.19Q71.37 110.21 71.37 108.88Q71.37 107.69 71.39 106.85Q71.43 106.00 71.56 105.02Q71.69 104.02 71.91 103.36Q72.15 102.67 72.54 101.98Q72.93 101.31 73.47 100.92Q74.01 100.52 74.80 100.27Q75.58 100.02 76.58 100.02Q77.55 100.02 78.33 100.27Q79.11 100.52 79.66 100.92Q80.20 101.31 80.61 101.98Q81.00 102.67 81.22 103.36Q81.46 104.04 81.59 105.02Q81.72 106.00 81.74 106.85Q81.78 107.71 81.78 108.88Q81.78 109.71 81.74 110.40Q81.70 111.06 81.54 111.85Q81.41 112.65 81.20 113.25Q80.98 113.83 80.57 114.40Q80.16 114.96 79.63 115.33Q79.11 115.71 78.35 115.94Q77.59 116.17 76.66 116.17M73.32 107.17L73.32 108.88Q73.32 109.81 73.36 110.48Q73.43 111.15 73.62 111.92Q73.80 112.69 74.14 113.17Q74.49 113.67 75.10 114.00Q75.71 114.31 76.58 114.31L77.03 114.31Q77.64 114.31 78.12 114.08Q78.59 113.83 78.88 113.38Q79.18 112.94 79.37 112.44Q79.57 111.92 79.66 111.27Q79.76 110.60 79.79 110.06Q79.83 109.52 79.83 108.88L79.83 107.92Q79.83 107.27 79.81 106.90Q79.81 106.50 79.79 105.92Q79.76 105.31 79.70 104.98Q79.63 104.63 79.53 104.15Q79.42 103.67 79.24 103.38Q79.07 103.08 78.83 102.77Q78.57 102.46 78.27 102.29Q77.94 102.11 77.51 102.00Q77.10 101.90 76.58 101.90Q76.03 101.90 75.60 102.02Q75.19 102.13 74.86 102.33Q74.54 102.54 74.27 102.86Q74.04 103.15 73.86 103.52Q73.69 103.88 73.58 104.31Q73.47 104.73 73.43 105.21Q73.39 105.67 73.34 106.17Q73.32 106.65 73.32 107.17Z" fill="#000000"/>
<path d="M86.02 102.69Q85.74 102.40 85.74 102.04Q85.74 101.52 86.15 101.25Q88.12 100.00 90.58 100.00Q92.55 100.00 93.87 101.21Q95.22 102.40 95.22 104.33Q95.22 105.10 94.94 105.81Q94.65 106.54 94.29 107.00Q93.94 107.46 93.24 108.02Q92.55 108.58 92.18 108.83Q91.83 109.08 91.07 109.56Q90.25 110.08 89.88 110.35Q89.51 110.63 88.99 111.17Q88.47 111.69 88.23 112.35Q87.99 113.00 87.95 113.90L87.95 114.00L94.37 114.00Q94.78 114.00 95.07 114.29Q95.35 114.56 95.35 114.94Q95.35 115.31 95.05 115.60Q94.76 115.88 94.37 115.88L86.95 115.88Q86.56 115.88 86.26 115.60Q85.97 115.31 85.97 114.94L85.97 114.50Q85.97 112.88 86.19 112.17Q86.56 110.92 87.58 109.94Q88.60 108.94 90.08 107.98Q92.12 106.67 92.66 105.92Q93.27 105.17 93.27 104.33Q93.27 103.23 92.46 102.54Q91.70 101.88 90.58 101.88Q88.62 101.88 87.28 102.79Q87.04 102.96 86.71 102.96Q86.32 102.96 86.02 102.69Z" fill="#000000"/>
<path d="M100.89 114.81Q99.43 113.46 99.37 111.23L99.37 110.98Q99.37 108.38 100.86 106.00Q101.47 105.02 102.34 103.94Q103.19 102.83 103.77 102.19Q104.36 101.52 105.44 100.33Q105.68 100.06 106.12 100.06Q106.48 100.06 106.77 100.36Q107.05 100.63 107.05 101.00Q107.05 101.36 106.81 101.65Q104.36 104.31 103.21 105.92L103.06 106.13L103.29 106.08Q103.92 105.96 104.58 105.96Q106.94 105.96 108.35 107.38Q109.78 108.81 109.78 111.23Q109.78 113.42 108.31 114.79Q106.83 116.17 104.58 116.17Q102.32 116.17 100.89 114.81M102.19 108.75Q101.32 109.65 101.32 111.23Q101.32 112.65 102.23 113.48Q103.12 114.29 104.58 114.29Q106.01 114.29 106.90 113.46Q107.83 112.63 107.83 111.23Q107.83 109.60 106.98 108.73Q106.16 107.83 104.58 107.83Q103.03 107.83 102.19 108.75Z" fill="#000000"/>
<path d="M118.66 116.17L118.58 116.17Q117.29 116.15 116.34 115.75Q115.39 115.38 114.82 114.77Q114.26 114.15 113.93 113.17Q113.58 112.19 113.48 111.19Q113.37 110.21 113.37 108.88Q113.37 107.69 113.39 106.85Q113.43 106.00 113.56 105.02Q113.69 104.02 113.91 103.36Q114.15 102.67 114.54 101.98Q114.93 101.31 115.47 100.92Q116.01 100.52 116.80 100.27Q117.58 100.02 118.58 100.02Q119.55 100.02 120.33 100.27Q121.11 100.52 121.66 100.92Q122.20 101.31 122.61 101.98Q123.00 102.67 123.22 103.36Q123.46 104.04 123.59 105.02Q123.72 106.00 123.74 106.85Q123.78 107.71 123.78 108.88Q123.78 109.71 123.74 110.40Q123.70 111.06 123.54 111.85Q123.41 112.65 123.20 113.25Q122.98 113.83 122.57 114.40Q122.16 114.96 121.63 115.33Q121.11 115.71 120.35 115.94Q119.59 116.17 118.66 116.17M115.32 107.17L115.32 108.88Q115.32 109.81 115.36 110.48Q115.43 111.15 115.62 111.92Q115.80 112.69 116.14 113.17Q116.49 113.67 117.10 114.00Q117.71 114.31 118.58 114.31L119.03 114.31Q119.64 114.31 120.12 114.08Q120.59 113.83 120.88 113.38Q121.18 112.94 121.37 112.44Q121.57 111.92 121.66 111.27Q121.76 110.60 121.79 110.06Q121.83 109.52 121.83 108.88L121.83 107.92Q121.83 107.27 121.81 106.90Q121.81 106.50 121.79 105.92Q121.76 105.31 121.70 104.98Q121.63 104.63 121.53 104.15Q121.42 103.67 121.24 103.38Q121.07 103.08 120.83 102.77Q120.57 102.46 120.27 102.29Q119.94 102.11 119.51 102.00Q119.10 101.90 118.58 101.90Q118.03 101.90 117.60 102.02Q117.19 102.13 116.86 102.33Q116.54 102.54 116.27 102.86Q116.04 103.15 115.86 103.52Q115.69 103.88 115.58 104.31Q115.47 104.73 115.43 105.21Q115.39 105.67 115.34 106.17Q115.32 106.65 115.32 107.17Z" fill="#000000"/>
<path d="M136.21 115.90Q135.93 115.63 135.93 115.23Q135.93 114.81 136.21 114.54Q136.52 114.27 136.91 114.27Q141.29 114.27 142.57 111.92Q142.96 111.21 142.96 110.56Q142.96 109.04 142.22 108.27Q141.25 107.17 138.80 107.17Q138.12 107.17 137.43 107.23L137.34 107.23Q136.95 107.23 136.65 106.98Q136.37 106.71 136.37 106.33L136.37 106.27L136.67 100.96Q136.71 100.58 136.97 100.33Q137.25 100.08 137.65 100.08L143.81 100.08Q144.22 100.08 144.50 100.38Q144.78 100.65 144.78 101.02Q144.78 101.40 144.48 101.69Q144.20 101.98 143.81 101.98L138.56 101.98L138.38 105.25L138.80 105.25Q141.55 105.25 143.22 106.60Q144.92 107.94 144.92 110.56Q144.92 111.67 144.42 112.63Q143.90 113.60 143.11 114.29Q141.03 116.17 136.91 116.17Q136.52 116.17 136.21 115.90M137.41 107.23Q137.41 107.23 137.43 107.23Q137.43 107.23 137.41 107.23Z" fill="#000000"/>
<path d="M149.82 115.38Q149.37 115.04 149.37 114.54Q149.37 114.15 149.65 113.88Q149.95 113.58 150.34 113.58Q150.47 113.58 150.71 113.67Q152.10 114.27 153.62 114.27Q155.27 114.27 156.40 113.48Q157.55 112.67 157.63 111.13L157.63 110.92Q157.63 109.85 156.94 109.10Q156.29 108.38 155.33 108.06Q154.40 107.77 153.25 107.77Q152.88 107.77 152.60 107.50Q152.32 107.21 152.32 106.81Q152.32 106.44 152.51 106.23L156.51 101.98L150.41 101.98Q150.02 101.98 149.71 101.71Q149.43 101.42 149.43 101.02Q149.43 100.63 149.71 100.36Q150.00 100.08 150.41 100.08L158.07 100.08Q158.46 100.08 158.74 100.38Q159.05 100.65 159.05 101.02L159.05 101.77Q159.05 102.11 158.74 102.40L155.25 106.08L155.42 106.13Q157.27 106.58 158.44 107.81Q159.59 109.04 159.59 110.90L159.59 111.23Q159.48 113.50 157.74 114.83Q156.05 116.17 153.62 116.17Q153.01 116.17 152.41 116.10Q151.80 116.04 151.04 115.90Q150.28 115.73 149.82 115.38Z" fill="#000000"/>
<path d="M164.02 102.69Q163.74 102.40 163.74 102.04Q163.74 101.52 164.15 101.25Q166.12 100.00 168.58 100.00Q170.55 100.00 171.87 101.21Q173.22 102.40 173.22 104.33Q173.22 105.10 172.94 105.81Q172.65 106.54 172.29 107.00Q171.94 107.46 171.24 108.02Q170.55 108.58 170.18 108.83Q169.83 109.08 169.07 109.56Q168.25 110.08 167.88 110.35Q167.51 110.63 166.99 111.17Q166.47 111.69 166.23 112.35Q165.99 113.00 165.95 113.90L165.95 114.00L172.37 114.00Q172.78 114.00 173.07 114.29Q173.35 114.56 173.35 114.94Q173.35 115.31 173.05 115.60Q172.76 115.88 172.37 115.88L164.95 115.88Q164.56 115.88 164.26 115.60Q163.97 115.31 163.97 114.94L163.97 114.50Q163.97 112.88 164.19 112.17Q164.56 110.92 165.58 109.94Q166.60 108.94 168.08 107.98Q170.12 106.67 170.66 105.92Q171.27 105.17 171.27 104.33Q171.27 103.23 170.46 102.54Q169.70 101.88 168.58 101.88Q166.62 101.88 165.28 102.79Q165.04 102.96 164.71 102.96Q164.32 102.96 164.02 102.69Z" fill="#000000"/>
<path d="M178.32 104.88Q178.04 104.58 178.04 104.21Q178.04 103.77 178.32 103.56L182.29 100.29Q182.58 100.06 182.92 100.06L183.62 100.06Q184.01 100.06 184.29 100.36Q184.59 100.63 184.59 101.00L184.59 115.17Q184.59 115.54 184.29 115.83Q184.01 116.10 183.62 116.10Q183.23 116.10 182.92 115.83Q182.64 115.56 182.64 115.17L182.64 102.48L179.67 104.92Q179.39 105.15 179.02 105.15Q178.60 105.15 178.32 104.88Z" fill="#000000"/>
<path d="M192.32 104.88Q192.04 104.58 192.04 104.21Q192.04 103.77 192.32 103.56L196.29 100.29Q196.58 100.06 196.92 100.06L197.62 100.06Q198.01 100.06 198.29 100.36Q198.59 100.63 198.59 101.00L198.59 115.17Q198.59 115.54 198.29 115.83Q198.01 116.10 197.62 116.10Q197.23 116.10 196.92 115.83Q196.64 115.56 196.64 115.17L196.64 102.48L193.67 104.92Q193.39 105.15 193.02 105.15Q192.60 105.15 192.32 104.88Z" fill="#000000"/>
<path d="M205.82 115.38Q205.37 115.04 205.37 114.54Q205.37 114.15 205.65 113.88Q205.95 113.58 206.34 113.58Q206.47 113.58 206.71 113.67Q208.10 114.27 209.62 114.27Q211.27 114.27 212.40 113.48Q213.55 112.67 213.63 111.13L213.63 110.92Q213.63 109.85 212.94 109.10Q212.29 108.38 211.33 108.06Q210.40 107.77 209.25 107.77Q208.88 107.77 208.60 107.50Q208.32 107.21 208.32 106.81Q208.32 106.44 208.51 106.23L212.51 101.98L206.41 101.98Q206.02 101.98 205.71 101.71Q205.43 101.42 205.43 101.02Q205.43 100.63 205.71 100.36Q206.00 100.08 206.41 100.08L214.07 100.08Q214.46 100.08 214.74 100.38Q215.05 100.65 215.05 101.02L215.05 101.77Q215.05 102.11 214.74 102.40L211.25 106.08L211.42 106.13Q213.27 106.58 214.44 107.81Q215.59 109.04 215.59 110.90L215.59 111.23Q215.48 113.50 213.74 114.83Q212.05 116.17 209.62 116.17Q209.01 116.17 208.41 116.10Q207.80 116.04 207.04 115.90Q206.28 115.73 205.82 115.38Z" fill="#000000"/>
<path d="M11.06 21.27Q11.06 20.98 11.26 20.77Q11.48 20.55 11.78 20.55L13.92 20.55L13.92 12.19L11.78 12.19Q11.48 12.19 11.26 11.97Q11.06 11.75 11.06 11.45Q11.06 11.16 11.26 10.94Q11.48 10.73 11.78 10.73L17.52 10.73Q17.83 10.73 18.04 10.94Q18.26 11.16 18.26 11.45Q18.26 11.75 18.04 11.97Q17.83 12.19 17.52 12.19L15.38 12.19L15.38 20.55L17.52 20.55Q17.83 20.55 18.04 20.77Q18.26 20.98 18.26 21.27Q18.26 21.58 18.04 21.79Q17.83 22.01 17.52 22.01L11.78 22.01Q11.48 22.01 11.26 21.79Q11.06 21.58 11.06 21.27ZM21.06 20.06Q21.06 19.75 21.26 19.54Q21.48 19.32 21.78 19.32Q22.08 19.32 22.30 19.54Q22.52 19.75 22.52 20.06Q22.52 20.26 22.66 20.40Q22.81 20.55 23.01 20.55L26.61 20.55Q26.80 20.55 26.80 20.36L21.39 13.39Q21.06 12.93 21.06 12.38L21.06 12.33Q21.06 11.68 21.53 11.20Q22.03 10.73 22.69 10.73L26.29 10.73Q27.09 10.73 27.67 11.30Q28.26 11.88 28.26 12.68Q28.26 12.98 28.04 13.20Q27.83 13.42 27.52 13.42Q27.22 13.42 27.00 13.20Q26.80 12.98 26.80 12.68Q26.80 12.49 26.64 12.35Q26.50 12.19 26.29 12.19L22.69 12.19Q22.52 12.19 22.52 12.33L22.52 12.38L22.52 12.43L27.90 19.35Q28.26 19.78 28.26 20.36Q28.23 21.04 27.75 21.53Q27.29 22.01 26.61 22.01L23.01 22.01Q22.21 22.01 21.63 21.43Q21.06 20.85 21.06 20.06ZM31.06 21.27L31.06 10.73L32.88 10.73L34.66 13.26L36.42 10.73L38.26 10.73L38.26 21.27Q38.26 21.58 38.04 21.79Q37.83 22.01 37.52 22.01Q37.22 22.01 37.00 21.79Q36.80 21.58 36.80 21.27L36.80 12.74L35.38 14.76L35.38 15.14Q35.38 15.44 35.16 15.66Q34.95 15.88 34.66 15.88Q34.35 15.88 34.14 15.66Q33.92 15.44 33.92 15.14L33.92 14.76L32.52 12.77L32.52 21.27Q32.52 21.58 32.30 21.79Q32.08 22.01 31.78 22.01Q31.48 22.01 31.26 21.79Q31.06 21.58 31.06 21.27ZM41.06 21.27L41.06 10.73L42.98 10.73L46.80 19.43L46.80 11.45Q46.80 11.16 47.00 10.94Q47.22 10.73 47.52 10.73Q47.83 10.73 48.04 10.94Q48.26 11.16 48.26 11.45L48.26 22.01L46.32 22.01L42.52 13.33L42.52 21.27Q42.52 21.58 42.30 21.79Q42.08 22.01 41.78 22.01Q41.48 22.01 41.26 21.79Q41.06 21.58 41.06 21.27ZM61.06 15.14L61.06 11.45Q61.06 11.16 61.26 10.94Q61.48 10.73 61.78 10.73L67.52 10.73Q67.83 10.73 68.04 10.94Q68.26 11.16 68.26 11.45L68.26 21.27Q68.26 21.58 68.04 21.79Q67.83 22.01 67.52 22.01L66.80 22.01Q66.50 22.01 66.28 21.79Q66.08 21.58 66.08 21.27Q66.08 20.98 66.28 20.77Q66.50 20.55 66.80 20.55L66.80 15.88L61.78 15.88Q61.48 15.88 61.26 15.66Q61.06 15.44 61.06 15.14M62.50 14.42L66.80 14.42L66.80 12.19L62.50 12.19L62.50 14.42ZM71.06 12.07L71.06 11.45Q71.06 11.16 71.26 10.94Q71.48 10.73 71.78 10.73L78.26 10.73L78.26 15.14Q78.26 15.47 78 15.70L75.38 17.93L75.38 21.27Q75.38 21.58 75.16 21.79Q74.95 22.01 74.66 22.01Q74.35 22.01 74.14 21.79Q73.92 21.58 73.92 21.27L73.92 17.60Q73.92 17.26 74.18 17.03L76.80 14.81L76.80 12.19L72.50 12.19Q72.46 12.45 72.26 12.62Q72.05 12.79 71.78 12.79Q71.48 12.79 71.26 12.59Q71.06 12.38 71.06 12.07ZM81.06 15.14L81.06 11.45Q81.06 11.16 81.26 10.94Q81.48 10.73 81.78 10.73L87.52 10.73Q87.83 10.73 88.04 10.94Q88.26 11.16 88.26 11.45L88.26 21.27Q88.26 21.58 88.04 21.79Q87.83 22.01 87.52 22.01L86.80 22.01Q86.50 22.01 86.28 21.79Q86.08 21.58 86.08 21.27Q86.08 20.98 86.28 20.77Q86.50 20.55 86.80 20.55L86.80 15.88L81.78 15.88Q81.48 15.88 81.26 15.66Q81.06 15.44 81.06 15.14M82.50 14.42L86.80 14.42L86.80 12.19L82.50 12.19L82.50 14.42ZM91.06 16.98L91.06 16.37Q91.06 16.06 91.26 15.85Q91.48 15.63 91.78 15.63L97.52 15.63Q97.83 15.63 98.04 15.85Q98.26 16.06 98.26 16.37L98.26 16.98Q98.26 17.28 98.04 17.50Q97.83 17.71 97.52 17.71L91.78 17.71Q91.48 17.71 91.26 17.50Q91.06 17.28 91.06 16.98ZM101.06 20.55L101.06 12.19Q101.06 11.59 101.49 11.16Q101.92 10.73 102.52 10.73L106.80 10.73Q107.38 10.73 107.81 11.16Q108.26 11.59 108.26 12.19L108.26 20.55Q108.26 21.14 107.81 21.58Q107.38 22.01 106.80 22.01L102.52 22.01Q101.92 22.01 101.49 21.58Q101.06 21.14 101.06 20.55M102.52 20.55L106.80 20.55L106.80 12.19L102.52 12.19L102.52 20.55ZM111.06 16.98L111.06 16.37Q111.06 16.06 111.26 15.85Q111.48 15.63 111.78 15.63L117.52 15.63Q117.83 15.63 118.04 15.85Q118.26 16.06 118.26 16.37L118.26 16.98Q118.26 17.28 118.04 17.50Q117.83 17.71 117.52 17.71L111.78 17.71Q111.48 17.71 111.26 17.50Q111.06 17.28 111.06 16.98ZM121.06 22.01L121.06 17.09Q121.06 16.50 121.49 16.08Q121.92 15.64 122.52 15.64L126.80 15.64L126.80 12.19L121.78 12.19Q121.48 12.19 121.26 11.97Q121.06 11.75 121.06 11.45Q121.06 11.16 121.26 10.94Q121.48 10.73 121.78 10.73L126.80 10.73Q127.38 10.73 127.81 11.16Q128.26 11.59 128.26 12.19L128.26 15.64Q128.26 16.22 127.83 16.66Q127.39 17.09 126.80 17.09L122.52 17.09L122.52 20.55L127.52 20.55Q127.83 20.55 128.04 20.77Q128.26 20.98 128.26 21.27Q128.26 21.58 128.04 21.79Q127.83 22.01 127.52 22.01L121.06 22.01ZM131.06 21.27L131.06 11.45Q131.06 11.16 131.26 10.94Q131.48 10.73 131.78 10.73L132.50 10.73Q132.81 10.73 133.01 10.94Q133.23 11.16 133.23 11.45Q133.23 11.75 133.01 11.97Q132.81 12.19 132.50 12.19L132.50 16.86L137.52 16.86Q137.83 16.86 138.04 17.08Q138.26 17.29 138.26 17.60L138.26 21.27Q138.26 21.58 138.04 21.79Q137.83 22.01 137.52 22.01L131.78 22.01Q131.48 22.01 131.26 21.79Q131.06 21.58 131.06 21.27M132.50 20.55L136.80 20.55L136.80 18.32L132.50 18.32L132.50 20.55ZM141.06 20.55L141.06 12.19Q141.06 11.59 141.49 11.16Q141.92 10.73 142.52 10.73L146.80 10.73Q147.38 10.73 147.81 11.16Q148.26 11.59 148.26 12.19L148.26 20.55Q148.26 21.14 147.81 21.58Q147.38 22.01 146.80 22.01L142.52 22.01Q141.92 22.01 141.49 21.58Q141.06 21.14 141.06 20.55M142.52 20.55L146.80 20.55L146.80 12.19L142.52 12.19L142.52 20.55ZM151.06 20.66Q151.06 20.36 151.26 20.16Q151.48 19.94 151.78 19.94Q151.95 19.94 152.07 20.00L153.37 20.55L156.80 20.55L156.80 17.09L152.49 17.09L152.49 10.73L157.52 10.73Q157.83 10.73 158.04 10.94Q158.26 11.16 158.26 11.45Q158.26 11.75 158.04 11.97Q157.83 12.19 157.52 12.19L153.95 12.19L153.95 15.63L156.80 15.63Q157.38 15.63 157.81 16.08Q158.26 16.51 158.26 17.09L158.26 20.55Q158.26 21.14 157.81 21.58Q157.38 22.01 156.80 22.01L153.52 22.01Q153.23 22.01 152.92 21.94Q152.63 21.87 152.44 21.79Q152.26 21.71 151.94 21.56Q151.62 21.40 151.49 21.34Q151.06 21.16 151.06 20.66ZM161.06 16.98L161.06 16.37Q161.06 16.06 161.26 15.85Q161.48 15.63 161.78 15.63L167.52 15.63Q167.83 15.63 168.04 15.85Q168.26 16.06 168.26 16.37L168.26 16.98Q168.26 17.28 168.04 17.50Q167.83 17.71 167.52 17.71L161.78 17.71Q161.48 17.71 161.26 17.50Q161.06 17.28 161.06 16.98ZM171.06 21.27Q171.06 20.98 171.26 20.77Q171.48 20.55 171.78 20.55L176.80 20.55L176.80 17.83Q176.80 17.54 176.57 17.32Q176.35 17.09 176.06 17.09L173.21 17.09Q172.91 17.09 172.69 16.89Q172.49 16.67 172.49 16.37Q172.49 16.06 172.69 15.85Q172.91 15.63 173.21 15.63L176.06 15.63Q176.37 15.63 176.58 15.41Q176.80 15.20 176.80 14.91L176.80 12.19L171.78 12.19Q171.48 12.19 171.26 11.97Q171.06 11.75 171.06 11.45Q171.06 11.16 171.26 10.94Q171.48 10.73 171.78 10.73L176.80 10.73Q177.38 10.73 177.81 11.16Q178.26 11.59 178.26 12.19L178.26 14.91Q178.26 15.75 177.68 16.37Q178.26 16.99 178.26 17.83L178.26 20.55Q178.26 21.14 177.81 21.58Q177.38 22.01 176.80 22.01L171.78 22.01Q171.48 22.01 171.26 21.79Q171.06 21.58 171.06 21.27ZM181.06 22.01L181.06 17.09Q181.06 16.50 181.49 16.08Q181.92 15.64 182.52 15.64L186.80 15.64L186.80 12.19L181.78 12.19Q181.48 12.19 181.26 11.97Q181.06 11.75 181.06 11.45Q181.06 11.16 181.26 10.94Q181.48 10.73 181.78 10.73L186.80 10.73Q187.38 10.73 187.81 11.16Q188.26 11.59 188.26 12.19L188.26 15.64Q188.26 16.22 187.83 16.66Q187.39 17.09 186.80 17.09L182.52 17.09L182.52 20.55L187.52 20.55Q187.83 20.55 188.04 20.77Q188.26 20.98 188.26 21.27Q188.26 21.58 188.04 21.79Q187.83 22.01 187.52 22.01L181.06 22.01ZM191.06 21.27Q191.06 20.98 191.26 20.77Q191.48 20.55 191.78 20.55L193.92 20.55L193.92 12.19L191.78 12.19Q191.48 12.19 191.26 11.97Q191.06 11.75 191.06 11.45Q191.06 11.16 191.26 10.94Q191.48 10.73 191.78 10.73L195.38 10.73L195.38 20.55L196.80 20.55L196.80 17.60Q196.80 17.29 197.00 17.08Q197.22 16.86 197.52 16.86Q197.83 16.86 198.04 17.08Q198.26 17.29 198.26 17.60L198.26 21.27Q198.26 21.58 198.04 21.79Q197.83 22.01 197.52 22.01L191.78 22.01Q191.48 22.01 191.26 21.79Q191.06 21.58 191.06 21.27ZM201.06 21.27Q201.06 20.98 201.26 20.77Q201.48 20.55 201.78 20.55L203.92 20.55L203.92 12.19L201.78 12.19Q201.48 12.19 201.26 11.97Q201.06 11.75 201.06 11.45Q201.06 11.16 201.26 10.94Q201.48 10.73 201.78 10.73L205.38 10.73L205.38 20.55L206.80 20.55L206.80 17.60Q206.80 17.29 207.00 17.08Q207.22 16.86 207.52 16.86Q207.83 16.86 208.04 17.08Q208.26 17.29 208.26 17.60L208.26 21.27Q208.26 21.58 208.04 21.79Q207.83 22.01 207.52 22.01L201.78 22.01Q201.48 22.01 201.26 21.79Q201.06 21.58 201.06 21.27ZM211.06 16.98L211.06 16.37Q211.06 16.06 211.26 15.85Q211.48 15.63 211.78 15.63L217.52 15.63Q217.83 15.63 218.04 15.85Q218.26 16.06 218.26 16.37L218.26 16.98Q218.26 17.28 218.04 17.50Q217.83 17.71 217.52 17.71L211.78 17.71Q211.48 17.71 211.26 17.50Q211.06 17.28 211.06 16.98ZM221.06 21.27Q221.06 20.98 221.26 20.77Q221.48 20.55 221.78 20.55L226.80 20.55L226.80 17.83Q226.80 17.54 226.57 17.32Q226.35 17.09 226.06 17.09L223.21 17.09Q222.91 17.09 222.69 16.89Q222.49 16.67 222.49 16.37Q222.49 16.06 222.69 15.85Q222.91 15.63 223.21 15.63L226.06 15.63Q226.37 15.63 226.58 15.41Q226.80 15.20 226.80 14.91L226.80 12.19L221.78 12.19Q221.48 12.19 221.26 11.97Q221.06 11.75 221.06 11.45Q221.06 11.16 221.26 10.94Q221.48 10.73 221.78 10.73L226.80 10.73Q227.38 10.73 227.81 11.16Q228.26 11.59 228.26 12.19L228.26 14.91Q228.26 15.75 227.68 16.37Q228.26 16.99 228.26 17.83L228.26 20.55Q228.26 21.14 227.81 21.58Q227.38 22.01 226.80 22.01L221.78 22.01Q221.48 22.01 221.26 21.79Q221.06 21.58 221.06 21.27Z" fill="#000000"/>
</svg>