<svg xmlns="http://www.w3.org/2000/svg" viewBox="0 0 280 100" width="260" height="80">
<rect width="100%" height="100%" fill="#ffffff"/>
<path d="M15 10L20 10L20 41L15 41ZM46 10L52 10L52 41L46 41ZM57 10L62 10L62 41L57 41ZM88 10L93 10L93 41L88 41ZM98 10L104 10L104 41L98 41ZM114 10L130 10L130 41L114 41ZM171 10L176 10L176 41L171 41ZM182 10L202 10L202 47L197 47L197 41L192 41L192 47L187 47L187 41L182 41ZM218 10L223 10L223 41L218 41ZM228 10L234 10L234 41L228 41ZM239 10L249 10L249 41L239 41ZM260 10L265 10L265 41L260 41ZM36 41L46 41L46 47L36 47ZM52 41L57 41L57 47L52 47ZM62 41L67 41L67 47L62 47ZM72 41L88 41L88 47L78 47L78 90L67 90L67 47L72 47ZM93 41L98 41L98 47L93 47ZM104 41L109 41L109 47L104 47ZM130 41L166 41L166 47L130 47ZM176 41L182 41L182 47L176 47ZM208 41L218 41L218 47L208 47ZM223 41L228 41L228 47L223 47ZM234 41L239 41L239 90L234 90ZM10 47L15 47L15 90L10 90ZM20 47L36 47L36 90L20 90ZM57 47L62 47L62 90L57 90ZM88 47L93 47L93 90L88 90ZM98 47L104 47L104 90L98 90ZM109 47L130 47L130 90L109 90ZM166 47L176 47L176 90L166 90ZM202 47L208 47L208 90L202 90ZM218 47L223 47L223 90L218 90ZM244 47L260 47L260 90L244 90ZM265 47L270 47L270 90L265 90Z" fill="#000000" fill-rule="evenodd"/>
</svg>