<svg xmlns="http://www.w3.org/2000/svg" viewBox="0 0 352 127" width="260" height="80">
<rect width="100%" height="100%" fill="#ffffff"/>
<path stroke="#000000" stroke-width="2" d="M35 109L35 28M39 109L39 28M61 98L61 28M67 98L67 28M95 98L95 28M105 98L105 28M109 98L109 28M123 98L123 28M127 109L127 28M131 109L131 28M135 98L135 28M141 98L141 28M177 98L177 28M187 98L187 28M205 98L205 28M219 109L219 28M223 109L223 28M249 98L249 50M263 98L263 50M273 98L273 50M277 98L277 50M291 98L291 50M305 98L305 50M309 98L309 50M313 98L313 50M327 98L327 50M341 98L341 50"/>
<path stroke="#000000" stroke-width="6" d="M45 98L45 28M211 98L211 28M285 98L285 50M321 98L321 50"/>
<path stroke="#000000" stroke-width="4" d="M52 98L52 28M72 98L72 28M80 98L80 28M86 98L86 28M114 98L114 28M150 98L150 28M158 98L158 28M164 98L164 28M170 98L170 28M192 98L192 28M200 98L200 28M254 98L254 50M268 98L268 50M300 98L300 50M336 98L336 50"/>
<path d="M16.27 102.90Q15.32 103.90 15.32 105.29Q15.32 106.65 16.23 107.50Q17.10 108.33 18.58 108.33Q21.16 108.33 21.61 106.81Q21.83 106.13 21.83 105.29Q21.83 103.73 20.92 102.81Q20.03 101.88 18.58 101.88Q17.21 101.88 16.27 102.90M14.84 108.79Q13.37 107.40 13.37 105.29Q13.37 103.13 14.93 101.56Q16.45 100.00 18.58 100.00Q20.77 100.00 22.26 101.46Q23.78 102.92 23.78 105.29Q23.78 106.77 23.33 107.96Q22.87 109.15 22.05 110.52Q20.25 113.54 17.64 115.85Q17.36 116.10 17.03 116.10Q16.67 116.10 16.38 115.83Q16.10 115.56 16.10 115.17Q16.10 114.77 16.41 114.48Q18.47 112.58 19.94 110.29L20.05 110.08L19.83 110.13Q19.27 110.21 18.58 110.21Q16.27 110.21 14.84 108.79Z" fill="#000000"/>
<path d="M43.65 101.71Q43.37 101.42 43.37 101.02Q43.37 100.63 43.65 100.36Q43.93 100.08 44.34 100.08L52.81 100.08Q53.22 100.08 53.50 100.38Q53.78 100.65 53.78 101.02Q53.78 102.61 52.50 104.46Q52.11 105.04 50.98 106.40Q49.86 107.77 49.38 108.63Q47.97 111.13 47.97 115.15Q47.97 115.54 47.69 115.83Q47.40 116.10 47.03 116.10Q46.67 116.10 46.38 115.83Q46.10 115.56 46.10 115.15Q46.10 110.60 47.75 107.67Q48.25 106.81 49.38 105.38Q50.53 103.92 50.90 103.38Q51.42 102.54 51.61 102.13L51.66 101.98L44.34 101.98Q43.95 101.98 43.65 101.71Z" fill="#000000"/>
<path d="M60.88 102.29Q60.06 102.71 60.06 103.50Q60.06 104.02 60.25 104.42Q60.45 104.81 60.90 105.15Q61.34 105.46 61.62 105.63Q61.92 105.79 62.53 106.08L62.58 106.08L62.62 106.08Q63.23 105.81 63.53 105.65Q63.83 105.48 64.27 105.17Q64.70 104.83 64.90 104.44Q65.09 104.02 65.09 103.50Q65.09 102.71 64.27 102.29Q63.46 101.88 62.58 101.88Q61.69 101.88 60.88 102.29M62.58 108.23Q59.30 109.88 59.30 111.83Q59.30 113.00 60.27 113.65Q61.19 114.29 62.58 114.29L63.01 114.29Q64.16 114.29 64.98 113.56Q65.83 112.83 65.83 111.83Q65.83 109.85 62.66 108.23L62.62 108.19L62.58 108.23M58.86 114.96Q57.37 113.75 57.37 111.83Q57.37 109.31 60.45 107.27L60.58 107.19L60.45 107.10Q58.10 105.73 58.10 103.50Q58.10 101.98 59.49 101.00Q60.86 100.00 62.58 100.00Q64.27 100.00 65.66 101.00Q67.05 102.00 67.05 103.50Q67.05 104.73 66.44 105.58Q65.81 106.42 64.70 107.10L64.57 107.19L64.70 107.27Q67.78 109.31 67.78 111.83Q67.78 113.48 66.52 114.75Q65.27 116.02 63.49 116.17L62.58 116.17Q60.34 116.17 58.86 114.96Z" fill="#000000"/>
<path d="M72.32 104.88Q72.04 104.58 72.04 104.21Q72.04 103.77 72.32 103.56L76.29 100.29Q76.58 100.06 76.92 100.06L77.62 100.06Q78.01 100.06 78.29 100.36Q78.59 100.63 78.59 101.00L78.59 115.17Q78.59 115.54 78.29 115.83Q78.01 116.10 77.62 116.10Q77.23 116.10 76.92 115.83Q76.64 115.56 76.64 115.17L76.64 102.48L73.67 104.92Q73.39 105.15 73.02 105.15Q72.60 105.15 72.32 104.88Z" fill="#000000"/>
<path d="M86.21 115.90Q85.93 115.63 85.93 115.23Q85.93 114.81 86.21 114.54Q86.52 114.27 86.91 114.27Q91.29 114.27 92.57 111.92Q92.96 111.21 92.96 110.56Q92.96 109.04 92.22 108.27Q91.25 107.17 88.80 107.17Q88.12 107.17 87.43 107.23L87.34 107.23Q86.95 107.23 86.65 106.98Q86.37 106.71 86.37 106.33L86.37 106.27L86.67 100.96Q86.71 100.58 86.97 100.33Q87.25 100.08 87.65 100.08L93.81 100.08Q94.22 100.08 94.50 100.38Q94.78 100.65 94.78 101.02Q94.78 101.40 94.48 101.69Q94.20 101.98 93.81 101.98L88.56 101.98L88.38 105.25L88.80 105.25Q91.55 105.25 93.22 106.60Q94.92 107.94 94.92 110.56Q94.92 111.67 94.42 112.63Q93.90 113.60 93.11 114.29Q91.03 116.17 86.91 116.17Q86.52 116.17 86.21 115.90M87.41 107.23Q87.41 107.23 87.43 107.23Q87.43 107.23 87.41 107.23Z" fill="#000000"/>
<path d="M100.89 114.81Q99.43 113.46 99.37 111.23L99.37 110.98Q99.37 108.38 100.86 106.00Q101.47 105.02 102.34 103.94Q103.19 102.83 103.77 102.19Q104.36 101.52 105.44 100.33Q105.68 100.06 106.12 100.06Q106.48 100.06 106.77 100.36Q107.05 100.63 107.05 101.00Q107.05 101.36 106.81 101.65Q104.36 104.31 103.21 105.92L103.06 106.13L103.29 106.08Q103.92 105.96 104.58 105.96Q106.94 105.96 108.35 107.38Q109.78 108.81 109.78 111.23Q109.78 113.42 108.31 114.79Q106.83 116.17 104.58 116.17Q102.32 116.17 100.89 114.81M102.19 108.75Q101.32 109.65 101.32 111.23Q101.32 112.65 102.23 113.48Q103.12 114.29 104.58 114.29Q106.01 114.29 106.90 113.46Q107.83 112.63 107.83 111.23Q107.83 109.60 106.98 108.73Q106.16 107.83 104.58 107.83Q103.03 107.83 102.19 108.75Z" fill="#000000"/>
<path d="M114.21 115.90Q113.93 115.63 113.93 115.23Q113.93 114.81 114.21 114.54Q114.52 114.27 114.91 114.27Q119.29 114.27 120.57 111.92Q120.96 111.21 120.96 110.56Q120.96 109.04 120.22 108.27Q119.25 107.17 116.80 107.17Q116.12 107.17 115.43 107.23L115.34 107.23Q114.95 107.23 114.65 106.98Q114.37 106.71 114.37 106.33L114.37 106.27L114.67 100.96Q114.71 100.58 114.97 100.33Q115.25 100.08 115.65 100.08L121.81 100.08Q122.22 100.08 122.50 100.38Q122.78 100.65 122.78 101.02Q122.78 101.40 122.48 101.69Q122.20 101.98 121.81 101.98L116.56 101.98L116.38 105.25L116.80 105.25Q119.55 105.25 121.22 106.60Q122.92 107.94 122.92 110.56Q122.92 111.67 122.42 112.63Q121.90 113.60 121.11 114.29Q119.03 116.17 114.91 116.17Q114.52 116.17 114.21 115.90M115.41 107.23Q115.41 107.23 115.43 107.23Q115.43 107.23 115.41 107.23Z" fill="#000000"/>
<path d="M138.88 102.29Q138.06 102.71 138.06 103.50Q138.06 104.02 138.25 104.42Q138.45 104.81 138.90 105.15Q139.34 105.46 139.62 105.63Q139.92 105.79 140.53 106.08L140.58 106.08L140.62 106.08Q141.23 105.81 141.53 105.65Q141.83 105.48 142.27 105.17Q142.70 104.83 142.90 104.44Q143.09 104.02 143.09 103.50Q143.09 102.71 142.27 102.29Q141.46 101.88 140.58 101.88Q139.69 101.88 138.88 102.29M140.58 108.23Q137.30 109.88 137.30 111.83Q137.30 113.00 138.27 113.65Q139.19 114.29 140.58 114.29L141.01 114.29Q142.16 114.29 142.98 113.56Q143.83 112.83 143.83 111.83Q143.83 109.85 140.66 108.23L140.62 108.19L140.58 108.23M136.86 114.96Q135.37 113.75 135.37 111.83Q135.37 109.31 138.45 107.27L138.58 107.19L138.45 107.10Q136.10 105.73 136.10 103.50Q136.10 101.98 137.49 101.00Q138.86 100.00 140.58 100.00Q142.27 100.00 143.66 101.00Q145.05 102.00 145.05 103.50Q145.05 104.73 144.44 105.58Q143.81 106.42 142.70 107.10L142.57 107.19L142.70 107.27Q145.78 109.31 145.78 111.83Q145.78 113.48 144.52 114.75Q143.27 116.02 141.49 116.17L140.58 116.17Q138.34 116.17 136.86 114.96Z" fill="#000000"/>
<path d="M150.32 104.88Q150.04 104.58 150.04 104.21Q150.04 103.77 150.32 103.56L154.29 100.29Q154.58 100.06 154.92 100.06L155.62 100.06Q156.01 100.06 156.29 100.36Q156.59 100.63 156.59 101.00L156.59 115.17Q156.59 115.54 156.29 115.83Q156.01 116.10 155.62 116.10Q155.23 116.10 154.92 115.83Q154.64 115.56 154.64 115.17L154.64 102.48L151.67 104.92Q151.39 105.15 151.02 105.15Q150.60 105.15 150.32 104.88Z" fill="#000000"/>
<path d="M164.02 102.69Q163.74 102.40 163.74 102.04Q163.74 101.52 164.15 101.25Q166.12 100.00 168.58 100.00Q170.55 100.00 171.87 101.21Q173.22 102.40 173.22 104.33Q173.22 105.10 172.94 105.81Q172.65 106.54 172.29 107.00Q171.94 107.46 171.24 108.02Q170.55 108.58 170.18 108.83Q169.83 109.08 169.07 109.56Q168.25 110.08 167.88 110.35Q167.51 110.63 166.99 111.17Q166.47 111.69 166.23 112.35Q165.99 113.00 165.95 113.90L165.95 114.00L172.37 114.00Q172.78 114.00 173.07 114.29Q173.35 114.56 173.35 114.94Q173.35 115.31 173.05 115.60Q172.76 115.88 172.37 115.88L164.95 115.88Q164.56 115.88 164.26 115.60Q163.97 115.31 163.97 114.94L163.97 114.50Q163.97 112.88 164.19 112.17Q164.56 110.92 165.58 109.94Q166.60 108.94 168.08 107.98Q170.12 106.67 170.66 105.92Q171.27 105.17 171.27 104.33Q171.27 103.23 170.46 102.54Q169.70 101.88 168.58 101.88Q166.62 101.88 165.28 102.79Q165.04 102.96 164.71 102.96Q164.32 102.96 164.02 102.69Z" fill="#000000"/>
<path d="M177.82 115.38Q177.37 115.04 177.37 114.54Q177.37 114.15 177.65 113.88Q177.95 113.58 178.34 113.58Q178.47 113.58 178.71 113.67Q180.10 114.27 181.62 114.27Q183.27 114.27 184.40 113.48Q185.55 112.67 185.63 111.13L185.63 110.92Q185.63 109.85 184.94 109.10Q184.29 108.38 183.33 108.06Q182.40 107.77 181.25 107.77Q180.88 107.77 180.60 107.50Q180.32 107.21 180.32 106.81Q180.32 106.44 180.51 106.23L184.51 101.98L178.41 101.98Q178.02 101.98 177.71 101.71Q177.43 101.42 177.43 101.02Q177.43 100.63 177.71 100.36Q178.00 100.08 178.41 100.08L186.07 100.08Q186.46 100.08 186.74 100.38Q187.05 100.65 187.05 101.02L187.05 101.77Q187.05 102.11 186.74 102.40L183.25 106.08L183.42 106.13Q185.27 106.58 186.44 107.81Q187.59 109.04 187.59 110.90L187.59 111.23Q187.48 113.50 185.74 114.83Q184.05 116.17 181.62 116.17Q181.01 116.17 180.41 116.10Q179.80 116.04 179.04 115.90Q178.28 115.73 177.82 115.38Z" fill="#000000"/>
<path d="M192.32 104.88Q192.04 104.58 192.04 104.21Q192.04 103.77 192.32 103.56L196.29 100.29Q196.58 100.06 196.92 100.06L197.62 100.06Q198.01 100.06 198.29 100.36Q198.59 100.63 198.59 101.00L198.59 115.17Q198.59 115.54 198.29 115.83Q198.01 116.10 197.62 116.10Q197.23 116.10 196.92 115.83Q196.64 115.56 196.64 115.17L196.64 102.48L193.67 104.92Q193.39 105.15 193.02 105.15Q192.60 105.15 192.32 104.88Z" fill="#000000"/>
<path d="M205.65 112.21Q205.37 111.94 205.37 111.54L205.37 110.65Q205.37 110.48 205.48 110.25L210.10 100.61Q210.18 100.38 210.42 100.23Q210.66 100.06 210.92 100.06Q211.31 100.06 211.59 100.36Q211.88 100.63 211.88 101.00Q211.88 101.21 211.77 101.40L207.43 110.60L211.66 110.60L211.66 108.08Q211.66 107.71 211.94 107.44Q212.22 107.15 212.59 107.15Q212.96 107.15 213.24 107.44Q213.55 107.71 213.55 108.08L213.55 110.60L214.81 110.60Q215.22 110.60 215.50 110.90Q215.78 111.17 215.78 111.54Q215.78 111.92 215.48 112.21Q215.20 112.48 214.81 112.48L213.55 112.48L213.55 115.17Q213.55 115.54 213.24 115.81Q212.96 116.10 212.59 116.10Q212.22 116.10 211.94 115.83Q211.66 115.54 211.66 115.17L211.66 112.48L206.34 112.48Q205.95 112.48 205.65 112.21Z" fill="#000000"/>
<path d="M254.27 34.51Q253.32 35.51 253.32 36.90Q253.32 38.26 254.23 39.11Q255.10 39.94 256.58 39.94Q259.16 39.94 259.61 38.42Q259.83 37.74 259.83 36.90Q259.83 35.34 258.92 34.42Q258.03 33.49 256.58 33.49Q255.21 33.49 254.27 34.51M252.84 40.40Q251.37 39.01 251.37 36.90Q251.37 34.74 252.93 33.17Q254.45 31.61 256.58 31.61Q258.77 31.61 260.26 33.07Q261.78 34.53 261.78 36.90Q261.78 38.38 261.33 39.57Q260.87 40.76 260.05 42.13Q258.25 45.15 255.64 47.46Q255.36 47.71 255.03 47.71Q254.67 47.71 254.38 47.44Q254.10 47.17 254.10 46.78Q254.10 46.38 254.41 46.09Q256.47 44.19 257.94 41.90L258.05 41.69L257.83 41.74Q257.27 41.82 256.58 41.82Q254.27 41.82 252.84 40.40Z" fill="#000000"/>
<path d="M274.66 47.78L274.58 47.78Q273.29 47.76 272.34 47.36Q271.39 46.99 270.82 46.38Q270.26 45.76 269.93 44.78Q269.58 43.80 269.48 42.80Q269.37 41.82 269.37 40.49Q269.37 39.30 269.39 38.46Q269.43 37.61 269.56 36.63Q269.69 35.63 269.91 34.97Q270.15 34.28 270.54 33.59Q270.93 32.92 271.47 32.53Q272.01 32.13 272.80 31.88Q273.58 31.63 274.58 31.63Q275.55 31.63 276.33 31.88Q277.11 32.13 277.66 32.53Q278.20 32.92 278.61 33.59Q279.00 34.28 279.22 34.97Q279.46 35.65 279.59 36.63Q279.72 37.61 279.74 38.46Q279.78 39.32 279.78 40.49Q279.78 41.32 279.74 42.01Q279.70 42.67 279.54 43.46Q279.41 44.26 279.20 44.86Q278.98 45.44 278.57 46.01Q278.16 46.57 277.63 46.94Q277.11 47.32 276.35 47.55Q275.59 47.78 274.66 47.78M271.32 38.78L271.32 40.49Q271.32 41.42 271.36 42.09Q271.43 42.76 271.62 43.53Q271.80 44.30 272.14 44.78Q272.49 45.28 273.10 45.61Q273.71 45.92 274.58 45.92L275.03 45.92Q275.64 45.92 276.12 45.69Q276.59 45.44 276.88 44.99Q277.18 44.55 277.37 44.05Q277.57 43.53 277.66 42.88Q277.76 42.21 277.79 41.67Q277.83 41.13 277.83 40.49L277.83 39.53Q277.83 38.88 277.81 38.51Q277.81 38.11 277.79 37.53Q277.76 36.92 277.70 36.59Q277.63 36.24 277.53 35.76Q277.42 35.28 277.24 34.99Q277.07 34.69 276.83 34.38Q276.57 34.07 276.27 33.90Q275.94 33.72 275.51 33.61Q275.10 33.51 274.58 33.51Q274.03 33.51 273.60 33.63Q273.19 33.74 272.86 33.94Q272.54 34.15 272.27 34.47Q272.04 34.76 271.86 35.13Q271.69 35.49 271.58 35.92Q271.47 36.34 271.43 36.82Q271.39 37.28 271.34 37.78Q271.32 38.26 271.32 38.78Z" fill="#000000"/>
<path d="M292.66 47.78L292.58 47.78Q291.29 47.76 290.34 47.36Q289.39 46.99 288.82 46.38Q288.26 45.76 287.93 44.78Q287.58 43.80 287.48 42.80Q287.37 41.82 287.37 40.49Q287.37 39.30 287.39 38.46Q287.43 37.61 287.56 36.63Q287.69 35.63 287.91 34.97Q288.15 34.28 288.54 33.59Q288.93 32.92 289.47 32.53Q290.01 32.13 290.80 31.88Q291.58 31.63 292.58 31.63Q293.55 31.63 294.33 31.88Q295.11 32.13 295.66 32.53Q296.20 32.92 296.61 33.59Q297.00 34.28 297.22 34.97Q297.46 35.65 297.59 36.63Q297.72 37.61 297.74 38.46Q297.78 39.32 297.78 40.49Q297.78 41.32 297.74 42.01Q297.70 42.67 297.54 43.46Q297.41 44.26 297.20 44.86Q296.98 45.44 296.57 46.01Q296.16 46.57 295.63 46.94Q295.11 47.32 294.35 47.55Q293.59 47.78 292.66 47.78M289.32 38.78L289.32 40.49Q289.32 41.42 289.36 42.09Q289.43 42.76 289.62 43.53Q289.80 44.30 290.14 44.78Q290.49 45.28 291.10 45.61Q291.71 45.92 292.58 45.92L293.03 45.92Q293.64 45.92 294.12 45.69Q294.59 45.44 294.88 44.99Q295.18 44.55 295.37 44.05Q295.57 43.53 295.66 42.88Q295.76 42.21 295.79 41.67Q295.83 41.13 295.83 40.49L295.83 39.53Q295.83 38.88 295.81 38.51Q295.81 38.11 295.79 37.53Q295.76 36.92 295.70 36.59Q295.63 36.24 295.53 35.76Q295.42 35.28 295.24 34.99Q295.07 34.69 294.83 34.38Q294.57 34.07 294.27 33.90Q293.94 33.72 293.51 33.61Q293.10 33.51 292.58 33.51Q292.03 33.51 291.60 33.63Q291.19 33.74 290.86 33.94Q290.54 34.15 290.27 34.47Q290.04 34.76 289.86 35.13Q289.69 35.49 289.58 35.92Q289.47 36.34 289.43 36.82Q289.39 37.28 289.34 37.78Q289.32 38.26 289.32 38.78Z" fill="#000000"/>
<path d="M310.66 47.78L310.58 47.78Q309.29 47.76 308.34 47.36Q307.39 46.99 306.82 46.38Q306.26 45.76 305.93 44.78Q305.58 43.80 305.48 42.80Q305.37 41.82 305.37 40.49Q305.37 39.30 305.39 38.46Q305.43 37.61 305.56 36.63Q305.69 35.63 305.91 34.97Q306.15 34.28 306.54 33.59Q306.93 32.92 307.47 32.53Q308.01 32.13 308.80 31.88Q309.58 31.63 310.58 31.63Q311.55 31.63 312.33 31.88Q313.11 32.13 313.66 32.53Q314.20 32.92 314.61 33.59Q315.00 34.28 315.22 34.97Q315.46 35.65 315.59 36.63Q315.72 37.61 315.74 38.46Q315.78 39.32 315.78 40.49Q315.78 41.32 315.74 42.01Q315.70 42.67 315.54 43.46Q315.41 44.26 315.20 44.86Q314.98 45.44 314.57 46.01Q314.16 46.57 313.63 46.94Q313.11 47.32 312.35 47.55Q311.59 47.78 310.66 47.78M307.32 38.78L307.32 40.49Q307.32 41.42 307.36 42.09Q307.43 42.76 307.62 43.53Q307.80 44.30 308.14 44.78Q308.49 45.28 309.10 45.61Q309.71 45.92 310.58 45.92L311.03 45.92Q311.64 45.92 312.12 45.69Q312.59 45.44 312.88 44.99Q313.18 44.55 313.37 44.05Q313.57 43.53 313.66 42.88Q313.76 42.21 313.79 41.67Q313.83 41.13 313.83 40.49L313.83 39.53Q313.83 38.88 313.81 38.51Q313.81 38.11 313.79 37.53Q313.76 36.92 313.70 36.59Q313.63 36.24 313.53 35.76Q313.42 35.28 313.24 34.99Q313.07 34.69 312.83 34.38Q312.57 34.07 312.27 33.90Q311.94 33.72 311.51 33.61Q311.10 33.51 310.58 33.51Q310.03 33.51 309.60 33.63Q309.19 33.74 308.86 33.94Q308.54 34.15 308.27 34.47Q308.04 34.76 307.86 35.13Q307.69 35.49 307.58 35.92Q307.47 36.34 307.43 36.82Q307.39 37.28 307.34 37.78Q307.32 38.26 307.32 38.78Z" fill="#000000"/>
<path d="M328.66 47.78L328.58 47.78Q327.29 47.76 326.34 47.36Q325.39 46.99 324.82 46.38Q324.26 45.76 323.93 44.78Q323.58 43.80 323.48 42.80Q323.37 41.82 323.37 40.49Q323.37 39.30 323.39 38.46Q323.43 37.61 323.56 36.63Q323.69 35.63 323.91 34.97Q324.15 34.28 324.54 33.59Q324.93 32.92 325.47 32.53Q326.01 32.13 326.80 31.88Q327.58 31.63 328.58 31.63Q329.55 31.63 330.33 31.88Q331.11 32.13 331.66 32.53Q332.20 32.92 332.61 33.59Q333.00 34.28 333.22 34.97Q333.46 35.65 333.59 36.63Q333.72 37.61 333.74 38.46Q333.78 39.32 333.78 40.49Q333.78 41.32 333.74 42.01Q333.70 42.67 333.54 43.46Q333.41 44.26 333.20 44.86Q332.98 45.44 332.57 46.01Q332.16 46.57 331.63 46.94Q331.11 47.32 330.35 47.55Q329.59 47.78 328.66 47.78M325.32 38.78L325.32 40.49Q325.32 41.42 325.36 42.09Q325.43 42.76 325.62 43.53Q325.80 44.30 326.14 44.78Q326.49 45.28 327.10 45.61Q327.71 45.92 328.58 45.92L329.03 45.92Q329.64 45.92 330.12 45.69Q330.59 45.44 330.88 44.99Q331.18 44.55 331.37 44.05Q331.57 43.53 331.66 42.88Q331.76 42.21 331.79 41.67Q331.83 41.13 331.83 40.49L331.83 39.53Q331.83 38.88 331.81 38.51Q331.81 38.11 331.79 37.53Q331.76 36.92 331.70 36.59Q331.63 36.24 331.53 35.76Q331.42 35.28 331.24 34.99Q331.07 34.69 330.83 34.38Q330.57 34.07 330.27 33.90Q329.94 33.72 329.51 33.61Q329.10 33.51 328.58 33.51Q328.03 33.51 327.60 33.63Q327.19 33.74 326.86 33.94Q326.54 34.15 326.27 34.47Q326.04 34.76 325.86 35.13Q325.69 35.49 325.58 35.92Q325.47 36.34 325.43 36.82Q325.39 37.28 325.34 37.78Q325.32 38.26 325.32 38.78Z" fill="#000000"/>
<path d="M11.06 21.27Q11.06 20.98 11.26 20.77Q11.48 20.55 11.78 20.55L13.92 20.55L13.92 12.19L11.78 12.19Q11.48 12.19 11.26 11.97Q11.06 11.75 11.06 11.45Q11.06 11.16 11.26 10.94Q11.48 10.73 11.78 10.73L17.52 10.73Q17.83 10.73 18.04 10.94Q18.26 11.16 18.26 11.45Q18.26 11.75 18.04 11.97Q17.83 12.19 17.52 12.19L15.38 12.19L15.38 20.55L17.52 20.55Q17.83 20.55 18.04 20.77Q18.26 20.98 18.26 21.27Q18.26 21.58 18.04 21.79Q17.83 22.01 17.52 22.01L11.78 22.01Q11.48 22.01 11.26 21.79Q11.06 21.58 11.06 21.27ZM21.06 20.06Q21.06 19.75 21.26 19.54Q21.48 19.32 21.78 19.32Q22.08 19.32 22.30 19.54Q22.52 19.75 22.52 20.06Q22.52 20.26 22.66 20.40Q22.81 20.55 23.01 20.55L26.61 20.55Q26.80 20.55 26.80 20.36L21.39 13.39Q21.06 12.93 21.06 12.38L21.06 12.33Q21.06 11.68 21.53 11.20Q22.03 10.73 22.69 10.73L26.29 10.73Q27.09 10.73 27.67 11.30Q28.26 11.88 28.26 12.68Q28.26 12.98 28.04 13.20Q27.83 13.42 27.52 13.42Q27.22 13.42 27.00 13.20Q26.80 12.98 26.80 12.68Q26.80 12.49 26.64 12.35Q26.50 12.19 26.29 12.19L22.69 12.19Q22.52 12.19 22.52 12.33L22.52 12.38L22.52 12.43L27.90 19.35Q28.26 19.78 28.26 20.36Q28.23 21.04 27.75 21.53Q27.29 22.01 26.61 22.01L23.01 22.01Q22.21 22.01 21.63 21.43Q21.06 20.85 21.06 20.06ZM31.06 22.01L31.06 10.73L35.34 10.73Q36.52 10.73 37.39 11.59Q38.26 12.46 38.26 13.65L38.26 14.18Q38.26 15.47 37.25 16.37Q38.26 17.26 38.26 18.55L38.26 19.09Q38.26 20.27 37.39 21.14Q36.52 22.01 35.34 22.01L31.06 22.01M32.52 20.55L35.34 20.55Q35.93 20.55 36.37 20.11Q36.80 19.67 36.80 19.09L36.80 18.55Q36.80 17.96 36.37 17.53Q35.93 17.09 35.34 17.09L32.52 17.09L32.52 20.55M32.52 15.63L35.34 15.63Q35.93 15.63 36.37 15.20Q36.80 14.76 36.80 14.18L36.80 13.65Q36.80 13.07 36.37 12.64Q35.93 12.19 35.34 12.19L32.52 12.19L32.52 15.63ZM41.06 21.27L41.06 10.73L42.98 10.73L46.80 19.43L46.80 11.45Q46.80 11.16 47.00 10.94Q47.22 10.73 47.52 10.73Q47.83 10.73 48.04 10.94Q48.26 11.16 48.26 11.45L48.26 22.01L46.32 22.01L42.52 13.33L42.52 21.27Q42.52 21.58 42.30 21.79Q42.08 22.01 41.78 22.01Q41.48 22.01 41.26 21.79Q41.06 21.58 41.06 21.27ZM61.06 15.14L61.06 11.45Q61.06 11.16 61.26 10.94Q61.48 10.73 61.78 10.73L67.52 10.73Q67.83 10.73 68.04 10.94Q68.26 11.16 68.26 11.45L68.26 21.27Q68.26 21.58 68.04 21.79Q67.83 22.01 67.52 22.01L66.80 22.01Q66.50 22.01 66.28 21.79Q66.08 21.58 66.08 21.27Q66.08 20.98 66.28 20.77Q66.50 20.55 66.80 20.55L66.80 15.88L61.78 15.88Q61.48 15.88 61.26 15.66Q61.06 15.44 61.06 15.14M62.50 14.42L66.80 14.42L66.80 12.19L62.50 12.19L62.50 14.42ZM71.06 12.07L71.06 11.45Q71.06 11.16 71.26 10.94Q71.48 10.73 71.78 10.73L78.26 10.73L78.26 15.14Q78.26 15.47 78 15.70L75.38 17.93L75.38 21.27Q75.38 21.58 75.16 21.79Q74.95 22.01 74.66 22.01Q74.35 22.01 74.14 21.79Q73.92 21.58 73.92 21.27L73.92 17.60Q73.92 17.26 74.18 17.03L76.80 14.81L76.80 12.19L72.50 12.19Q72.46 12.45 72.26 12.62Q72.05 12.79 71.78 12.79Q71.48 12.79 71.26 12.59Q71.06 12.38 71.06 12.07ZM81.06 20.55L81.06 17.09Q81.06 16.50 81.48 16.06Q81.91 15.63 82.50 15.63L82.50 11.45Q82.50 11.15 82.71 10.94Q82.91 10.73 83.21 10.73L86.09 10.73Q86.39 10.73 86.60 10.94Q86.80 11.15 86.80 11.45L86.80 15.63Q87.38 15.63 87.81 16.08Q88.26 16.51 88.26 17.09L88.26 20.55Q88.26 21.14 87.81 21.58Q87.38 22.01 86.80 22.01L82.50 22.01Q81.91 22.01 81.48 21.58Q81.06 21.14 81.06 20.55M82.50 20.55L86.80 20.55L86.80 17.09L82.50 17.09L82.50 20.55M83.95 15.63L85.35 15.63L85.35 12.19L83.95 12.19L83.95 15.63ZM91.06 16.98L91.06 16.37Q91.06 16.06 91.26 15.85Q91.48 15.63 91.78 15.63L97.52 15.63Q97.83 15.63 98.04 15.85Q98.26 16.06 98.26 16.37L98.26 16.98Q98.26 17.28 98.04 17.50Q97.83 17.71 97.52 17.71L91.78 17.71Q91.48 17.71 91.26 17.50Q91.06 17.28 91.06 16.98ZM101.06 21.27Q101.06 20.98 101.26 20.77Q101.48 20.55 101.78 20.55L103.92 20.55L103.92 12.19L101.78 12.19Q101.48 12.19 101.26 11.97Q101.06 11.75 101.06 11.45Q101.06 11.16 101.26 10.94Q101.48 10.73 101.78 10.73L105.38 10.73L105.38 20.55L106.80 20.55L106.80 17.60Q106.80 17.29 107.00 17.08Q107.22 16.86 107.52 16.86Q107.83 16.86 108.04 17.08Q108.26 17.29 108.26 17.60L108.26 21.27Q108.26 21.58 108.04 21.79Q107.83 22.01 107.52 22.01L101.78 22.01Q101.48 22.01 101.26 21.79Q101.06 21.58 101.06 21.27ZM111.06 16.98L111.06 16.37Q111.06 16.06 111.26 15.85Q111.48 15.63 111.78 15.63L117.52 15.63Q117.83 15.63 118.04 15.85Q118.26 16.06 118.26 16.37L118.26 16.98Q118.26 17.28 118.04 17.50Q117.83 17.71 117.52 17.71L111.78 17.71Q111.48 17.71 111.26 17.50Q111.06 17.28 111.06 16.98ZM121.06 20.66Q121.06 20.36 121.26 20.16Q121.48 19.94 121.78 19.94Q121.95 19.94 122.07 20.00L123.37 20.55L126.80 20.55L126.80 17.09L122.49 17.09L122.49 10.73L127.52 10.73Q127.83 10.73 128.04 10.94Q128.26 11.16 128.26 11.45Q128.26 11.75 128.04 11.97Q127.83 12.19 127.52 12.19L123.95 12.19L123.95 15.63L126.80 15.63Q127.38 15.63 127.81 16.08Q128.26 16.51 128.26 17.09L128.26 20.55Q128.26 21.14 127.81 21.58Q127.38 22.01 126.80 22.01L123.52 22.01Q123.23 22.01 122.92 21.94Q122.63 21.87 122.44 21.79Q122.26 21.71 121.94 21.56Q121.62 21.40 121.49 21.34Q121.06 21.16 121.06 20.66ZM131.06 21.27L131.06 11.45Q131.06 11.16 131.26 10.94Q131.48 10.73 131.78 10.73L132.50 10.73Q132.81 10.73 133.01 10.94Q133.23 11.16 133.23 11.45Q133.23 11.75 133.01 11.97Q132.81 12.19 132.50 12.19L132.50 16.86L137.52 16.86Q137.83 16.86 138.04 17.08Q138.26 17.29 138.26 17.60L138.26 21.27Q138.26 21.58 138.04 21.79Q137.83 22.01 137.52 22.01L131.78 22.01Q131.48 22.01 131.26 21.79Q131.06 21.58 131.06 21.27M132.50 20.55L136.80 20.55L136.80 18.32L132.50 18.32L132.50 20.55ZM141.06 20.66Q141.06 20.36 141.26 20.16Q141.48 19.94 141.78 19.94Q141.95 19.94 142.07 20.00L143.37 20.55L146.80 20.55L146.80 17.09L142.49 17.09L142.49 10.73L147.52 10.73Q147.83 10.73 148.04 10.94Q148.26 11.16 148.26 11.45Q148.26 11.75 148.04 11.97Q147.83 12.19 147.52 12.19L143.95 12.19L143.95 15.63L146.80 15.63Q147.38 15.63 147.81 16.08Q148.26 16.51 148.26 17.09L148.26 20.55Q148.26 21.14 147.81 21.58Q147.38 22.01 146.80 22.01L143.52 22.01Q143.23 22.01 142.92 21.94Q142.63 21.87 142.44 21.79Q142.26 21.71 141.94 21.56Q141.62 21.40 141.49 21.34Q141.06 21.16 141.06 20.66ZM151.06 20.55L151.06 17.09Q151.06 16.50 151.48 16.06Q151.91 15.63 152.50 15.63L152.50 11.45Q152.50 11.15 152.71 10.94Q152.91 10.73 153.21 10.73L156.09 10.73Q156.39 10.73 156.60 10.94Q156.80 11.15 156.80 11.45L156.80 15.63Q157.38 15.63 157.81 16.08Q158.26 16.51 158.26 17.09L158.26 20.55Q158.26 21.14 157.81 21.58Q157.38 22.01 156.80 22.01L152.50 22.01Q151.91 22.01 151.48 21.58Q151.06 21.14 151.06 20.55M152.50 20.55L156.80 20.55L156.80 17.09L152.50 17.09L152.50 20.55M153.95 15.63L155.35 15.63L155.35 12.19L153.95 12.19L153.95 15.63ZM161.06 21.27Q161.06 20.98 161.26 20.77Q161.48 20.55 161.78 20.55L163.92 20.55L163.92 12.19L161.78 12.19Q161.48 12.19 161.26 11.97Q161.06 11.75 161.06 11.45Q161.06 11.16 161.26 10.94Q161.48 10.73 161.78 10.73L165.38 10.73L165.38 20.55L166.80 20.55L166.80 17.60Q166.80 17.29 167.00 17.08Q167.22 16.86 167.52 16.86Q167.83 16.86 168.04 17.08Q168.26 17.29 168.26 17.60L168.26 21.27Q168.26 21.58 168.04 21.79Q167.83 22.01 167.52 22.01L161.78 22.01Q161.48 22.01 161.26 21.79Q161.06 21.58 161.06 21.27ZM171.06 16.98L171.06 16.37Q171.06 16.06 171.26 15.85Q171.48 15.63 171.78 15.63L177.52 15.63Q177.83 15.63 178.04 15.85Q178.26 16.06 178.26 16.37L178.26 16.98Q178.26 17.28 178.04 17.50Q177.83 17.71 177.52 17.71L171.78 17.71Q171.48 17.71 171.26 17.50Q171.06 17.28 171.06 16.98ZM181.06 22.01L181.06 17.09Q181.06 16.50 181.49 16.08Q181.92 15.64 182.52 15.64L186.80 15.64L186.80 12.19L181.78 12.19Q181.48 12.19 181.26 11.97Q181.06 11.75 181.06 11.45Q181.06 11.16 181.26 10.94Q181.48 10.73 181.78 10.73L186.80 10.73Q187.38 10.73 187.81 11.16Q188.26 11.59 188.26 12.19L188.26 15.64Q188.26 16.22 187.83 16.66Q187.39 17.09 186.80 17.09L182.52 17.09L182.52 20.55L187.52 20.55Q187.83 20.55 188.04 20.77Q188.26 20.98 188.26 21.27Q188.26 21.58 188.04 21.79Q187.83 22.01 187.52 22.01L181.06 22.01ZM191.06 21.27Q191.06 20.98 191.26 20.77Q191.48 20.55 191.78 20.55L196.80 20.55L196.80 17.83Q196.80 17.54 196.57 17.32Q196.35 17.09 196.06 17.09L193.21 17.09Q192.91 17.09 192.69 16.89Q192.49 16.67 192.49 16.37Q192.49 16.06 192.69 15.85Q192.91 15.63 193.21 15.63L196.06 15.63Q196.37 15.63 196.58 15.41Q196.80 15.20 196.80 14.91L196.80 12.19L191.78 12.19Q191.48 12.19 191.26 11.97Q191.06 11.75 191.06 11.45Q191.06 11.16 191.26 10.94Q191.48 10.73 191.78 10.73L196.80 10.73Q197.38 10.73 197.81 11.16Q198.26 11.59 198.26 12.19L198.26 14.91Q198.26 15.75 197.68 16.37Q198.26 16.99 198.26 17.83L198.26 20.55Q198.26 21.14 197.81 21.58Q197.38 22.01 196.80 22.01L191.78 22.01Q191.48 22.01 191.26 21.79Q191.06 21.58 191.06 21.27ZM201.06 21.27Q201.06 20.98 201.26 20.77Q201.48 20.55 201.78 20.55L203.92 20.55L203.92 12.19L201.78 12.19Q201.48 12.19 201.26 11.97Q201.06 11.75 201.06 11.45Q201.06 11.16 201.26 10.94Q201.48 10.73 201.78 10.73L205.38 10.73L205.38 20.55L206.80 20.55L206.80 17.60Q206.80 17.29 207.00 17.08Q207.22 16.86 207.52 16.86Q207.83 16.86 208.04 17.08Q208.26 17.29 208.26 17.60L208.26 21.27Q208.26 21.58 208.04 21.79Q207.83 22.01 207.52 22.01L201.78 22.01Q201.48 22.01 201.26 21.79Q201.06 21.58 201.06 21.27ZM211.06 16.98L211.06 16.37Q211.06 16.06 211.26 15.85Q211.48 15.63 211.78 15.63L217.52 15.63Q217.83 15.63 218.04 15.85Q218.26 16.06 218.26 16.37L218.26 16.98Q218.26 17.28 218.04 17.50Q217.83 17.71 217.52 17.71L211.78 17.71Q211.48 17.71 211.26 17.50Q211.06 17.28 211.06 16.98ZM221.40 18.32L221.40 11.45Q221.40 11.16 221.62 10.94Q221.84 10.73 222.14 10.73Q222.44 10.73 222.65 10.94Q222.86 11.16 222.86 11.45L222.86 16.86L225.71 16.86L225.71 12.68Q225.71 12.38 225.93 12.17Q226.15 11.96 226.45 11.96Q226.74 11.96 226.96 12.17Q227.18 12.38 227.18 12.68L227.18 16.86Q227.48 16.86 227.68 17.08Q227.90 17.29 227.90 17.60Q227.90 17.90 227.68 18.12Q227.48 18.32 227.18 18.32L227.18 21.27Q227.18 21.58 226.96 21.79Q226.74 22.01 226.45 22.01Q226.15 22.01 225.93 21.79Q225.71 21.58 225.71 21.27L225.71 18.32L221.40 18.32Z" fill="#000000"/>
</svg>