<svg xmlns="http://www.w3.org/2000/svg" viewBox="0 0 321 118" width="300" height="80">
<rect width="100%" height="100%" fill="#ffffff"/>
<path stroke="#000000" stroke-width="1" d="M11.50 91L11.50 10M15.50 91L15.50 10M25.50 91L25.50 10M35.50 91L35.50 10M39.50 91L39.50 10M41.50 91L41.50 10M43.50 91L43.50 10M47.50 91L47.50 10M49.50 91L49.50 10M53.50 91L53.50 10M57.50 91L57.50 10M63.50 91L63.50 10M69.50 91L69.50 10M73.50 91L73.50 10M75.50 91L75.50 10M79.50 91L79.50 10M81.50 91L81.50 10M85.50 91L85.50 10M89.50 91L89.50 10M91.50 91L91.50 10M93.50 91L93.50 10M101.50 91L101.50 10M107.50 91L107.50 10M110.50 91L110.50 10M112.50 91L112.50 10M116.50 91L116.50 10M120.50 91L120.50 10M126.50 91L126.50 10M134.50 91L134.50 10M136.50 91L136.50 10M148.50 91L148.50 10M150.50 91L150.50 10M152.50 91L152.50 10M154.50 91L154.50 10M162.50 91L162.50 10M168.50 91L168.50 10M170.50 91L170.50 10M178.50 91L178.50 10M184.50 91L184.50 10M190.50 91L190.50 10M198.50 91L198.50 10M200.50 91L200.50 10M202.50 91L202.50 10M206.50 91L206.50 10M208.50 91L208.50 10M211.50 91L211.50 10M215.50 91L215.50 10M217.50 91L217.50 10M221.50 91L221.50 10M227.50 91L227.50 10M233.50 91L233.50 10M237.50 91L237.50 10M239.50 91L239.50 10M243.50 91L243.50 10M247.50 91L247.50 10M249.50 91L249.50 10M251.50 91L251.50 10M263.50 91L263.50 10M265.50 91L265.50 10M269.50 91L269.50 10M273.50 91L273.50 10M275.50 91L275.50 10M279.50 91L279.50 10M285.50 91L285.50 10M287.50 91L287.50 10M291.50 91L291.50 10M297.50 91L297.50 10M301.50 91L301.50 10M310.50 91L310.50 10"/>
<path stroke="#000000" stroke-width="3" d="M18.50 91L18.50 10M22.50 91L22.50 10M28.50 91L28.50 10M32.50 91L32.50 10M60.50 91L60.50 10M66.50 91L66.50 10M96.50 91L96.50 10M104.50 91L104.50 10M123.50 91L123.50 10M129.50 91L129.50 10M139.50 91L139.50 10M143.50 91L143.50 10M157.50 91L157.50 10M165.50 91L165.50 10M175.50 91L175.50 10M181.50 91L181.50 10M187.50 91L187.50 10M193.50 91L193.50 10M224.50 91L224.50 10M230.50 91L230.50 10M254.50 91L254.50 10M258.50 91L258.50 10M282.50 91L282.50 10M294.50 91L294.50 10M304.50 91L304.50 10M307.50 91L307.50 10"/>
<path d="M11.55 98.26Q11.55 97.95 11.67 97.68Q11.78 97.44 11.92 97.44L13.18 98.33L13.18 95.58Q13.18 95.25 13.29 95.03Q13.40 94.80 13.55 94.80Q13.69 94.80 13.80 95.05Q13.91 95.27 13.91 95.58L13.91 98.33L15.06 97.53L15.06 97.53Q15.11 97.48 15.17 97.48Q15.32 97.48 15.43 97.72Q15.54 97.95 15.54 98.26Q15.54 98.81 15.28 99.00L14.29 99.72L14.94 102.08Q14.98 102.27 14.98 102.48Q14.98 102.81 14.87 103.03Q14.77 103.26 14.61 103.26Q14.45 103.26 14.35 103.07L13.64 100.46L12.73 103.07Q12.64 103.26 12.47 103.26Q12.32 103.26 12.21 103.03Q12.11 102.79 12.11 102.48Q12.11 102.25 12.18 102.01L12.94 99.80L11.81 99.00Q11.55 98.80 11.55 98.26Z" fill="#000000"/>
<path d="M27.80 101.57Q27.75 100.65 27.74 99.56L27.74 99.32Q27.74 98.21 27.79 97.27Q27.85 96.33 27.98 95.43Q28.12 94.54 28.32 93.90Q28.52 93.28 28.83 92.89Q29.13 92.51 29.51 92.48L29.55 92.48Q30.03 92.48 30.40 93.14Q30.77 93.80 30.88 94.85L30.88 95.03Q30.88 95.38 30.77 95.64Q30.66 95.90 30.52 95.90Q30.36 95.90 30.29 95.67Q30.20 95.45 30.14 95.08Q30.06 94.70 29.97 94.53Q29.97 94.53 29.97 94.53Q29.80 94.21 29.57 94.21L29.52 94.21Q28.48 94.33 28.48 99.18L28.48 99.49Q28.48 100.13 28.50 100.64Q28.52 101.14 28.56 101.75Q28.59 102.37 28.67 102.82Q28.74 103.27 28.86 103.67Q28.97 104.07 29.15 104.30Q29.34 104.52 29.57 104.52Q29.79 104.52 29.95 104.26Q30.13 104.00 30.16 103.55Q30.18 103.24 30.28 103.05Q30.39 102.84 30.52 102.84Q30.66 102.84 30.77 103.10Q30.88 103.36 30.88 103.71L30.88 103.88Q30.79 104.92 30.43 105.58Q30.06 106.24 29.57 106.24Q29.16 106.24 28.86 105.88Q28.53 105.51 28.34 104.89Q28.13 104.26 28.00 103.38Q27.86 102.49 27.80 101.57Z" fill="#000000"/>
<path d="M43.72 104.92Q43.19 103.55 43.19 101.43Q43.19 99.30 43.72 97.93Q44.24 96.56 45.14 96.56Q46.02 96.56 46.56 97.93Q47.10 99.32 47.10 101.43Q47.10 103.53 46.56 104.91Q46.03 106.28 45.14 106.28Q44.25 106.28 43.72 104.92M44.24 99.06Q43.92 99.99 43.92 101.43Q43.92 102.88 44.24 103.80Q44.55 104.72 45.14 104.72Q45.74 104.72 46.05 103.80Q46.37 102.88 46.37 101.43Q46.37 99.99 46.05 99.06Q45.73 98.12 45.14 98.12Q44.56 98.12 44.24 99.06Z" fill="#000000"/>
<path d="M75.24 104.54Q74.87 103.26 74.87 101.33Q74.87 99.56 75.25 98.36Q75.63 97.18 76.29 96.78Q76.51 96.64 76.71 96.64Q77.31 96.64 77.88 97.56L77.95 97.67L77.95 93.36Q77.95 93.05 78.05 92.82Q78.17 92.58 78.31 92.58Q78.46 92.58 78.57 92.81Q78.68 93.03 78.68 93.36L78.68 105.43Q78.68 105.77 78.57 106Q78.46 106.23 78.31 106.23Q78.17 106.23 78.06 106Q77.96 105.77 77.95 105.48L77.94 105.31L77.88 105.41Q77.37 106.26 76.73 106.26Q76.51 106.26 76.29 106.16Q75.60 105.81 75.24 104.54M76.12 98.66Q75.60 99.42 75.60 101.33Q75.60 102.70 75.88 103.73Q76.16 104.77 76.65 104.77Q76.88 104.77 77.13 104.52Q77.74 103.97 77.95 102.58L77.95 102.56L77.95 100.25L77.95 100.24Q77.78 99.42 77.44 98.81Q77.11 98.21 76.72 98.21Q76.39 98.21 76.12 98.66Z" fill="#000000"/>
<path d="M107.00 104.33Q106.66 103.05 106.66 101.24Q106.66 99.25 107.17 97.91Q107.67 96.59 108.50 96.56L108.54 96.56Q109.39 96.56 109.86 97.79Q110.34 99.02 110.34 101.02Q110.34 101.33 110.23 101.57Q110.12 101.82 109.98 101.82L107.40 101.82L107.41 101.92Q107.47 103.22 107.77 103.97Q108.06 104.73 108.61 104.73Q108.75 104.73 108.89 104.68Q109.14 104.61 109.30 104.25Q109.40 104.02 109.54 104.02Q109.70 104.02 109.81 104.25Q109.92 104.47 109.92 104.80Q109.92 105.55 109.55 105.90Q109.19 106.26 108.67 106.26Q108.26 106.26 107.95 106.03Q107.33 105.58 107.00 104.33M107.45 100.13L107.44 100.25L109.55 100.25L109.54 100.15Q109.46 99.11 109.23 98.62Q109.00 98.12 108.51 98.12Q107.71 98.12 107.45 100.13Z" fill="#000000"/>
<path d="M138.40 105.48Q138.23 105.20 138.23 104.78Q138.23 104.45 138.34 104.23Q138.45 103.99 138.60 103.99Q138.64 103.99 138.73 104.06Q139.25 104.56 139.82 104.56Q140.44 104.56 140.87 103.90Q141.30 103.22 141.33 101.94L141.33 101.76Q141.33 100.88 141.07 100.25Q140.83 99.65 140.47 99.39Q140.12 99.14 139.69 99.14Q139.55 99.14 139.44 98.92Q139.34 98.67 139.34 98.34Q139.34 98.03 139.41 97.86L140.91 94.32L138.62 94.32Q138.47 94.32 138.36 94.09Q138.25 93.85 138.25 93.52Q138.25 93.19 138.36 92.96Q138.47 92.74 138.62 92.74L141.49 92.74Q141.64 92.74 141.74 92.98Q141.86 93.21 141.86 93.52L141.86 94.14Q141.86 94.42 141.74 94.66L140.43 97.74L140.50 97.77Q141.19 98.15 141.63 99.18Q142.06 100.20 142.06 101.75L142.06 102.02Q142.02 103.92 141.37 105.03Q140.74 106.14 139.82 106.14Q139.60 106.14 139.37 106.09Q139.14 106.03 138.86 105.91Q138.57 105.77 138.40 105.48Z" fill="#000000"/>
<path d="M155.16 95.08Q154.80 95.91 154.80 97.08Q154.80 98.21 155.14 98.92Q155.47 99.61 156.02 99.61Q156.99 99.61 157.16 98.34Q157.24 97.77 157.24 97.08Q157.24 95.78 156.90 95.01Q156.57 94.23 156.02 94.23Q155.51 94.23 155.16 95.08M154.62 99.99Q154.07 98.83 154.07 97.08Q154.07 95.27 154.65 93.97Q155.22 92.67 156.02 92.67Q156.84 92.67 157.41 93.88Q157.98 95.10 157.98 97.08Q157.98 98.31 157.80 99.30Q157.63 100.29 157.32 101.43Q156.65 103.95 155.67 105.88Q155.57 106.09 155.44 106.09Q155.31 106.09 155.20 105.86Q155.09 105.64 155.09 105.31Q155.09 104.98 155.21 104.73Q155.98 103.15 156.53 101.24L156.58 101.07L156.49 101.10Q156.28 101.17 156.02 101.17Q155.16 101.17 154.62 99.99Z" fill="#000000"/>
<path d="M186.23 105.65Q186.12 105.39 186.12 105.03L186.12 93.62Q186.12 93.26 186.23 93.00Q186.33 92.75 186.49 92.75L189.19 92.75Q189.35 92.75 189.45 93.00Q189.56 93.26 189.56 93.62Q189.56 93.99 189.44 94.25Q189.34 94.49 189.19 94.49L186.85 94.49L186.85 98.17L188.80 98.17Q188.95 98.17 189.05 98.43Q189.17 98.69 189.17 99.06Q189.17 99.40 189.06 99.66Q188.95 99.91 188.80 99.91L186.85 99.91L186.85 104.16L189.19 104.16Q189.35 104.16 189.45 104.40Q189.56 104.66 189.56 105.03Q189.56 105.39 189.44 105.65Q189.34 105.90 189.19 105.90L186.49 105.90Q186.34 105.90 186.23 105.65Z" fill="#000000"/>
<path d="M201.97 105.98Q201.86 105.74 201.86 105.43Q201.86 105.18 201.93 104.96L203.07 101.38L202.02 97.95Q201.96 97.74 201.96 97.49Q201.96 97.16 202.07 96.94Q202.18 96.70 202.33 96.70Q202.52 96.70 202.59 96.90L203.54 100.05L204.49 96.90Q204.60 96.70 204.75 96.70Q204.90 96.70 205.01 96.94Q205.12 97.18 205.12 97.49Q205.12 97.74 205.06 97.95L204.00 101.38L205.14 104.96Q205.22 105.20 205.22 105.43Q205.22 105.74 205.10 105.98Q205.00 106.23 204.85 106.23Q204.66 106.23 204.58 106.02L203.54 102.70L202.49 106.02Q202.39 106.23 202.23 106.23Q202.08 106.23 201.97 105.98Z" fill="#000000"/>
<path d="M233.49 98.24Q233.38 98.00 233.38 97.68Q233.38 97.35 233.49 97.13Q233.60 96.89 233.75 96.89L234.41 96.89L234.42 95.01Q234.42 94.66 234.52 94.46Q234.63 94.23 234.77 94.23Q234.92 94.23 235.02 94.47Q235.11 94.70 235.11 95.01L235.10 96.89L236.32 96.89Q236.47 96.89 236.57 97.13Q236.68 97.37 236.68 97.68Q236.68 98.00 236.57 98.24Q236.47 98.48 236.32 98.48L235.09 98.48L235.07 102.60Q235.07 103.05 235.07 103.27Q235.07 103.48 235.10 103.81Q235.13 104.14 235.18 104.30Q235.24 104.44 235.34 104.56Q235.46 104.66 235.62 104.66L235.64 104.66Q235.77 104.66 235.99 104.49Q236.21 104.32 236.32 104.32Q236.47 104.32 236.57 104.56Q236.68 104.78 236.68 105.10Q236.68 105.65 236.40 105.93Q236.10 106.23 235.68 106.23Q235.33 106.23 235.08 106.02Q234.70 105.69 234.54 104.89Q234.37 104.07 234.37 102.75L234.37 102.55L234.40 98.47L233.75 98.47Q233.60 98.47 233.49 98.24Z" fill="#000000"/>
<path d="M266.43 106.40L266.43 105.60Q266.43 105.29 266.53 105.06Q266.65 104.82 266.79 104.82L267.17 104.82Q267.31 104.82 267.42 105.06Q267.53 105.29 267.53 105.60L267.53 106.40Q267.53 106.71 267.42 106.95Q267.31 107.18 267.17 107.18L266.79 107.18Q266.65 107.18 266.53 106.95Q266.43 106.71 266.43 106.40M266.61 100.29L266.61 93.50Q266.61 93.17 266.72 92.95Q266.83 92.72 266.98 92.72Q267.13 92.72 267.23 92.96Q267.35 93.19 267.35 93.50L267.35 100.29Q267.35 100.60 267.24 100.84Q267.14 101.07 266.98 101.07Q266.83 101.07 266.72 100.84Q266.61 100.62 266.61 100.29Z" fill="#000000"/>
<path d="M296.67 98.26Q296.67 97.95 296.78 97.68Q296.89 97.44 297.03 97.44L298.29 98.33L298.29 95.58Q298.29 95.25 298.40 95.03Q298.51 94.80 298.66 94.80Q298.81 94.80 298.91 95.05Q299.03 95.27 299.03 95.58L299.03 98.33L300.17 97.53L300.17 97.53Q300.22 97.48 300.29 97.48Q300.43 97.48 300.54 97.72Q300.65 97.95 300.65 98.26Q300.65 98.81 300.39 99.00L299.40 99.72L300.05 102.08Q300.09 102.27 300.09 102.48Q300.09 102.81 299.99 103.03Q299.88 103.26 299.73 103.26Q299.56 103.26 299.47 103.07L298.76 100.46L297.85 103.07Q297.75 103.26 297.59 103.26Q297.43 103.26 297.33 103.03Q297.22 102.79 297.22 102.48Q297.22 102.25 297.29 102.01L298.06 99.80L296.92 99.00Q296.67 98.80 296.67 98.26Z" fill="#000000"/>
</svg>