<svg xmlns="http://www.w3.org/2000/svg" viewBox="0 0 280 101" width="260" height="80">
<rect width="100%" height="100%" fill="#ffffff"/>
<path stroke="#000000" stroke-width="1" d="M10.50 91L10.50 10M29.50 91L29.50 10M32.50 91L32.50 10M50.50 91L50.50 10M59.50 91L59.50 10M66.50 91L66.50 10M79.50 91L79.50 10M85.50 91L85.50 10M97.50 91L97.50 10M122.50 91L122.50 10M125.50 91L125.50 10M151.50 91L151.50 10M160.50 91L160.50 10M178.50 91L178.50 10M181.50 91L181.50 10M185.50 91L185.50 10M203.50 91L203.50 10M210.50 91L210.50 10M225.50 91L225.50 10M251.50 91L251.50 10M268.50 91L268.50 10"/>
<path stroke="#000000" stroke-width="4" d="M16 91L16 10M55 91L55 10M115 91L115 10M156 91L156 10M196 91L196 10M243 91L243 10M258 91L258 10"/>
<path stroke="#000000" stroke-width="3" d="M25.50 91L25.50 10M69.50 91L69.50 10M76.50 91L76.50 10M94.50 91L94.50 10M128.50 91L128.50 10M188.50 91L188.50 10M215.50 91L215.50 10M222.50 91L222.50 10M248.50 91L248.50 10M265.50 91L265.50 10"/>
<path stroke="#000000" stroke-width="11" d="M39.50 91L39.50 10M232.50 91L232.50 10"/>
<path stroke="#000000" stroke-width="8" d="M104 91L104 10M169 91L169 10"/>
<path stroke="#000000" stroke-width="5" d="M136.50 91L136.50 10M144.50 91L144.50 10"/>
</svg>