<svg xmlns="http://www.w3.org/2000/svg" viewBox="0 0 282 117" width="260" height="80">
<rect width="100%" height="100%" fill="#ffffff"/>
<path stroke="#000000" stroke-width="3" d="M11.50 91L11.50 10M42.50 91L42.50 10M47.50 91L47.50 10M51.50 91L51.50 10M57.50 91L57.50 10M72.50 91L72.50 10M90.50 91L90.50 10M110.50 91L110.50 10M126.50 91L126.50 10M132.50 91L132.50 10M139.50 91L139.50 10M143.50 91L143.50 10M152.50 91L152.50 10M163.50 91L163.50 10M167.50 91L167.50 10M174.50 91L174.50 10M186.50 91L186.50 10M193.50 91L193.50 10M197.50 91L197.50 10M203.50 91L203.50 10M208.50 91L208.50 10M214.50 91L214.50 10M218.50 91L218.50 10M229.50 91L229.50 10M253.50 91L253.50 10M269.50 91L269.50 10"/>
<path stroke="#000000" stroke-width="2" d="M16 91L16 10M34 91L34 10M63 91L63 10M67 91L67 10M85 91L85 10M87 91L87 10M102 91L102 10M108 91L108 10M123 91L123 10M148 91L148 10M178 91L178 10M182 91L182 10M251 91L251 10M266 91L266 10"/>
<path stroke="#000000" stroke-width="4" d="M21 91L21 10M38 91L38 10M78 91L78 10M97 91L97 10M119 91L119 10M157 91L157 10M225 91L225 10M235 91L235 10M247 91L247 10M262 91L262 10"/>
<path stroke="#000000" stroke-width="6" d="M29 91L29 10M241 91L241 10"/>
<path d="M23.96 99.56L23.96 99.46Q24.00 95.29 26.41 92.81Q26.54 92.67 26.70 92.67Q26.91 92.67 27.07 92.89Q27.23 93.12 27.23 93.45Q27.23 93.85 27.00 94.09Q26.08 94.98 25.56 96.26Q25.03 97.56 25.02 99.46L25.02 99.54Q25.02 102.84 27.00 104.70Q27.23 104.94 27.23 105.36Q27.23 105.69 27.07 105.91Q26.91 106.14 26.70 106.14Q26.54 106.14 26.41 106.02Q23.96 103.59 23.96 99.56ZM33.09 106.14L33.05 106.14Q32.35 106.12 31.83 105.79Q31.32 105.48 31.01 104.98Q30.71 104.45 30.53 103.64Q30.34 102.82 30.28 101.99Q30.22 101.17 30.22 100.06Q30.22 99.07 30.24 98.38Q30.26 97.67 30.33 96.85Q30.40 96.02 30.52 95.46Q30.65 94.89 30.86 94.32Q31.07 93.76 31.36 93.43Q31.66 93.10 32.08 92.89Q32.50 92.68 33.05 92.68Q33.57 92.68 34.00 92.89Q34.42 93.10 34.71 93.43Q35.01 93.76 35.23 94.32Q35.44 94.89 35.56 95.46Q35.69 96.04 35.76 96.85Q35.83 97.67 35.84 98.38Q35.87 99.09 35.87 100.06Q35.87 100.76 35.84 101.33Q35.82 101.89 35.74 102.55Q35.67 103.21 35.55 103.71Q35.43 104.19 35.21 104.66Q34.98 105.13 34.70 105.44Q34.42 105.76 34.01 105.95Q33.60 106.14 33.09 106.14M31.28 98.64L31.28 100.06Q31.28 100.84 31.31 101.40Q31.34 101.96 31.45 102.60Q31.54 103.24 31.73 103.64Q31.92 104.06 32.25 104.33Q32.58 104.59 33.05 104.59L33.29 104.59Q33.62 104.59 33.88 104.40Q34.14 104.19 34.29 103.81Q34.46 103.45 34.56 103.03Q34.67 102.60 34.71 102.06Q34.77 101.50 34.78 101.05Q34.81 100.60 34.81 100.06L34.81 99.26Q34.81 98.73 34.80 98.41Q34.80 98.08 34.78 97.60Q34.77 97.09 34.74 96.82Q34.70 96.52 34.64 96.12Q34.59 95.72 34.49 95.48Q34.40 95.24 34.27 94.98Q34.13 94.72 33.96 94.58Q33.79 94.42 33.55 94.33Q33.33 94.25 33.05 94.25Q32.75 94.25 32.52 94.35Q32.29 94.44 32.12 94.61Q31.94 94.79 31.80 95.05Q31.67 95.29 31.58 95.60Q31.48 95.90 31.42 96.26Q31.36 96.61 31.34 97.01Q31.32 97.39 31.29 97.81Q31.28 98.21 31.28 98.64ZM38.74 96.73Q38.59 96.49 38.59 96.17Q38.59 95.81 38.74 95.64L40.89 92.91Q41.05 92.72 41.23 92.72L41.61 92.72Q41.82 92.72 41.97 92.96Q42.14 93.19 42.14 93.50L42.14 105.31Q42.14 105.62 41.97 105.86Q41.82 106.09 41.61 106.09Q41.40 106.09 41.23 105.86Q41.08 105.64 41.08 105.31L41.08 94.73L39.47 96.76Q39.32 96.96 39.12 96.96Q38.89 96.96 38.74 96.73ZM47.08 105.36Q47.08 104.94 47.32 104.70Q49.30 102.79 49.30 99.46Q49.30 96.09 47.32 94.09L47.31 94.07Q47.22 94.04 47.15 93.83Q47.08 93.62 47.08 93.45Q47.08 93.14 47.24 92.91Q47.40 92.67 47.61 92.67Q47.78 92.67 47.91 92.81Q50.36 95.31 50.36 99.46Q50.36 103.55 47.91 106.02Q47.78 106.14 47.61 106.14Q47.40 106.14 47.24 105.91Q47.08 105.67 47.08 105.36ZM57.09 106.14L57.05 106.14Q56.35 106.12 55.83 105.79Q55.32 105.48 55.01 104.98Q54.71 104.45 54.53 103.64Q54.34 102.82 54.28 101.99Q54.22 101.17 54.22 100.06Q54.22 99.07 54.24 98.38Q54.26 97.67 54.33 96.85Q54.40 96.02 54.52 95.46Q54.65 94.89 54.86 94.32Q55.07 93.76 55.36 93.43Q55.66 93.10 56.08 92.89Q56.50 92.68 57.05 92.68Q57.57 92.68 58.00 92.89Q58.42 93.10 58.71 93.43Q59.01 93.76 59.23 94.32Q59.44 94.89 59.56 95.46Q59.69 96.04 59.76 96.85Q59.83 97.67 59.84 98.38Q59.87 99.09 59.87 100.06Q59.87 100.76 59.84 101.33Q59.82 101.89 59.74 102.55Q59.67 103.21 59.55 103.71Q59.43 104.19 59.21 104.66Q58.98 105.13 58.70 105.44Q58.42 105.76 58.01 105.95Q57.60 106.14 57.09 106.14M55.28 98.64L55.28 100.06Q55.28 100.84 55.31 101.40Q55.34 101.96 55.45 102.60Q55.54 103.24 55.73 103.64Q55.92 104.06 56.25 104.33Q56.58 104.59 57.05 104.59L57.29 104.59Q57.62 104.59 57.88 104.40Q58.14 104.19 58.29 103.81Q58.46 103.45 58.56 103.03Q58.67 102.60 58.71 102.06Q58.77 101.50 58.78 101.05Q58.81 100.60 58.81 100.06L58.81 99.26Q58.81 98.73 58.80 98.41Q58.80 98.08 58.78 97.60Q58.77 97.09 58.74 96.82Q58.70 96.52 58.64 96.12Q58.59 95.72 58.49 95.48Q58.40 95.24 58.27 94.98Q58.13 94.72 57.96 94.58Q57.79 94.42 57.55 94.33Q57.33 94.25 57.05 94.25Q56.75 94.25 56.52 94.35Q56.29 94.44 56.12 94.61Q55.94 94.79 55.80 95.05Q55.67 95.29 55.58 95.60Q55.48 95.90 55.42 96.26Q55.36 96.61 55.34 97.01Q55.32 97.39 55.29 97.81Q55.28 98.21 55.28 98.64ZM63.80 95.08Q63.28 95.91 63.28 97.08Q63.28 98.21 63.78 98.92Q64.25 99.61 65.05 99.61Q66.44 99.61 66.69 98.34Q66.81 97.77 66.81 97.08Q66.81 95.78 66.31 95.01Q65.83 94.23 65.05 94.23Q64.30 94.23 63.80 95.08M63.02 99.99Q62.22 98.83 62.22 97.08Q62.22 95.27 63.07 93.97Q63.89 92.67 65.05 92.67Q66.23 92.67 67.04 93.88Q67.87 95.10 67.87 97.08Q67.87 98.31 67.62 99.30Q67.37 100.29 66.93 101.43Q65.95 103.95 64.54 105.88Q64.39 106.09 64.21 106.09Q64.01 106.09 63.86 105.86Q63.71 105.64 63.71 105.31Q63.71 104.98 63.87 104.73Q64.99 103.15 65.79 101.24L65.84 101.07L65.73 101.10Q65.42 101.17 65.05 101.17Q63.80 101.17 63.02 99.99ZM70.68 105.91Q70.53 105.69 70.53 105.36Q70.53 105.01 70.68 104.78Q70.85 104.56 71.06 104.56Q73.43 104.56 74.13 102.60Q74.34 102.01 74.34 101.47Q74.34 100.20 73.94 99.56Q73.41 98.64 72.08 98.64Q71.72 98.64 71.34 98.69L71.29 98.69Q71.08 98.69 70.92 98.48Q70.76 98.26 70.76 97.95L70.76 97.89L70.93 93.47Q70.95 93.15 71.09 92.95Q71.25 92.74 71.46 92.74L74.80 92.74Q75.02 92.74 75.17 92.98Q75.33 93.21 75.33 93.52Q75.33 93.83 75.16 94.07Q75.01 94.32 74.80 94.32L71.95 94.32L71.86 97.04L72.08 97.04Q73.57 97.04 74.48 98.17Q75.40 99.28 75.40 101.47Q75.40 102.39 75.13 103.19Q74.84 104.00 74.42 104.58Q73.29 106.14 71.06 106.14Q70.85 106.14 70.68 105.91M71.33 98.69Q71.33 98.69 71.34 98.69Q71.34 98.69 71.33 98.69ZM78.58 94.91Q78.42 94.66 78.42 94.37Q78.42 93.93 78.65 93.71Q79.72 92.67 81.05 92.67Q82.11 92.67 82.83 93.67Q83.56 94.66 83.56 96.28Q83.56 96.92 83.41 97.51Q83.25 98.12 83.06 98.50Q82.87 98.88 82.49 99.35Q82.11 99.82 81.92 100.03Q81.73 100.24 81.32 100.64Q80.87 101.07 80.67 101.30Q80.47 101.52 80.19 101.97Q79.91 102.41 79.78 102.96Q79.65 103.50 79.62 104.25L79.62 104.33L83.10 104.33Q83.33 104.33 83.48 104.58Q83.63 104.80 83.63 105.11Q83.63 105.43 83.47 105.67Q83.31 105.90 83.10 105.90L79.08 105.90Q78.87 105.90 78.71 105.67Q78.55 105.43 78.55 105.11L78.55 104.75Q78.55 103.40 78.67 102.81Q78.87 101.76 79.42 100.95Q79.98 100.12 80.77 99.32Q81.88 98.22 82.17 97.60Q82.50 96.97 82.50 96.28Q82.50 95.36 82.07 94.79Q81.66 94.23 81.05 94.23Q79.99 94.23 79.26 94.99Q79.13 95.13 78.95 95.13Q78.74 95.13 78.58 94.91ZM86.74 96.73Q86.59 96.49 86.59 96.17Q86.59 95.81 86.74 95.64L88.89 92.91Q89.05 92.72 89.23 92.72L89.61 92.72Q89.82 92.72 89.97 92.96Q90.14 93.19 90.14 93.50L90.14 105.31Q90.14 105.62 89.97 105.86Q89.82 106.09 89.61 106.09Q89.40 106.09 89.23 105.86Q89.08 105.64 89.08 105.31L89.08 94.73L87.47 96.76Q87.32 96.96 87.12 96.96Q86.89 96.96 86.74 96.73ZM94.58 94.91Q94.42 94.66 94.42 94.37Q94.42 93.93 94.65 93.71Q95.72 92.67 97.05 92.67Q98.11 92.67 98.83 93.67Q99.56 94.66 99.56 96.28Q99.56 96.92 99.41 97.51Q99.25 98.12 99.06 98.50Q98.87 98.88 98.49 99.35Q98.11 99.82 97.92 100.03Q97.73 100.24 97.32 100.64Q96.87 101.07 96.67 101.30Q96.47 101.52 96.19 101.97Q95.91 102.41 95.78 102.96Q95.65 103.50 95.62 104.25L95.62 104.33L99.10 104.33Q99.33 104.33 99.48 104.58Q99.63 104.80 99.63 105.11Q99.63 105.43 99.47 105.67Q99.31 105.90 99.10 105.90L95.08 105.90Q94.87 105.90 94.71 105.67Q94.55 105.43 94.55 105.11L94.55 104.75Q94.55 103.40 94.67 102.81Q94.87 101.76 95.42 100.95Q95.98 100.12 96.77 99.32Q97.88 98.22 98.17 97.60Q98.50 96.97 98.50 96.28Q98.50 95.36 98.07 94.79Q97.66 94.23 97.05 94.23Q95.99 94.23 95.26 94.99Q95.13 95.13 94.95 95.13Q94.74 95.13 94.58 94.91ZM102.47 105.48Q102.22 105.20 102.22 104.78Q102.22 104.45 102.38 104.23Q102.54 103.99 102.75 103.99Q102.82 103.99 102.95 104.06Q103.71 104.56 104.53 104.56Q105.42 104.56 106.03 103.90Q106.66 103.22 106.70 101.94L106.70 101.76Q106.70 100.88 106.33 100.25Q105.97 99.65 105.46 99.39Q104.95 99.14 104.33 99.14Q104.13 99.14 103.98 98.92Q103.82 98.67 103.82 98.34Q103.82 98.03 103.93 97.86L106.09 94.32L102.79 94.32Q102.58 94.32 102.41 94.09Q102.26 93.85 102.26 93.52Q102.26 93.19 102.41 92.96Q102.57 92.74 102.79 92.74L106.94 92.74Q107.15 92.74 107.30 92.98Q107.47 93.21 107.47 93.52L107.47 94.14Q107.47 94.42 107.30 94.66L105.41 97.74L105.50 97.77Q106.50 98.15 107.14 99.18Q107.76 100.20 107.76 101.75L107.76 102.02Q107.70 103.92 106.76 105.03Q105.84 106.14 104.53 106.14Q104.20 106.14 103.87 106.09Q103.54 106.03 103.13 105.91Q102.72 105.77 102.47 105.48ZM110.38 102.84Q110.22 102.61 110.22 102.28L110.22 101.54Q110.22 101.40 110.28 101.21L112.79 93.17Q112.83 92.98 112.96 92.86Q113.09 92.72 113.23 92.72Q113.44 92.72 113.60 92.96Q113.75 93.19 113.75 93.50Q113.75 93.67 113.69 93.83L111.34 101.50L113.63 101.50L113.63 99.40Q113.63 99.09 113.79 98.87Q113.94 98.62 114.14 98.62Q114.34 98.62 114.49 98.87Q114.66 99.09 114.66 99.40L114.66 101.50L115.34 101.50Q115.56 101.50 115.71 101.75Q115.87 101.97 115.87 102.28Q115.87 102.60 115.70 102.84Q115.55 103.07 115.34 103.07L114.66 103.07L114.66 105.31Q114.66 105.62 114.49 105.84Q114.34 106.09 114.14 106.09Q113.94 106.09 113.79 105.86Q113.63 105.62 113.63 105.31L113.63 103.07L110.75 103.07Q110.54 103.07 110.38 102.84ZM118.68 105.91Q118.53 105.69 118.53 105.36Q118.53 105.01 118.68 104.78Q118.85 104.56 119.06 104.56Q121.43 104.56 122.13 102.60Q122.34 102.01 122.34 101.47Q122.34 100.20 121.94 99.56Q121.41 98.64 120.08 98.64Q119.72 98.64 119.34 98.69L119.29 98.69Q119.08 98.69 118.92 98.48Q118.76 98.26 118.76 97.95L118.76 97.89L118.93 93.47Q118.95 93.15 119.09 92.95Q119.25 92.74 119.46 92.74L122.80 92.74Q123.02 92.74 123.17 92.98Q123.33 93.21 123.33 93.52Q123.33 93.83 123.16 94.07Q123.01 94.32 122.80 94.32L119.95 94.32L119.86 97.04L120.08 97.04Q121.57 97.04 122.48 98.17Q123.40 99.28 123.40 101.47Q123.40 102.39 123.13 103.19Q122.84 104.00 122.42 104.58Q121.29 106.14 119.06 106.14Q118.85 106.14 118.68 105.91M119.33 98.69Q119.33 98.69 119.34 98.69Q119.34 98.69 119.33 98.69ZM126.38 102.84Q126.22 102.61 126.22 102.28L126.22 101.54Q126.22 101.40 126.28 101.21L128.79 93.17Q128.83 92.98 128.96 92.86Q129.09 92.72 129.23 92.72Q129.44 92.72 129.60 92.96Q129.75 93.19 129.75 93.50Q129.75 93.67 129.69 93.83L127.34 101.50L129.63 101.50L129.63 99.40Q129.63 99.09 129.79 98.87Q129.94 98.62 130.14 98.62Q130.34 98.62 130.49 98.87Q130.66 99.09 130.66 99.40L130.66 101.50L131.34 101.50Q131.56 101.50 131.71 101.75Q131.87 101.97 131.87 102.28Q131.87 102.60 131.70 102.84Q131.55 103.07 131.34 103.07L130.66 103.07L130.66 105.31Q130.66 105.62 130.49 105.84Q130.34 106.09 130.14 106.09Q129.94 106.09 129.79 105.86Q129.63 105.62 129.63 105.31L129.63 103.07L126.75 103.07Q126.54 103.07 126.38 102.84ZM134.47 105.48Q134.22 105.20 134.22 104.78Q134.22 104.45 134.38 104.23Q134.54 103.99 134.75 103.99Q134.82 103.99 134.95 104.06Q135.71 104.56 136.53 104.56Q137.42 104.56 138.03 103.90Q138.66 103.22 138.70 101.94L138.70 101.76Q138.70 100.88 138.33 100.25Q137.97 99.65 137.46 99.39Q136.95 99.14 136.33 99.14Q136.13 99.14 135.98 98.92Q135.82 98.67 135.82 98.34Q135.82 98.03 135.93 97.86L138.09 94.32L134.79 94.32Q134.58 94.32 134.41 94.09Q134.26 93.85 134.26 93.52Q134.26 93.19 134.41 92.96Q134.57 92.74 134.79 92.74L138.94 92.74Q139.15 92.74 139.30 92.98Q139.47 93.21 139.47 93.52L139.47 94.14Q139.47 94.42 139.30 94.66L137.41 97.74L137.50 97.77Q138.50 98.15 139.14 99.18Q139.76 100.20 139.76 101.75L139.76 102.02Q139.70 103.92 138.76 105.03Q137.84 106.14 136.53 106.14Q136.20 106.14 135.87 106.09Q135.54 106.03 135.13 105.91Q134.72 105.77 134.47 105.48ZM142.58 94.91Q142.42 94.66 142.42 94.37Q142.42 93.93 142.65 93.71Q143.72 92.67 145.05 92.67Q146.11 92.67 146.83 93.67Q147.56 94.66 147.56 96.28Q147.56 96.92 147.41 97.51Q147.25 98.12 147.06 98.50Q146.87 98.88 146.49 99.35Q146.11 99.82 145.92 100.03Q145.73 100.24 145.32 100.64Q144.87 101.07 144.67 101.30Q144.47 101.52 144.19 101.97Q143.91 102.41 143.78 102.96Q143.65 103.50 143.62 104.25L143.62 104.33L147.10 104.33Q147.33 104.33 147.48 104.58Q147.63 104.80 147.63 105.11Q147.63 105.43 147.47 105.67Q147.31 105.90 147.10 105.90L143.08 105.90Q142.87 105.90 142.71 105.67Q142.55 105.43 142.55 105.11L142.55 104.75Q142.55 103.40 142.67 102.81Q142.87 101.76 143.42 100.95Q143.98 100.12 144.77 99.32Q145.88 98.22 146.17 97.60Q146.50 96.97 146.50 96.28Q146.50 95.36 146.07 94.79Q145.66 94.23 145.05 94.23Q143.99 94.23 143.26 94.99Q143.13 95.13 142.95 95.13Q142.74 95.13 142.58 94.91ZM150.74 96.73Q150.59 96.49 150.59 96.17Q150.59 95.81 150.74 95.64L152.89 92.91Q153.05 92.72 153.23 92.72L153.61 92.72Q153.82 92.72 153.97 92.96Q154.14 93.19 154.14 93.50L154.14 105.31Q154.14 105.62 153.97 105.86Q153.82 106.09 153.61 106.09Q153.40 106.09 153.23 105.86Q153.08 105.64 153.08 105.31L153.08 94.73L151.47 96.76Q151.32 96.96 151.12 96.96Q150.89 96.96 150.74 96.73ZM158.47 105.48Q158.22 105.20 158.22 104.78Q158.22 104.45 158.38 104.23Q158.54 103.99 158.75 103.99Q158.82 103.99 158.95 104.06Q159.71 104.56 160.53 104.56Q161.42 104.56 162.03 103.90Q162.66 103.22 162.70 101.94L162.70 101.76Q162.70 100.88 162.33 100.25Q161.97 99.65 161.46 99.39Q160.95 99.14 160.33 99.14Q160.13 99.14 159.98 98.92Q159.82 98.67 159.82 98.34Q159.82 98.03 159.93 97.86L162.09 94.32L158.79 94.32Q158.58 94.32 158.41 94.09Q158.26 93.85 158.26 93.52Q158.26 93.19 158.41 92.96Q158.57 92.74 158.79 92.74L162.94 92.74Q163.15 92.74 163.30 92.98Q163.47 93.21 163.47 93.52L163.47 94.14Q163.47 94.42 163.30 94.66L161.41 97.74L161.50 97.77Q162.50 98.15 163.14 99.18Q163.76 100.20 163.76 101.75L163.76 102.02Q163.70 103.92 162.76 105.03Q161.84 106.14 160.53 106.14Q160.20 106.14 159.87 106.09Q159.54 106.03 159.13 105.91Q158.72 105.77 158.47 105.48ZM167.96 99.56L167.96 99.46Q168.00 95.29 170.41 92.81Q170.54 92.67 170.70 92.67Q170.91 92.67 171.07 92.89Q171.23 93.12 171.23 93.45Q171.23 93.85 171.00 94.09Q170.08 94.98 169.56 96.26Q169.03 97.56 169.02 99.46L169.02 99.54Q169.02 102.84 171.00 104.70Q171.23 104.94 171.23 105.36Q171.23 105.69 171.07 105.91Q170.91 106.14 170.70 106.14Q170.54 106.14 170.41 106.02Q167.96 103.59 167.96 99.56ZM174.47 105.48Q174.22 105.20 174.22 104.78Q174.22 104.45 174.38 104.23Q174.54 103.99 174.75 103.99Q174.82 103.99 174.95 104.06Q175.71 104.56 176.53 104.56Q177.42 104.56 178.03 103.90Q178.66 103.22 178.70 101.94L178.70 101.76Q178.70 100.88 178.33 100.25Q177.97 99.65 177.46 99.39Q176.95 99.14 176.33 99.14Q176.13 99.14 175.98 98.92Q175.82 98.67 175.82 98.34Q175.82 98.03 175.93 97.86L178.09 94.32L174.79 94.32Q174.58 94.32 174.41 94.09Q174.26 93.85 174.26 93.52Q174.26 93.19 174.41 92.96Q174.57 92.74 174.79 92.74L178.94 92.74Q179.15 92.74 179.30 92.98Q179.47 93.21 179.47 93.52L179.47 94.14Q179.47 94.42 179.30 94.66L177.41 97.74L177.50 97.77Q178.50 98.15 179.14 99.18Q179.76 100.20 179.76 101.75L179.76 102.02Q179.70 103.92 178.76 105.03Q177.84 106.14 176.53 106.14Q176.20 106.14 175.87 106.09Q175.54 106.03 175.13 105.91Q174.72 105.77 174.47 105.48ZM182.74 96.73Q182.59 96.49 182.59 96.17Q182.59 95.81 182.74 95.64L184.89 92.91Q185.05 92.72 185.23 92.72L185.61 92.72Q185.82 92.72 185.97 92.96Q186.14 93.19 186.14 93.50L186.14 105.31Q186.14 105.62 185.97 105.86Q185.82 106.09 185.61 106.09Q185.40 106.09 185.23 105.86Q185.08 105.64 185.08 105.31L185.08 94.73L183.47 96.76Q183.32 96.96 183.12 96.96Q182.89 96.96 182.74 96.73ZM193.09 106.14L193.05 106.14Q192.35 106.12 191.83 105.79Q191.32 105.48 191.01 104.98Q190.71 104.45 190.53 103.64Q190.34 102.82 190.28 101.99Q190.22 101.17 190.22 100.06Q190.22 99.07 190.24 98.38Q190.26 97.67 190.33 96.85Q190.40 96.02 190.52 95.46Q190.65 94.89 190.86 94.32Q191.07 93.76 191.36 93.43Q191.66 93.10 192.08 92.89Q192.50 92.68 193.05 92.68Q193.57 92.68 194.00 92.89Q194.42 93.10 194.71 93.43Q195.01 93.76 195.23 94.32Q195.44 94.89 195.56 95.46Q195.69 96.04 195.76 96.85Q195.83 97.67 195.84 98.38Q195.87 99.09 195.87 100.06Q195.87 100.76 195.84 101.33Q195.82 101.89 195.74 102.55Q195.67 103.21 195.55 103.71Q195.43 104.19 195.21 104.66Q194.98 105.13 194.70 105.44Q194.42 105.76 194.01 105.95Q193.60 106.14 193.09 106.14M191.28 98.64L191.28 100.06Q191.28 100.84 191.31 101.40Q191.34 101.96 191.45 102.60Q191.54 103.24 191.73 103.64Q191.92 104.06 192.25 104.33Q192.58 104.59 193.05 104.59L193.29 104.59Q193.62 104.59 193.88 104.40Q194.14 104.19 194.29 103.81Q194.46 103.45 194.56 103.03Q194.67 102.60 194.71 102.06Q194.77 101.50 194.78 101.05Q194.81 100.60 194.81 100.06L194.81 99.26Q194.81 98.73 194.80 98.41Q194.80 98.08 194.78 97.60Q194.77 97.09 194.74 96.82Q194.70 96.52 194.64 96.12Q194.59 95.72 194.49 95.48Q194.40 95.24 194.27 94.98Q194.13 94.72 193.96 94.58Q193.79 94.42 193.55 94.33Q193.33 94.25 193.05 94.25Q192.75 94.25 192.52 94.35Q192.29 94.44 192.12 94.61Q191.94 94.79 191.80 95.05Q191.67 95.29 191.58 95.60Q191.48 95.90 191.42 96.26Q191.36 96.61 191.34 97.01Q191.32 97.39 191.29 97.81Q191.28 98.21 191.28 98.64ZM198.47 105.48Q198.22 105.20 198.22 104.78Q198.22 104.45 198.38 104.23Q198.54 103.99 198.75 103.99Q198.82 103.99 198.95 104.06Q199.71 104.56 200.53 104.56Q201.42 104.56 202.03 103.90Q202.66 103.22 202.70 101.94L202.70 101.76Q202.70 100.88 202.33 100.25Q201.97 99.65 201.46 99.39Q200.95 99.14 200.33 99.14Q200.13 99.14 199.98 98.92Q199.82 98.67 199.82 98.34Q199.82 98.03 199.93 97.86L202.09 94.32L198.79 94.32Q198.58 94.32 198.41 94.09Q198.26 93.85 198.26 93.52Q198.26 93.19 198.41 92.96Q198.57 92.74 198.79 92.74L202.94 92.74Q203.15 92.74 203.30 92.98Q203.47 93.21 203.47 93.52L203.47 94.14Q203.47 94.42 203.30 94.66L201.41 97.74L201.50 97.77Q202.50 98.15 203.14 99.18Q203.76 100.20 203.76 101.75L203.76 102.02Q203.70 103.92 202.76 105.03Q201.84 106.14 200.53 106.14Q200.20 106.14 199.87 106.09Q199.54 106.03 199.13 105.91Q198.72 105.77 198.47 105.48ZM207.08 105.36Q207.08 104.94 207.32 104.70Q209.30 102.79 209.30 99.46Q209.30 96.09 207.32 94.09L207.31 94.07Q207.22 94.04 207.15 93.83Q207.08 93.62 207.08 93.45Q207.08 93.14 207.24 92.91Q207.40 92.67 207.61 92.67Q207.78 92.67 207.91 92.81Q210.36 95.31 210.36 99.46Q210.36 103.55 207.91 106.02Q207.78 106.14 207.61 106.14Q207.40 106.14 207.24 105.91Q207.08 105.67 207.08 105.36ZM217.09 106.14L217.05 106.14Q216.35 106.12 215.83 105.79Q215.32 105.48 215.01 104.98Q214.71 104.45 214.53 103.64Q214.34 102.82 214.28 101.99Q214.22 101.17 214.22 100.06Q214.22 99.07 214.24 98.38Q214.26 97.67 214.33 96.85Q214.40 96.02 214.52 95.46Q214.65 94.89 214.86 94.32Q215.07 93.76 215.36 93.43Q215.66 93.10 216.08 92.89Q216.50 92.68 217.05 92.68Q217.57 92.68 218.00 92.89Q218.42 93.10 218.71 93.43Q219.01 93.76 219.23 94.32Q219.44 94.89 219.56 95.46Q219.69 96.04 219.76 96.85Q219.83 97.67 219.84 98.38Q219.87 99.09 219.87 100.06Q219.87 100.76 219.84 101.33Q219.82 101.89 219.74 102.55Q219.67 103.21 219.55 103.71Q219.43 104.19 219.21 104.66Q218.98 105.13 218.70 105.44Q218.42 105.76 218.01 105.95Q217.60 106.14 217.09 106.14M215.28 98.64L215.28 100.06Q215.28 100.84 215.31 101.40Q215.34 101.96 215.45 102.60Q215.54 103.24 215.73 103.64Q215.92 104.06 216.25 104.33Q216.58 104.59 217.05 104.59L217.29 104.59Q217.62 104.59 217.88 104.40Q218.14 104.19 218.29 103.81Q218.46 103.45 218.56 103.03Q218.67 102.60 218.71 102.06Q218.77 101.50 218.78 101.05Q218.81 100.60 218.81 100.06L218.81 99.26Q218.81 98.73 218.80 98.41Q218.80 98.08 218.78 97.60Q218.77 97.09 218.74 96.82Q218.70 96.52 218.64 96.12Q218.59 95.72 218.49 95.48Q218.40 95.24 218.27 94.98Q218.13 94.72 217.96 94.58Q217.79 94.42 217.55 94.33Q217.33 94.25 217.05 94.25Q216.75 94.25 216.52 94.35Q216.29 94.44 216.12 94.61Q215.94 94.79 215.80 95.05Q215.67 95.29 215.58 95.60Q215.48 95.90 215.42 96.26Q215.36 96.61 215.34 97.01Q215.32 97.39 215.29 97.81Q215.28 98.21 215.28 98.64ZM225.09 106.14L225.05 106.14Q224.35 106.12 223.83 105.79Q223.32 105.48 223.01 104.98Q222.71 104.45 222.53 103.64Q222.34 102.82 222.28 101.99Q222.22 101.17 222.22 100.06Q222.22 99.07 222.24 98.38Q222.26 97.67 222.33 96.85Q222.40 96.02 222.52 95.46Q222.65 94.89 222.86 94.32Q223.07 93.76 223.36 93.43Q223.66 93.10 224.08 92.89Q224.50 92.68 225.05 92.68Q225.57 92.68 226.00 92.89Q226.42 93.10 226.71 93.43Q227.01 93.76 227.23 94.32Q227.44 94.89 227.56 95.46Q227.69 96.04 227.76 96.85Q227.83 97.67 227.84 98.38Q227.87 99.09 227.87 100.06Q227.87 100.76 227.84 101.33Q227.82 101.89 227.74 102.55Q227.67 103.21 227.55 103.71Q227.43 104.19 227.21 104.66Q226.98 105.13 226.70 105.44Q226.42 105.76 226.01 105.95Q225.60 106.14 225.09 106.14M223.28 98.64L223.28 100.06Q223.28 100.84 223.31 101.40Q223.34 101.96 223.45 102.60Q223.54 103.24 223.73 103.64Q223.92 104.06 224.25 104.33Q224.58 104.59 225.05 104.59L225.29 104.59Q225.62 104.59 225.88 104.40Q226.14 104.19 226.29 103.81Q226.46 103.45 226.56 103.03Q226.67 102.60 226.71 102.06Q226.77 101.50 226.78 101.05Q226.81 100.60 226.81 100.06L226.81 99.26Q226.81 98.73 226.80 98.41Q226.80 98.08 226.78 97.60Q226.77 97.09 226.74 96.82Q226.70 96.52 226.64 96.12Q226.59 95.72 226.49 95.48Q226.40 95.24 226.27 94.98Q226.13 94.72 225.96 94.58Q225.79 94.42 225.55 94.33Q225.33 94.25 225.05 94.25Q224.75 94.25 224.52 94.35Q224.29 94.44 224.12 94.61Q223.94 94.79 223.80 95.05Q223.67 95.29 223.58 95.60Q223.48 95.90 223.42 96.26Q223.36 96.61 223.34 97.01Q223.32 97.39 223.29 97.81Q223.28 98.21 223.28 98.64ZM233.09 106.14L233.05 106.14Q232.35 106.12 231.83 105.79Q231.32 105.48 231.01 104.98Q230.71 104.45 230.53 103.64Q230.34 102.82 230.28 101.99Q230.22 101.17 230.22 100.06Q230.22 99.07 230.24 98.38Q230.26 97.67 230.33 96.85Q230.40 96.02 230.52 95.46Q230.65 94.89 230.86 94.32Q231.07 93.76 231.36 93.43Q231.66 93.10 232.08 92.89Q232.50 92.68 233.05 92.68Q233.57 92.68 234.00 92.89Q234.42 93.10 234.71 93.43Q235.01 93.76 235.23 94.32Q235.44 94.89 235.56 95.46Q235.69 96.04 235.76 96.85Q235.83 97.67 235.84 98.38Q235.87 99.09 235.87 100.06Q235.87 100.76 235.84 101.33Q235.82 101.89 235.74 102.55Q235.67 103.21 235.55 103.71Q235.43 104.19 235.21 104.66Q234.98 105.13 234.70 105.44Q234.42 105.76 234.01 105.95Q233.60 106.14 233.09 106.14M231.28 98.64L231.28 100.06Q231.28 100.84 231.31 101.40Q231.34 101.96 231.45 102.60Q231.54 103.24 231.73 103.64Q231.92 104.06 232.25 104.33Q232.58 104.59 233.05 104.59L233.29 104.59Q233.62 104.59 233.88 104.40Q234.14 104.19 234.29 103.81Q234.46 103.45 234.56 103.03Q234.67 102.60 234.71 102.06Q234.77 101.50 234.78 101.05Q234.81 100.60 234.81 100.06L234.81 99.26Q234.81 98.73 234.80 98.41Q234.80 98.08 234.78 97.60Q234.77 97.09 234.74 96.82Q234.70 96.52 234.64 96.12Q234.59 95.72 234.49 95.48Q234.40 95.24 234.27 94.98Q234.13 94.72 233.96 94.58Q233.79 94.42 233.55 94.33Q233.33 94.25 233.05 94.25Q232.75 94.25 232.52 94.35Q232.29 94.44 232.12 94.61Q231.94 94.79 231.80 95.05Q231.67 95.29 231.58 95.60Q231.48 95.90 231.42 96.26Q231.36 96.61 231.34 97.01Q231.32 97.39 231.29 97.81Q231.28 98.21 231.28 98.64ZM238.74 96.73Q238.59 96.49 238.59 96.17Q238.59 95.81 238.74 95.64L240.89 92.91Q241.05 92.72 241.23 92.72L241.61 92.72Q241.82 92.72 241.97 92.96Q242.14 93.19 242.14 93.50L242.14 105.31Q242.14 105.62 241.97 105.86Q241.82 106.09 241.61 106.09Q241.40 106.09 241.23 105.86Q241.08 105.64 241.08 105.31L241.08 94.73L239.47 96.76Q239.32 96.96 239.12 96.96Q238.89 96.96 238.74 96.73ZM246.58 94.91Q246.42 94.66 246.42 94.37Q246.42 93.93 246.65 93.71Q247.72 92.67 249.05 92.67Q250.11 92.67 250.83 93.67Q251.56 94.66 251.56 96.28Q251.56 96.92 251.41 97.51Q251.25 98.12 251.06 98.50Q250.87 98.88 250.49 99.35Q250.11 99.82 249.92 100.03Q249.73 100.24 249.32 100.64Q248.87 101.07 248.67 101.30Q248.47 101.52 248.19 101.97Q247.91 102.41 247.78 102.96Q247.65 103.50 247.62 104.25L247.62 104.33L251.10 104.33Q251.33 104.33 251.48 104.58Q251.63 104.80 251.63 105.11Q251.63 105.43 251.47 105.67Q251.31 105.90 251.10 105.90L247.08 105.90Q246.87 105.90 246.71 105.67Q246.55 105.43 246.55 105.11L246.55 104.75Q246.55 103.40 246.67 102.81Q246.87 101.76 247.42 100.95Q247.98 100.12 248.77 99.32Q249.88 98.22 250.17 97.60Q250.50 96.97 250.50 96.28Q250.50 95.36 250.07 94.79Q249.66 94.23 249.05 94.23Q247.99 94.23 247.26 94.99Q247.13 95.13 246.95 95.13Q246.74 95.13 246.58 94.91ZM254.47 105.48Q254.22 105.20 254.22 104.78Q254.22 104.45 254.38 104.23Q254.54 103.99 254.75 103.99Q254.82 103.99 254.95 104.06Q255.71 104.56 256.53 104.56Q257.42 104.56 258.03 103.90Q258.66 103.22 258.70 101.94L258.70 101.76Q258.70 100.88 258.33 100.25Q257.97 99.65 257.46 99.39Q256.95 99.14 256.33 99.14Q256.13 99.14 255.98 98.92Q255.82 98.67 255.82 98.34Q255.82 98.03 255.93 97.86L258.09 94.32L254.79 94.32Q254.58 94.32 254.41 94.09Q254.26 93.85 254.26 93.52Q254.26 93.19 254.41 92.96Q254.57 92.74 254.79 92.74L258.94 92.74Q259.15 92.74 259.30 92.98Q259.47 93.21 259.47 93.52L259.47 94.14Q259.47 94.42 259.30 94.66L257.41 97.74L257.50 97.77Q258.50 98.15 259.14 99.18Q259.76 100.20 259.76 101.75L259.76 102.02Q259.70 103.92 258.76 105.03Q257.84 106.14 256.53 106.14Q256.20 106.14 255.87 106.09Q255.54 106.03 255.13 105.91Q254.72 105.77 254.47 105.48Z" fill="#000000"/>
</svg>