<svg xmlns="http://www.w3.org/2000/svg" viewBox="0 0 280 280" width="260" height="260">
<rect width="100%" height="100%" fill="#ffffff"/>
<path d="M10 10L83 10L83 83L10 83ZM114 10L124 10L124 20L135 20L135 31L145 31L145 41L156 41L156 72L145 72L145 93L156 93L156 72L166 72L166 104L187 104L187 124L197 124L197 114L208 114L208 135L218 135L218 156L239 156L239 166L249 166L249 187L239 187L239 176L228 176L228 166L218 166L218 176L228 176L228 228L208 228L208 239L187 239L187 228L176 228L176 239L156 239L156 228L135 228L135 239L124 239L124 218L166 218L166 208L176 208L176 187L166 187L166 176L208 176L208 166L197 166L197 156L208 156L208 145L197 145L197 135L187 135L187 145L197 145L197 156L176 156L176 166L166 166L166 156L156 156L156 145L166 145L166 135L176 135L176 124L166 124L166 135L156 135L156 104L135 104L135 72L124 72L124 62L114 62L114 52L124 52L124 41L114 41ZM145 10L166 10L166 20L145 20ZM197 10L270 10L270 83L197 83ZM20 20L20 72L72 72L72 20ZM93 20L104 20L104 41L114 41L114 52L93 52ZM176 20L187 20L187 93L176 93L176 52L166 52L166 41L156 41L156 31L176 31ZM208 20L208 72L260 72L260 20ZM31 31L62 31L62 62L31 62ZM218 31L249 31L249 62L218 62ZM104 62L114 62L114 72L104 72ZM93 72L104 72L104 83L114 83L114 93L104 93L104 104L114 104L114 114L93 114ZM114 72L124 72L124 83L114 83ZM10 93L20 93L20 104L10 104ZM72 93L83 93L83 104L72 104ZM114 93L124 93L124 104L114 104ZM187 93L208 93L208 104L187 104ZM228 93L260 93L260 114L270 114L270 145L260 145L260 124L249 124L249 114L239 114L239 135L228 135L228 124L218 124L218 114L208 114L208 104L228 104ZM31 104L62 104L62 114L83 114L83 124L52 124L52 145L62 145L62 156L52 156L52 166L41 166L41 135L31 135L31 124L41 124L41 114L31 114ZM124 104L135 104L135 114L124 114ZM10 114L20 114L20 124L10 124ZM114 114L124 114L124 124L114 124ZM83 124L93 124L93 135L83 135ZM104 124L114 124L114 135L104 135ZM135 124L145 124L145 145L114 145L114 135L135 135ZM10 135L31 135L31 145L20 145L20 187L10 187ZM62 135L83 135L83 145L62 145ZM93 135L104 135L104 166L72 166L72 156L93 156ZM249 145L260 145L260 156L270 156L270 176L260 176L260 166L249 166ZM114 156L156 156L156 166L135 166L135 176L156 176L156 197L135 197L135 187L124 187L124 197L114 197L114 208L104 208L104 197L93 197L93 187L52 187L52 166L72 166L72 176L104 176L104 166L114 166L114 176L124 176L124 166L114 166ZM31 166L41 166L41 176L31 176ZM156 166L166 166L166 176L156 176ZM187 187L187 218L218 218L218 187ZM10 197L83 197L83 270L10 270ZM124 197L135 197L135 208L124 208ZM197 197L208 197L208 208L197 208ZM260 197L270 197L270 218L249 218L249 208L260 208ZM20 208L20 260L72 260L72 208ZM114 208L124 208L124 218L114 218ZM31 218L62 218L62 249L31 249ZM104 218L114 218L114 239L104 239ZM239 218L249 218L249 228L239 228ZM249 228L270 228L270 270L260 270L260 239L249 239ZM145 239L156 239L156 249L145 249ZM176 239L187 239L187 270L176 270ZM228 239L249 239L249 249L228 249ZM104 249L135 249L135 260L124 260L124 270L114 270L114 260L104 260ZM156 249L166 249L166 260L156 260ZM197 249L228 249L228 260L197 260ZM93 260L104 260L104 270L93 270ZM135 260L145 260L145 270L135 270ZM228 260L239 260L239 270L228 270Z" fill="#000000" fill-rule="evenodd"/>
</svg>