<svg xmlns="http://www.w3.org/2000/svg" viewBox="0 0 280 280" width="260" height="260">
<rect width="100%" height="100%" fill="#ffffff"/>
<path d="M10 10L21 10L21 33L44 33L44 55L55 55L55 44L67 44L67 55L78 55L78 67L123 67L123 44L146 44L146 55L134 55L134 67L213 67L213 44L236 44L236 33L247 33L247 55L225 55L225 78L213 78L213 89L225 89L225 78L236 78L236 67L259 67L259 78L247 78L247 89L259 89L259 100L270 100L270 123L259 123L259 112L247 112L247 100L213 100L213 146L225 146L225 157L247 157L247 168L236 168L236 180L225 180L225 168L213 168L213 180L225 180L225 202L259 202L259 213L191 213L191 225L225 225L225 236L191 236L191 270L180 270L180 225L146 225L146 213L112 213L112 236L78 236L78 225L89 225L89 213L67 213L67 191L44 191L44 180L55 180L55 157L67 157L67 100L33 100L33 89L44 89L44 78L55 78L55 89L67 89L67 78L55 78L55 67L33 67L33 55L10 55ZM33 10L55 10L55 21L33 21ZM89 10L112 10L112 21L89 21ZM146 10L157 10L157 44L146 44L146 33L112 33L112 21L146 21ZM168 10L180 10L180 33L191 33L191 10L202 10L202 21L213 21L213 33L202 33L202 55L191 55L191 44L168 44ZM236 10L270 10L270 21L259 21L259 33L247 33L247 21L236 21ZM78 21L89 21L89 44L78 44ZM100 33L112 33L112 44L100 44ZM259 44L270 44L270 67L259 67ZM21 67L33 67L33 78L21 78ZM78 78L78 202L202 202L202 78ZM259 78L270 78L270 89L259 89ZM10 89L21 89L21 134L10 134ZM89 89L191 89L191 191L89 191ZM100 100L100 180L180 180L180 100ZM33 112L55 112L55 123L44 123L44 134L33 134ZM112 112L168 112L168 168L112 168ZM236 112L247 112L247 123L236 123ZM123 123L123 157L157 157L157 123ZM225 123L236 123L236 146L225 146ZM247 123L259 123L259 146L247 146ZM21 134L33 134L33 146L21 146ZM44 134L55 134L55 157L44 157ZM134 134L146 134L146 146L134 146ZM10 146L21 146L21 157L10 157ZM259 146L270 146L270 168L259 168ZM33 157L44 157L44 180L33 180ZM21 180L33 180L33 191L21 191ZM236 180L247 180L247 191L236 191ZM10 191L21 191L21 247L10 247ZM44 202L55 202L55 213L44 213ZM33 213L44 213L44 225L33 225ZM259 213L270 213L270 225L259 225ZM123 225L146 225L146 236L134 236L134 247L146 247L146 236L168 236L168 259L134 259L134 270L123 270L123 259L112 259L112 270L89 270L89 259L100 259L100 247L123 247ZM33 236L78 236L78 247L55 247L55 259L67 259L67 270L44 270L44 259L33 259ZM225 236L247 236L247 247L225 247ZM202 247L213 247L213 259L202 259ZM247 247L270 247L270 270L247 270Z" fill="#000000" fill-rule="evenodd"/>
</svg>